font.ufo
<glyph name="exclam" format="1">
  <advance width="270"/>
  <unicode hex="0021"/>
  <outline>
    <contour>
      <point x="215" y="682" type="line"/>
      <point x="89" y="710" type="line"/>
      <point x="92" y="163" type="line"/>
      <point x="181" y="144" type="line"/>
    </contour>
    <contour>
      <point x="141" y="90" type="curve" smooth="yes"/>
      <point x="172" y="90"/>
      <point x="201" y="66"/>
      <point x="201" y="31" type="curve" smooth="yes"/>
      <point x="201" y="-6"/>
      <point x="171" y="-29"/>
      <point x="141" y="-29" type="curve" smooth="yes"/>
      <point x="109" y="-29"/>
      <point x="80" y="-5"/>
      <point x="80" y="31" type="curve" smooth="yes"/>
      <point x="80" y="66"/>
      <point x="109" y="90"/>
    </contour>
  </outline>
</glyph>
<glyph name="quotedbl" format="1">
  <advance width="484"/>
  <unicode hex="0022"/>
  <outline>
    <contour>
      <point x="335" y="573" type="line"/>
      <point x="384" y="629"/>
      <point x="413" y="701"/>
      <point x="408" y="782" type="curve"/>
      <point x="399" y="794"/>
      <point x="282" y="835"/>
      <point x="285" y="812" type="curve"/>
      <point x="292" y="740"/>
      <point x="282" y="646"/>
      <point x="283" y="578" type="curve"/>
    </contour>
    <contour>
      <point x="110" y="573" type="line"/>
      <point x="159" y="629"/>
      <point x="188" y="701"/>
      <point x="183" y="782" type="curve"/>
      <point x="174" y="794"/>
      <point x="57" y="835"/>
      <point x="60" y="812" type="curve"/>
      <point x="67" y="740"/>
      <point x="57" y="646"/>
      <point x="58" y="578" type="curve"/>
    </contour>
  </outline>
</glyph>
<glyph name="asterisk" format="1">
  <advance width="367"/>
  <unicode hex="002A"/>
  <outline>
    <contour>
      <point x="213" y="436" type="line"/>
      <point x="167" y="448" type="line"/>
      <point x="160" y="753" type="line"/>
      <point x="211" y="745" type="line"/>
    </contour>
    <contour>
      <point x="270" y="710" type="line"/>
      <point x="337" y="655" type="line"/>
      <point x="110" y="489" type="line"/>
      <point x="40" y="547" type="line"/>
    </contour>
    <contour>
      <point x="53" y="673" type="line"/>
      <point x="79" y="698" type="line"/>
      <point x="337" y="533" type="line"/>
      <point x="304" y="493" type="line"/>
    </contour>
  </outline>
</glyph>
<glyph name="zero" format="1">
  <advance width="641"/>
  <unicode hex="0030"/>
  <outline>
    <contour>
      <point x="414" y="723" type="move" name="top"/>
    </contour>
    <contour>
      <point x="517" y="521" type="curve" smooth="yes"/>
      <point x="687" y="349"/>
      <point x="528" y="-180"/>
      <point x="265" y="8" type="curve" smooth="yes"/>
      <point x="236" y="28"/>
      <point x="195" y="59"/>
      <point x="148" y="100" type="curve" smooth="yes"/>
      <point x="-98" y="312"/>
      <point x="204" y="789"/>
      <point x="397" y="631" type="curve" smooth="yes"/>
      <point x="453" y="585"/>
      <point x="477" y="561"/>
    </contour>
    <contour>
      <point x="416" y="526" type="curve" smooth="yes"/>
      <point x="264" y="651"/>
      <point x="90" y="235"/>
      <point x="236" y="113" type="curve"/>
      <point x="386" y="-16"/>
      <point x="564" y="403"/>
    </contour>
  </outline>
</glyph>
<glyph name="one" format="1">
  <advance width="434"/>
  <unicode hex="0031"/>
  <outline>
    <contour>
      <point x="372" y="625" type="line"/>
      <point x="244" y="667" type="line"/>
      <point x="5" y="439" type="line"/>
      <point x="129" y="394" type="line"/>
      <point x="244" y="503" type="line"/>
      <point x="244" y="0" type="line"/>
      <point x="374" y="-29" type="line"/>
    </contour>
  </outline>
</glyph>
<glyph name="two" format="1">
  <advance width="583"/>
  <unicode hex="0032"/>
  <outline>
    <contour>
      <point x="78" y="0" type="line"/>
      <point x="552" y="0" type="line"/>
      <point x="472" y="90" type="line"/>
      <point x="178" y="90" type="line"/>
      <point x="358" y="249" type="line"/>
      <point x="419" y="310"/>
      <point x="527" y="409"/>
      <point x="454" y="489" type="curve" smooth="yes"/>
      <point x="399" y="548"/>
      <point x="341" y="603"/>
      <point x="284" y="651" type="curve" smooth="yes"/>
      <point x="213" y="710"/>
      <point x="70" y="609"/>
      <point x="34" y="585" type="curve"/>
      <point x="112" y="489" type="line"/>
      <point x="157" y="520"/>
      <point x="263" y="622"/>
      <point x="340" y="528" type="curve" smooth="yes"/>
      <point x="399" y="456"/>
      <point x="338" y="393"/>
      <point x="238" y="300" type="curve"/>
      <point x="-2" y="90" type="line"/>
    </contour>
  </outline>
</glyph>
<glyph name="three" format="1">
  <advance width="568"/>
  <unicode hex="0033"/>
  <outline>
    <contour>
      <point x="469" y="489" type="curve" smooth="yes"/>
      <point x="514" y="433"/>
      <point x="478" y="368"/>
      <point x="402" y="323" type="curve"/>
      <point x="439" y="293"/>
      <point x="477" y="264"/>
      <point x="502" y="238" type="curve" smooth="yes"/>
      <point x="596" y="140"/>
      <point x="346" y="-101"/>
      <point x="166" y="20" type="curve" smooth="yes"/>
      <point x="117" y="53"/>
      <point x="79" y="90"/>
      <point x="29" y="160" type="curve"/>
      <point x="71" y="188" type="line"/>
      <point x="243" y="-22"/>
      <point x="494" y="166"/>
      <point x="360" y="302" type="curve"/>
      <point x="320" y="285"/>
      <point x="273" y="275"/>
      <point x="225" y="273" type="curve"/>
      <point x="174" y="366" type="line"/>
      <point x="501" y="385"/>
      <point x="375" y="701"/>
      <point x="140" y="505" type="curve"/>
      <point x="71" y="594" type="line"/>
      <point x="123" y="625"/>
      <point x="249" y="708"/>
      <point x="322" y="646" type="curve" smooth="yes"/>
      <point x="381" y="595"/>
      <point x="418" y="551"/>
    </contour>
  </outline>
</glyph>
<glyph name="five" format="1">
  <advance width="612"/>
  <unicode hex="0035"/>
  <outline>
    <contour>
      <point x="56" y="205" type="line"/>
      <point x="89" y="182"/>
      <point x="170" y="85"/>
      <point x="311" y="84" type="curve" smooth="yes"/>
      <point x="438" y="83"/>
      <point x="471" y="244"/>
      <point x="447" y="278" type="curve" smooth="yes"/>
      <point x="423" y="312"/>
      <point x="236" y="204"/>
      <point x="200" y="235" type="curve" smooth="yes"/>
      <point x="152" y="276"/>
      <point x="126" y="319"/>
      <point x="91" y="362" type="curve" smooth="yes"/>
      <point x="82" y="373"/>
      <point x="92" y="541"/>
      <point x="95" y="624" type="curve"/>
      <point x="97" y="623" type="line"/>
      <point x="96" y="625" type="line"/>
      <point x="423" y="625" type="line"/>
      <point x="513" y="525" type="line"/>
      <point x="225" y="525" type="line"/>
      <point x="217" y="468"/>
      <point x="207" y="401"/>
      <point x="212" y="366" type="curve"/>
      <point x="259" y="362"/>
      <point x="386" y="400"/>
      <point x="400" y="388" type="curve" smooth="yes"/>
      <point x="448" y="348"/>
      <point x="531" y="274"/>
      <point x="560" y="229" type="curve" smooth="yes"/>
      <point x="590" y="183"/>
      <point x="561" y="-31"/>
      <point x="359" y="-30" type="curve" smooth="yes"/>
      <point x="204" y="-29"/>
      <point x="59" y="127"/>
      <point x="35" y="161" type="curve"/>
    </contour>
  </outline>
</glyph>
<glyph name="eight" format="1">
  <advance width="544"/>
  <unicode hex="0038"/>
  <outline>
    <contour>
      <point x="249" y="379" type="curve"/>
      <point x="81" y="467"/>
      <point x="260" y="645"/>
      <point x="354" y="556" type="curve" smooth="yes"/>
      <point x="406" y="507"/>
      <point x="313" y="419"/>
    </contour>
    <contour>
      <point x="204" y="53" type="curve" smooth="yes"/>
      <point x="94" y="107"/>
      <point x="198" y="241"/>
      <point x="306" y="281" type="curve"/>
      <point x="494" y="162"/>
      <point x="284" y="14"/>
    </contour>
    <contour>
      <point x="474" y="508" type="curve" smooth="yes"/>
      <point x="455" y="536"/>
      <point x="320" y="667"/>
      <point x="295" y="668" type="curve" smooth="yes"/>
      <point x="140" y="676"/>
      <point x="50" y="518"/>
      <point x="67" y="465" type="curve" smooth="yes"/>
      <point x="77" y="434"/>
      <point x="144" y="386"/>
      <point x="201" y="350" type="curve"/>
      <point x="82" y="301"/>
      <point x="7" y="186"/>
      <point x="65" y="92" type="curve" smooth="yes"/>
      <point x="82" y="63"/>
      <point x="267" y="-36"/>
      <point x="292" y="-37" type="curve" smooth="yes"/>
      <point x="447" y="-45"/>
      <point x="530" y="143"/>
      <point x="499" y="190" type="curve" smooth="yes"/>
      <point x="488" y="207"/>
      <point x="420" y="274"/>
      <point x="354" y="317" type="curve"/>
      <point x="464" y="394"/>
      <point x="512" y="454"/>
    </contour>
  </outline>
</glyph>
<glyph name="semicolon" format="1">
  <advance width="306"/>
  <unicode hex="003B"/>
  <outline>
    <contour>
      <point x="142" y="336" type="curve"/>
      <point x="114" y="349"/>
      <point x="83" y="375"/>
      <point x="66" y="409" type="curve"/>
      <point x="69" y="432"/>
      <point x="120" y="474"/>
      <point x="141" y="479" type="curve"/>
      <point x="186" y="459"/>
      <point x="207" y="426"/>
      <point x="216" y="408" type="curve"/>
      <point x="207" y="385"/>
      <point x="183" y="357"/>
    </contour>
    <contour>
      <point x="130" y="-147" type="curve"/>
      <point x="89" y="-120" type="line"/>
      <point x="101" y="-82"/>
      <point x="113" y="-25"/>
      <point x="111" y="-4" type="curve"/>
      <point x="95" y="10"/>
      <point x="76" y="31"/>
      <point x="66" y="51" type="curve"/>
      <point x="69" y="74"/>
      <point x="120" y="116"/>
      <point x="141" y="121" type="curve"/>
      <point x="173" y="106"/>
      <point x="218" y="67"/>
      <point x="216" y="39" type="curve"/>
      <point x="208" y="-12"/>
      <point x="159" y="-114"/>
    </contour>
  </outline>
</glyph>
<glyph name="greater" format="1">
  <advance width="499"/>
  <unicode hex="003E"/>
  <outline>
    <contour>
      <point x="140" y="582" type="line"/>
      <point x="30" y="503" type="line"/>
      <point x="282" y="292" type="line"/>
      <point x="39" y="111" type="line"/>
      <point x="103" y="41" type="line"/>
      <point x="459" y="321" type="line"/>
    </contour>
  </outline>
</glyph>
<glyph name="question" format="1">
  <advance width="475"/>
  <unicode hex="003F"/>
  <outline>
    <contour>
      <point x="207" y="90" type="curve" smooth="yes"/>
      <point x="238" y="90"/>
      <point x="267" y="66"/>
      <point x="267" y="31" type="curve" smooth="yes"/>
      <point x="267" y="-6"/>
      <point x="237" y="-29"/>
      <point x="207" y="-29" type="curve" smooth="yes"/>
      <point x="175" y="-29"/>
      <point x="146" y="-5"/>
      <point x="146" y="31" type="curve" smooth="yes"/>
      <point x="146" y="66"/>
      <point x="175" y="90"/>
    </contour>
    <contour>
      <point x="143" y="448" type="line"/>
      <point x="-80" y="562"/>
      <point x="149" y="764"/>
      <point x="258" y="698" type="curve" smooth="yes"/>
      <point x="327" y="656"/>
      <point x="423" y="542"/>
      <point x="435" y="509" type="curve" smooth="yes"/>
      <point x="467" y="419"/>
      <point x="312" y="245"/>
      <point x="221" y="145" type="curve"/>
      <point x="127" y="226" type="line"/>
      <point x="138" y="237"/>
      <point x="404" y="505"/>
      <point x="317" y="590" type="curve" smooth="yes"/>
      <point x="239" y="666"/>
      <point x="82" y="549"/>
      <point x="179" y="477" type="curve"/>
    </contour>
  </outline>
</glyph>
<glyph name="A" format="1">
  <advance width="697"/>
  <unicode hex="0041"/>
  <outline>
    <contour>
      <point x="358" y="743" type="move" name="top"/>
    </contour>
    <contour>
      <point x="423" y="8" type="move" name="ogonek"/>
    </contour>
    <contour>
      <point x="400" y="625" type="line"/>
      <point x="272" y="666" type="line"/>
      <point x="30" y="0" type="line"/>
      <point x="160" y="-29" type="line"/>
    </contour>
    <contour>
      <point x="548" y="0" type="line"/>
      <point x="667" y="-29" type="line"/>
      <point x="398" y="625" type="line"/>
      <point x="319" y="599" type="line"/>
    </contour>
    <contour>
      <point x="203" y="165" type="line"/>
      <point x="510" y="185" type="line"/>
      <point x="510" y="270" type="line"/>
      <point x="203" y="250" type="line"/>
    </contour>
  </outline>
</glyph>
<glyph name="B" format="1">
  <advance width="709"/>
  <unicode hex="0042"/>
  <outline>
    <contour>
      <point x="215" y="1" type="line"/>
      <point x="599" y="-90"/>
      <point x="714" y="161"/>
      <point x="659" y="226" type="curve" smooth="yes"/>
      <point x="624" y="267"/>
      <point x="557" y="319"/>
      <point x="498" y="346" type="curve"/>
      <point x="425" y="323" type="line"/>
      <point x="612" y="288"/>
      <point x="547" y="-2"/>
      <point x="214" y="52" type="curve"/>
    </contour>
    <contour>
      <point x="213" y="625" type="line"/>
      <point x="85" y="666" type="line"/>
      <point x="85" y="30" type="line"/>
      <point x="215" y="1" type="line"/>
    </contour>
    <contour>
      <point x="178" y="317" type="line"/>
      <point x="539" y="179"/>
      <point x="650" y="458"/>
      <point x="595" y="523" type="curve" smooth="yes"/>
      <point x="560" y="564"/>
      <point x="474" y="649"/>
      <point x="429" y="678" type="curve" smooth="yes"/>
      <point x="393" y="701"/>
      <point x="199" y="700"/>
      <point x="85" y="669" type="curve"/>
      <point x="109" y="531" type="line"/>
      <point x="191" y="596"/>
      <point x="414" y="637"/>
      <point x="471" y="575" type="curve" smooth="yes"/>
      <point x="508" y="535"/>
      <point x="479" y="305"/>
      <point x="180" y="353" type="curve"/>
    </contour>
  </outline>
</glyph>
<glyph name="M" format="1">
  <advance width="892"/>
  <unicode hex="004D"/>
  <outline>
    <contour>
      <point x="795" y="626" type="line"/>
      <point x="667" y="666" type="line"/>
      <point x="667" y="665" type="line"/>
      <point x="665" y="666" type="line"/>
      <point x="440" y="230" type="line"/>
      <point x="204" y="626" type="line"/>
      <point x="76" y="666" type="line"/>
      <point x="76" y="0" type="line"/>
      <point x="206" y="-29" type="line"/>
      <point x="204" y="420" type="line"/>
      <point x="378" y="110" type="line"/>
      <point x="508" y="81" type="line"/>
      <point x="667" y="383" type="line"/>
      <point x="667" y="0" type="line"/>
      <point x="797" y="-29" type="line"/>
    </contour>
  </outline>
</glyph>
<glyph name="Q" format="1">
  <advance width="843"/>
  <unicode hex="0051"/>
  <outline>
    <contour>
      <point x="707" y="523" type="curve" smooth="yes"/>
      <point x="646" y="582"/>
      <point x="584" y="629"/>
      <point x="484" y="683" type="curve" smooth="yes"/>
      <point x="221" y="825"/>
      <point x="-52" y="346"/>
      <point x="151" y="152" type="curve" smooth="yes"/>
      <point x="243" y="63"/>
      <point x="288" y="44"/>
      <point x="360" y="4" type="curve" smooth="yes"/>
      <point x="371" y="-2"/>
      <point x="382" y="-8"/>
      <point x="394" y="-12" type="curve"/>
      <point x="391" y="-41"/>
      <point x="389" y="-71"/>
      <point x="389" y="-101" type="curve" smooth="yes"/>
      <point x="387" y="-207"/>
      <point x="491" y="-281"/>
      <point x="596" y="-236" type="curve"/>
      <point x="483" y="-245"/>
      <point x="498" y="-153"/>
      <point x="503" y="-56" type="curve" smooth="yes"/>
      <point x="503" y="-47"/>
      <point x="503" y="-37"/>
      <point x="504" y="-28" type="curve"/>
      <point x="727" y="-3"/>
      <point x="881" y="354"/>
    </contour>
    <contour>
      <point x="551" y="572" type="curve" smooth="yes"/>
      <point x="709" y="468"/>
      <point x="652" y="203"/>
      <point x="518" y="106" type="curve"/>
      <point x="522" y="157"/>
      <point x="521" y="197"/>
      <point x="504" y="212" type="curve" smooth="yes"/>
      <point x="475" y="236"/>
      <point x="355" y="354"/>
      <point x="308" y="358" type="curve" smooth="yes"/>
      <point x="292" y="359"/>
      <point x="253" y="347"/>
      <point x="218" y="336" type="curve"/>
      <point x="236" y="510"/>
      <point x="382" y="683"/>
    </contour>
    <contour>
      <point x="366" y="255" type="curve" smooth="yes"/>
      <point x="408" y="227"/>
      <point x="408" y="157"/>
      <point x="401" y="71" type="curve"/>
      <point x="373" y="73"/>
      <point x="344" y="83"/>
      <point x="314" y="102" type="curve" smooth="yes"/>
      <point x="267" y="131"/>
      <point x="239" y="176"/>
      <point x="226" y="226" type="curve"/>
      <point x="267" y="283"/>
      <point x="337" y="273"/>
    </contour>
  </outline>
</glyph>
<glyph name="R" format="1">
  <advance width="694"/>
  <unicode hex="0052"/>
  <outline>
    <contour>
      <point x="407" y="743" type="move" name="top"/>
    </contour>
    <contour>
      <point x="215" y="-29" type="line"/>
      <point x="85" y="0" type="line"/>
      <point x="85" y="669" type="line"/>
      <point x="199" y="700"/>
      <point x="399" y="719"/>
      <point x="430" y="690" type="curve" smooth="yes"/>
      <point x="467" y="657"/>
      <point x="578" y="547"/>
      <point x="613" y="506" type="curve" smooth="yes"/>
      <point x="645" y="468"/>
      <point x="608" y="348"/>
      <point x="498" y="282" type="curve"/>
      <point x="546" y="260"/>
      <point x="599" y="235"/>
      <point x="605" y="228" type="curve"/>
      <point x="642" y="174"/>
      <point x="626" y="109"/>
      <point x="625" y="53" type="curve" smooth="yes"/>
      <point x="624" y="-11"/>
      <point x="603" y="-66"/>
      <point x="692" y="-94" type="curve"/>
      <point x="586" y="-115"/>
      <point x="519" y="-53"/>
      <point x="513" y="53" type="curve" smooth="yes"/>
      <point x="510" y="101"/>
      <point x="503" y="164"/>
      <point x="492" y="208" type="curve"/>
      <point x="484" y="219"/>
      <point x="464" y="238"/>
      <point x="443" y="256" type="curve"/>
      <point x="383" y="235"/>
      <point x="306" y="229"/>
      <point x="214" y="252" type="curve"/>
    </contour>
    <contour>
      <point x="475" y="577" type="curve" smooth="yes"/>
      <point x="424" y="629"/>
      <point x="303" y="614"/>
      <point x="213" y="597" type="curve"/>
      <point x="214" y="308" type="line"/>
      <point x="466" y="283"/>
      <point x="544" y="506"/>
    </contour>
  </outline>
</glyph>
<glyph name="U" format="1">
  <advance width="721"/>
  <unicode hex="0055"/>
  <outline>
    <contour>
      <point x="270" y="23" type="move" name="ogonek"/>
    </contour>
    <contour>
      <point x="342" y="743" type="move" name="top"/>
    </contour>
    <contour>
      <point x="651" y="626" type="line"/>
      <point x="512" y="667" type="line"/>
      <point x="512" y="196" type="line"/>
      <point x="467" y="85"/>
      <point x="291" y="26"/>
      <point x="206" y="118" type="curve" smooth="yes"/>
      <point x="201" y="124"/>
      <point x="205" y="626"/>
      <point x="205" y="626" type="curve"/>
      <point x="205" y="627"/>
      <point x="66" y="666"/>
      <point x="67" y="667" type="curve"/>
      <point x="67" y="667"/>
      <point x="61" y="181"/>
      <point x="70" y="171" type="curve" smooth="yes"/>
      <point x="160" y="71"/>
      <point x="293" y="-30"/>
      <point x="376" y="-30" type="curve" smooth="yes"/>
      <point x="516" y="-30"/>
      <point x="651" y="87"/>
      <point x="651" y="158" type="curve" smooth="yes"/>
    </contour>
  </outline>
</glyph>
<glyph name="X" format="1">
  <advance width="710"/>
  <unicode hex="0058"/>
  <outline>
    <contour>
      <point x="177" y="638" type="line"/>
      <point x="42" y="667" type="line"/>
      <point x="287" y="345" type="line"/>
      <point x="30" y="0" type="line"/>
      <point x="169" y="-29" type="line"/>
      <point x="369" y="238" type="line"/>
      <point x="550" y="0" type="line"/>
      <point x="690" y="-29" type="line"/>
      <point x="426" y="314" type="line"/>
      <point x="667" y="637" type="line"/>
      <point x="527" y="666" type="line"/>
      <point x="344" y="421" type="line"/>
    </contour>
  </outline>
</glyph>
<glyph name="Z" format="1">
  <advance width="835"/>
  <unicode hex="005A"/>
  <outline>
    <contour>
      <point x="460" y="743" type="move" name="top"/>
    </contour>
    <contour>
      <point x="238" y="51" type="line"/>
      <point x="81" y="89" type="line"/>
      <point x="577" y="627" type="line"/>
      <point x="732" y="577" type="line"/>
    </contour>
    <contour>
      <point x="82" y="90" type="line"/>
      <point x="698" y="90" type="line"/>
      <point x="778" y="0" type="line"/>
      <point x="162" y="0" type="line"/>
    </contour>
    <contour>
      <point x="52" y="667" type="line"/>
      <point x="652" y="667" type="line"/>
      <point x="732" y="577" type="line"/>
      <point x="132" y="577" type="line"/>
    </contour>
  </outline>
</glyph>
<glyph name="bracketright" format="1">
  <advance width="521"/>
  <unicode hex="005D"/>
  <outline>
    <contour>
      <point x="274" y="42" type="line"/>
      <point x="402" y="1" type="line"/>
      <point x="402" y="619" type="line"/>
      <point x="272" y="648" type="line"/>
    </contour>
    <contour>
      <point x="322" y="90" type="line"/>
      <point x="125" y="90" type="line"/>
      <point x="205" y="0" type="line"/>
      <point x="402" y="0" type="line"/>
    </contour>
    <contour>
      <point x="322" y="709" type="line"/>
      <point x="85" y="709" type="line"/>
      <point x="165" y="619" type="line"/>
      <point x="402" y="619" type="line"/>
    </contour>
  </outline>
</glyph>
<glyph name="asciicircum" format="1">
  <advance width="422"/>
  <unicode hex="005E"/>
  <outline>
    <contour>
      <point x="26" y="688" type="line"/>
      <point x="103" y="610" type="line"/>
      <point x="262" y="798" type="line"/>
      <point x="392" y="609" type="line"/>
      <point x="425" y="649" type="line"/>
      <point x="240" y="893" type="line"/>
    </contour>
  </outline>
</glyph>
<glyph name="grave" format="1">
  <advance width="338"/>
  <unicode hex="0060"/>
  <outline>
    <contour>
      <point x="338" y="546" type="move" name="_top"/>
    </contour>
    <contour>
      <point x="341" y="550" type="line"/>
      <point x="287" y="578"/>
      <point x="217" y="629"/>
      <point x="162" y="676" type="curve" smooth="yes"/>
      <point x="144" y="691"/>
      <point x="211" y="772"/>
      <point x="226" y="770" type="curve"/>
      <point x="275" y="700"/>
      <point x="326" y="644"/>
      <point x="364" y="591" type="curve"/>
    </contour>
  </outline>
</glyph>
<glyph name="c" format="1">
  <advance width="546"/>
  <unicode hex="0063"/>
  <outline>
    <contour>
      <point x="164" y="7" type="move" name="cedilla"/>
    </contour>
    <contour>
      <point x="279" y="507" type="move" name="top"/>
    </contour>
    <contour>
      <point x="439" y="370" type="line"/>
      <point x="383" y="390"/>
      <point x="359" y="396"/>
      <point x="323" y="395" type="curve" smooth="yes"/>
      <point x="218" y="393"/>
      <point x="114" y="155"/>
      <point x="220" y="79" type="curve" smooth="yes"/>
      <point x="293" y="26"/>
      <point x="392" y="86"/>
      <point x="437" y="160" type="curve" smooth="yes"/>
      <point x="438" y="161"/>
      <point x="527" y="97"/>
      <point x="527" y="97" type="curve"/>
      <point x="416" y="-46"/>
      <point x="287" y="-55"/>
      <point x="194" y="7" type="curve" smooth="yes"/>
      <point x="-44" y="166"/>
      <point x="82" y="489"/>
      <point x="297" y="489" type="curve" smooth="yes"/>
      <point x="314" y="489"/>
      <point x="381" y="471"/>
      <point x="470" y="425" type="curve"/>
    </contour>
  </outline>
</glyph>
<glyph name="d" format="1">
  <advance width="587"/>
  <unicode hex="0064"/>
  <outline>
    <contour>
      <point x="205" y="51" type="curve" smooth="yes"/>
      <point x="263" y="22"/>
      <point x="328" y="42"/>
      <point x="396" y="90" type="curve"/>
      <point x="396" y="371" type="line"/>
      <point x="366" y="389"/>
      <point x="343" y="391"/>
      <point x="315" y="394" type="curve" smooth="yes"/>
      <point x="199" y="405"/>
      <point x="99" y="104"/>
    </contour>
    <contour>
      <point x="521" y="682" type="line"/>
      <point x="521" y="682"/>
      <point x="527" y="7"/>
      <point x="521" y="1" type="curve"/>
      <point x="416" y="-21"/>
      <point x="300" y="-61"/>
      <point x="167" y="12" type="curve" smooth="yes"/>
      <point x="-112" y="164"/>
      <point x="158" y="527"/>
      <point x="292" y="485" type="curve" smooth="yes"/>
      <point x="330" y="473"/>
      <point x="359" y="449"/>
      <point x="396" y="425" type="curve"/>
      <point x="396" y="710" type="line"/>
    </contour>
  </outline>
</glyph>
<glyph name="e" format="1">
  <advance width="553"/>
  <unicode hex="0065"/>
  <outline>
    <contour>
      <point x="288" y="43" type="move" name="ogonek"/>
    </contour>
    <contour>
      <point x="304" y="523" type="move" name="top"/>
    </contour>
    <contour>
      <point x="165" y="199" type="line"/>
      <point x="165" y="346"/>
      <point x="248" y="448"/>
      <point x="392" y="354" type="curve"/>
    </contour>
    <contour>
      <point x="188" y="103" type="curve"/>
      <point x="188" y="103"/>
      <point x="501" y="330"/>
      <point x="503" y="337" type="curve"/>
      <point x="446" y="391"/>
      <point x="313" y="489"/>
      <point x="254" y="489" type="curve" smooth="yes"/>
      <point x="85" y="489"/>
      <point x="-26" y="239"/>
      <point x="100" y="101" type="curve" smooth="yes"/>
      <point x="150" y="46"/>
      <point x="217" y="2"/>
      <point x="262" y="-15" type="curve" smooth="yes"/>
      <point x="346" y="-47"/>
      <point x="423" y="-7"/>
      <point x="528" y="70" type="curve"/>
      <point x="528" y="70"/>
      <point x="451" y="153"/>
      <point x="450" y="152" type="curve" smooth="yes"/>
      <point x="379" y="93"/>
      <point x="268" y="7"/>
    </contour>
  </outline>
</glyph>
<glyph name="g" format="1">
  <advance width="608"/>
  <unicode hex="0067"/>
  <outline>
    <contour>
      <point x="343" y="507" type="move" name="top"/>
    </contour>
    <contour>
      <point x="174" y="19" type="curve" smooth="yes"/>
      <point x="186" y="-5"/>
      <point x="444" y="64"/>
      <point x="463" y="46" type="curve" smooth="yes"/>
      <point x="614" y="-100"/>
      <point x="452" y="-255"/>
      <point x="302" y="-255" type="curve" smooth="yes"/>
      <point x="189" y="-255"/>
      <point x="73" y="-167"/>
      <point x="57" y="-134" type="curve" smooth="yes"/>
      <point x="51" y="-122"/>
      <point x="88" y="-97"/>
      <point x="142" y="-41" type="curve"/>
      <point x="114" y="0"/>
      <point x="80" y="58"/>
      <point x="68" y="77" type="curve" smooth="yes"/>
      <point x="49" y="106"/>
      <point x="114" y="102"/>
      <point x="198" y="127" type="curve"/>
      <point x="174" y="142"/>
      <point x="158" y="157"/>
      <point x="123" y="187" type="curve" smooth="yes"/>
      <point x="-48" y="333"/>
      <point x="176" y="533"/>
      <point x="274" y="482" type="curve" smooth="yes"/>
      <point x="316" y="460"/>
      <point x="350" y="450"/>
      <point x="380" y="432" type="curve"/>
      <point x="548" y="432" type="line"/>
      <point x="578" y="362" type="line"/>
      <point x="443" y="362" type="line"/>
      <point x="596" y="90"/>
      <point x="162" y="42"/>
    </contour>
    <contour>
      <point x="332" y="390" type="curve" smooth="yes"/>
      <point x="228" y="468"/>
      <point x="100" y="266"/>
      <point x="209" y="179" type="curve" smooth="yes"/>
      <point x="297" y="109"/>
      <point x="460" y="294"/>
    </contour>
    <contour>
      <point x="117" y="-137" type="line"/>
      <point x="248" y="-240"/>
      <point x="449" y="-96"/>
      <point x="447" y="-19" type="curve" smooth="yes"/>
      <point x="447" y="0"/>
      <point x="226" y="-134"/>
      <point x="174" y="-84" type="curve" smooth="yes"/>
      <point x="168" y="-78" type="line"/>
    </contour>
  </outline>
</glyph>
<glyph name="h" format="1">
  <advance width="614"/>
  <unicode hex="0068"/>
  <outline>
    <contour>
      <point x="180" y="682" type="line"/>
      <point x="65" y="710" type="line"/>
      <point x="65" y="-1" type="line"/>
      <point x="180" y="-29" type="line"/>
    </contour>
    <contour>
      <point x="165" y="213" type="line"/>
      <point x="229" y="307"/>
      <point x="381" y="440"/>
      <point x="424" y="362" type="curve" smooth="yes"/>
      <point x="435" y="342"/>
      <point x="429" y="-1"/>
      <point x="429" y="-1" type="curve"/>
      <point x="429" y="-1"/>
      <point x="544" y="-29"/>
      <point x="543" y="-29" type="curve" smooth="yes"/>
      <point x="543" y="-29"/>
      <point x="544" y="270"/>
      <point x="539" y="303" type="curve" smooth="yes"/>
      <point x="533" y="339"/>
      <point x="395" y="485"/>
      <point x="351" y="488" type="curve" smooth="yes"/>
      <point x="249" y="495"/>
      <point x="128" y="336"/>
      <point x="128" y="336" type="curve"/>
    </contour>
  </outline>
</glyph>
<glyph name="l" format="1">
  <advance width="225"/>
  <unicode hex="006C"/>
  <outline>
    <contour>
      <point x="243" y="733" type="move" name="top"/>
    </contour>
    <contour>
      <point x="170" y="710" type="line"/>
      <point x="55" y="710" type="line"/>
      <point x="55" y="-1" type="line"/>
      <point x="170" y="-29" type="line"/>
    </contour>
  </outline>
</glyph>
<glyph name="m" format="1">
  <advance width="906"/>
  <unicode hex="006D"/>
  <outline>
    <contour>
      <point x="180" y="450" type="line"/>
      <point x="65" y="478" type="line"/>
      <point x="65" y="-1" type="line"/>
      <point x="180" y="-29" type="line"/>
      <point x="180" y="273" type="line"/>
      <point x="246" y="355"/>
      <point x="354" y="401"/>
      <point x="394" y="329" type="curve" smooth="yes"/>
      <point x="405" y="309"/>
      <point x="399" y="-1"/>
      <point x="399" y="-1" type="curve"/>
      <point x="399" y="-1"/>
      <point x="514" y="-29"/>
      <point x="513" y="-29" type="curve" smooth="yes"/>
      <point x="513" y="-29"/>
      <point x="514" y="208"/>
      <point x="510" y="283" type="curve"/>
      <point x="577" y="358"/>
      <point x="678" y="398"/>
      <point x="716" y="329" type="curve" smooth="yes"/>
      <point x="727" y="309"/>
      <point x="721" y="-1"/>
      <point x="721" y="-1" type="curve"/>
      <point x="721" y="-1"/>
      <point x="836" y="-29"/>
      <point x="835" y="-29" type="curve" smooth="yes"/>
      <point x="835" y="-29"/>
      <point x="836" y="270"/>
      <point x="831" y="303" type="curve" smooth="yes"/>
      <point x="825" y="339"/>
      <point x="707" y="485"/>
      <point x="663" y="488" type="curve" smooth="yes"/>
      <point x="586" y="493"/>
      <point x="505" y="411"/>
      <point x="469" y="370" type="curve"/>
      <point x="429" y="423"/>
      <point x="369" y="486"/>
      <point x="341" y="488" type="curve" smooth="yes"/>
      <point x="283" y="492"/>
      <point x="222" y="445"/>
      <point x="180" y="404" type="curve"/>
    </contour>
  </outline>
</glyph>
<glyph name="n" format="1">
  <advance width="568"/>
  <unicode hex="006E"/>
  <outline>
    <contour>
      <point x="288" y="507" type="move" name="top"/>
    </contour>
    <contour>
      <point x="157" y="295" type="curve"/>
      <point x="206" y="400"/>
      <point x="360" y="458"/>
      <point x="406" y="382" type="curve"/>
      <point x="416" y="362"/>
      <point x="413" y="-1"/>
      <point x="413" y="-1" type="curve"/>
      <point x="413" y="-1"/>
      <point x="528" y="-29"/>
      <point x="527" y="-29" type="curve" smooth="yes"/>
      <point x="527" y="-29"/>
      <point x="528" y="314"/>
      <point x="523" y="347" type="curve" smooth="yes"/>
      <point x="517" y="383"/>
      <point x="399" y="529"/>
      <point x="355" y="532" type="curve" smooth="yes"/>
      <point x="253" y="539"/>
      <point x="123" y="370"/>
      <point x="123" y="370" type="curve"/>
      <point x="124" y="370"/>
      <point x="147" y="249"/>
    </contour>
    <contour>
      <point x="173" y="522" type="line"/>
      <point x="60" y="522" type="line"/>
      <point x="60" y="-1" type="line"/>
      <point x="175" y="-29" type="line"/>
    </contour>
  </outline>
</glyph>
<glyph name="o" format="1">
  <advance width="575"/>
  <unicode hex="006F"/>
  <outline>
    <contour>
      <point x="335" y="507" type="move" name="top"/>
    </contour>
    <contour>
      <point x="469" y="407" type="curve" smooth="yes"/>
      <point x="603" y="273"/>
      <point x="483" y="-157"/>
      <point x="229" y="8" type="curve" smooth="yes"/>
      <point x="194" y="31"/>
      <point x="171" y="48"/>
      <point x="134" y="80" type="curve" smooth="yes"/>
      <point x="-82" y="263"/>
      <point x="168" y="651"/>
      <point x="371" y="495" type="curve" smooth="yes"/>
      <point x="416" y="460"/>
      <point x="436" y="440"/>
    </contour>
    <contour>
      <point x="385" y="416" type="curve" smooth="yes"/>
      <point x="245" y="524"/>
      <point x="85" y="174"/>
      <point x="208" y="86" type="curve" smooth="yes"/>
      <point x="356" y="-20"/>
      <point x="506" y="322"/>
    </contour>
  </outline>
</glyph>
<glyph name="p" format="1">
  <advance width="578"/>
  <unicode hex="0070"/>
  <outline>
    <contour>
      <point x="354" y="125" type="curve" smooth="yes"/>
      <point x="413" y="202"/>
      <point x="447" y="358"/>
      <point x="371" y="405" type="curve" smooth="yes"/>
      <point x="334" y="428"/>
      <point x="271" y="421"/>
      <point x="167" y="366" type="curve"/>
      <point x="165" y="83" type="line"/>
      <point x="196" y="63"/>
      <point x="293" y="47"/>
    </contour>
    <contour>
      <point x="287" y="-25" type="curve" smooth="yes"/>
      <point x="251" y="-16"/>
      <point x="181" y="21"/>
      <point x="167" y="31" type="curve"/>
      <point x="167" y="-254" type="line"/>
      <point x="52" y="-226" type="line"/>
      <point x="52" y="-226"/>
      <point x="49" y="439"/>
      <point x="52" y="453" type="curve"/>
      <point x="192" y="493"/>
      <point x="291" y="516"/>
      <point x="419" y="432" type="curve" smooth="yes"/>
      <point x="672" y="265"/>
      <point x="439" y="-64"/>
    </contour>
  </outline>
</glyph>
<glyph name="r" format="1">
  <advance width="503"/>
  <unicode hex="0072"/>
  <outline>
    <contour>
      <point x="207" y="507" type="move" name="top"/>
    </contour>
    <contour>
      <point x="180" y="450" type="line"/>
      <point x="65" y="478" type="line"/>
      <point x="65" y="-1" type="line"/>
      <point x="180" y="-29" type="line"/>
      <point x="180" y="171" type="line"/>
      <point x="224" y="278"/>
      <point x="312" y="440"/>
      <point x="420" y="356" type="curve"/>
      <point x="468" y="410" type="line"/>
      <point x="439" y="427"/>
      <point x="361" y="483"/>
      <point x="317" y="486" type="curve" smooth="yes"/>
      <point x="253" y="490"/>
      <point x="206" y="397"/>
      <point x="180" y="328" type="curve"/>
    </contour>
  </outline>
</glyph>
<glyph name="s" format="1">
  <advance width="520"/>
  <unicode hex="0073"/>
  <outline>
    <contour>
      <point x="269" y="7" type="move" name="cedilla"/>
    </contour>
    <contour>
      <point x="360" y="507" type="move" name="top"/>
    </contour>
    <contour>
      <point x="416" y="445" type="line"/>
      <point x="351" y="462"/>
      <point x="266" y="489"/>
      <point x="232" y="489" type="curve" smooth="yes"/>
      <point x="93" y="489"/>
      <point x="11" y="366"/>
      <point x="72" y="275" type="curve" smooth="yes"/>
      <point x="86" y="254"/>
      <point x="125" y="210"/>
      <point x="161" y="183" type="curve" smooth="yes"/>
      <point x="212" y="145"/>
      <point x="416" y="230"/>
      <point x="411" y="210" type="curve" smooth="yes"/>
      <point x="364" y="35"/>
      <point x="169" y="52"/>
      <point x="38" y="151" type="curve"/>
      <point x="20" y="117" type="line"/>
      <point x="103" y="37"/>
      <point x="178" y="-29"/>
      <point x="275" y="-29" type="curve" smooth="yes"/>
      <point x="496" y="-29"/>
      <point x="580" y="210"/>
      <point x="389" y="310" type="curve" smooth="yes"/>
      <point x="353" y="329"/>
      <point x="185" y="260"/>
      <point x="180" y="282" type="curve" smooth="yes"/>
      <point x="170" y="329"/>
      <point x="208" y="400"/>
      <point x="277" y="409" type="curve" smooth="yes"/>
      <point x="299" y="412"/>
      <point x="357" y="402"/>
      <point x="405" y="391" type="curve"/>
    </contour>
  </outline>
</glyph>
<glyph name="t" format="1">
  <advance width="423"/>
  <unicode hex="0074"/>
  <outline>
    <contour>
      <point x="167" y="15" type="move" name="cedilla"/>
    </contour>
    <contour>
      <point x="40" y="408" type="line"/>
      <point x="92" y="408" type="line"/>
      <point x="92" y="122" type="line" smooth="yes"/>
      <point x="92" y="61"/>
      <point x="242" y="-53"/>
      <point x="306" y="-17" type="curve" smooth="yes"/>
      <point x="335" y="-1"/>
      <point x="362" y="20"/>
      <point x="403" y="57" type="curve"/>
      <point x="376" y="88" type="line"/>
      <point x="197" y="-29"/>
      <point x="215" y="151"/>
      <point x="215" y="281" type="curve" smooth="yes"/>
      <point x="215" y="408" type="line"/>
      <point x="367" y="408" type="line"/>
      <point x="337" y="478" type="line"/>
      <point x="215" y="478" type="line"/>
      <point x="215" y="558" type="line"/>
      <point x="92" y="586" type="line"/>
      <point x="92" y="563" type="line"/>
      <point x="86" y="508"/>
      <point x="67" y="486"/>
      <point x="40" y="478" type="curve"/>
      <point x="10" y="478" type="line"/>
    </contour>
  </outline>
</glyph>
<glyph name="u" format="1">
  <advance width="599"/>
  <unicode hex="0075"/>
  <outline>
    <contour>
      <point x="245" y="507" type="move" name="top"/>
    </contour>
    <contour>
      <point x="241" y="7" type="move" name="ogonek"/>
    </contour>
    <contour>
      <point x="419" y="-2" type="line"/>
      <point x="534" y="-30" type="line"/>
      <point x="534" y="449" type="line"/>
      <point x="419" y="477" type="line"/>
      <point x="419" y="214" type="line"/>
      <point x="350" y="124"/>
      <point x="225" y="26"/>
      <point x="185" y="99" type="curve" smooth="yes"/>
      <point x="174" y="119"/>
      <point x="180" y="449"/>
      <point x="180" y="449" type="curve"/>
      <point x="180" y="449"/>
      <point x="65" y="477"/>
      <point x="66" y="477" type="curve" smooth="yes"/>
      <point x="66" y="477"/>
      <point x="65" y="178"/>
      <point x="70" y="145" type="curve" smooth="yes"/>
      <point x="76" y="109"/>
      <point x="217" y="-26"/>
      <point x="261" y="-29" type="curve" smooth="yes"/>
      <point x="318" y="-33"/>
      <point x="378" y="12"/>
      <point x="419" y="52" type="curve"/>
    </contour>
  </outline>
</glyph>
<glyph name="v" format="1">
  <advance width="518"/>
  <unicode hex="0076"/>
  <outline>
    <contour>
      <point x="133" y="450" type="line"/>
      <point x="8" y="478" type="line"/>
      <point x="206" y="-1" type="line"/>
      <point x="207" y="-1" type="line"/>
      <point x="331" y="-29" type="line"/>
      <point x="332" y="-29" type="line"/>
      <point x="518" y="450" type="line"/>
      <point x="393" y="478" type="line"/>
      <point x="261" y="139" type="line"/>
    </contour>
  </outline>
</glyph>
<glyph name="w" format="1">
  <advance width="897"/>
  <unicode hex="0077"/>
  <outline>
    <contour>
      <point x="852" y="450" type="line"/>
      <point x="737" y="478" type="line"/>
      <point x="620" y="135" type="line"/>
      <point x="490" y="450" type="line"/>
      <point x="375" y="478" type="line"/>
      <point x="254" y="128" type="line"/>
      <point x="113" y="450" type="line"/>
      <point x="-2" y="478" type="line"/>
      <point x="208" y="-1" type="line"/>
      <point x="209" y="-1" type="line"/>
      <point x="323" y="-29" type="line"/>
      <point x="323" y="-28" type="line"/>
      <point x="324" y="-29" type="line"/>
      <point x="443" y="314" type="line"/>
      <point x="573" y="-1" type="line"/>
      <point x="574" y="-1" type="line"/>
      <point x="688" y="-29" type="line"/>
      <point x="688" y="-28" type="line"/>
      <point x="689" y="-29" type="line"/>
    </contour>
  </outline>
</glyph>
<glyph name="x" format="1">
  <advance width="501"/>
  <unicode hex="0078"/>
  <outline>
    <contour>
      <point x="498" y="-29" type="line"/>
      <point x="373" y="-1" type="line"/>
      <point x="267" y="143" type="line"/>
      <point x="152" y="-29" type="line"/>
      <point x="27" y="-1" type="line"/>
      <point x="192" y="246" type="line"/>
      <point x="23" y="478" type="line"/>
      <point x="148" y="450" type="line"/>
      <point x="242" y="320" type="line"/>
      <point x="348" y="478" type="line"/>
      <point x="473" y="450" type="line"/>
      <point x="317" y="218" type="line"/>
    </contour>
  </outline>
</glyph>
<glyph name="y" format="1">
  <advance width="548"/>
  <unicode hex="0079"/>
  <outline>
    <contour>
      <point x="340" y="507" type="move" name="top"/>
    </contour>
    <contour>
      <point x="538" y="450" type="line"/>
      <point x="423" y="478" type="line"/>
      <point x="301" y="161" type="line"/>
      <point x="163" y="450" type="line"/>
      <point x="48" y="478" type="line"/>
      <point x="255" y="43" type="line"/>
      <point x="246" y="18" type="line" smooth="yes"/>
      <point x="213" y="-68"/>
      <point x="159" y="-194"/>
      <point x="19" y="-97" type="curve"/>
      <point x="-10" y="-134" type="line"/>
      <point x="39" y="-166"/>
      <point x="91" y="-195"/>
      <point x="120" y="-211" type="curve" smooth="yes"/>
      <point x="184" y="-247"/>
      <point x="318" y="-137"/>
      <point x="347" y="-45" type="curve"/>
      <point x="370" y="14" type="line"/>
      <point x="371" y="14" type="line"/>
      <point x="370" y="15" type="line"/>
    </contour>
  </outline>
</glyph>
<glyph name="z" format="1">
  <advance width="484"/>
  <unicode hex="007A"/>
  <outline>
    <contour>
      <point x="221" y="507" type="move" name="top"/>
    </contour>
    <contour>
      <point x="35" y="405" type="line"/>
      <point x="296" y="405" type="line"/>
      <point x="134" y="197" type="line"/>
      <point x="146" y="192" type="line" smooth="yes"/>
      <point x="182" y="178"/>
      <point x="288" y="136"/>
      <point x="323" y="112" type="curve" smooth="yes"/>
      <point x="400" y="59"/>
      <point x="293" y="-226"/>
      <point x="94" y="-148" type="curve" smooth="yes"/>
      <point x="77" y="-141"/>
      <point x="49" y="-122"/>
      <point x="30" y="-109" type="curve"/>
      <point x="7" y="-133" type="line"/>
      <point x="62" y="-187"/>
      <point x="146" y="-241"/>
      <point x="187" y="-248" type="curve" smooth="yes"/>
      <point x="353" y="-276"/>
      <point x="580" y="36"/>
      <point x="398" y="128" type="curve" smooth="yes"/>
      <point x="383" y="135"/>
      <point x="322" y="164"/>
      <point x="265" y="192" type="curve"/>
      <point x="432" y="404" type="line"/>
      <point x="428" y="405" type="line"/>
      <point x="432" y="405" type="line"/>
      <point x="402" y="478" type="line"/>
      <point x="5" y="478" type="line"/>
    </contour>
  </outline>
</glyph>
<glyph name="asciitilde" format="1">
  <advance width="586"/>
  <unicode hex="007E"/>
  <outline>
    <contour>
      <point x="203" y="443" type="curve" smooth="yes"/>
      <point x="252" y="443"/>
      <point x="318" y="306"/>
      <point x="339" y="306" type="curve" smooth="yes"/>
      <point x="373" y="306"/>
      <point x="484" y="415"/>
      <point x="484" y="415" type="curve"/>
      <point x="558" y="324" type="line"/>
      <point x="558" y="324"/>
      <point x="428" y="209"/>
      <point x="378" y="209" type="curve" smooth="yes"/>
      <point x="336" y="209"/>
      <point x="260" y="333"/>
      <point x="245" y="332" type="curve" smooth="yes"/>
      <point x="214" y="331"/>
      <point x="118" y="234"/>
      <point x="118" y="234" type="curve"/>
      <point x="33" y="324" type="line"/>
      <point x="33" y="324"/>
      <point x="171" y="443"/>
    </contour>
  </outline>
</glyph>
<glyph name="cent" format="1">
  <advance width="545"/>
  <unicode hex="00A2"/>
  <outline>
    <contour>
      <point x="169" y="-149" type="line"/>
      <point x="99" y="-75" type="line"/>
      <point x="152" y="48" type="line"/>
      <point x="132" y="64"/>
      <point x="113" y="82"/>
      <point x="96" y="101" type="curve" smooth="yes"/>
      <point x="-30" y="239"/>
      <point x="96" y="489"/>
      <point x="277" y="489" type="curve" smooth="yes"/>
      <point x="283" y="489"/>
      <point x="305" y="480"/>
      <point x="332" y="465" type="curve"/>
      <point x="398" y="625" type="line"/>
      <point x="464" y="554" type="line"/>
      <point x="410" y="418" type="line"/>
      <point x="435" y="402"/>
      <point x="460" y="383"/>
      <point x="482" y="364" type="curve"/>
      <point x="449" y="317" type="line"/>
      <point x="388" y="362"/>
      <point x="331" y="406"/>
      <point x="307" y="405" type="curve" smooth="yes"/>
      <point x="202" y="401"/>
      <point x="69" y="158"/>
      <point x="221" y="64" type="curve" smooth="yes"/>
      <point x="268" y="35"/>
      <point x="354" y="89"/>
      <point x="409" y="149" type="curve" smooth="yes"/>
      <point x="410" y="150"/>
      <point x="484" y="70"/>
      <point x="484" y="70" type="curve"/>
      <point x="393" y="-10"/>
      <point x="342" y="-47"/>
      <point x="258" y="-15" type="curve" smooth="yes"/>
      <point x="249" y="-11"/>
      <point x="238" y="-7"/>
      <point x="228" y="-1" type="curve"/>
    </contour>
  </outline>
</glyph>
<glyph name="copyright" format="1">
  <advance width="708"/>
  <unicode hex="00A9"/>
  <outline>
    <contour>
      <point x="417" y="510" type="move" name="top"/>
    </contour>
    <contour>
      <point x="316" y="198" type="move" name="cedilla"/>
    </contour>
  </outline>
</glyph>
<glyph name="registered" format="1">
  <advance width="456"/>
  <unicode hex="00AE"/>
  <outline>
    <contour>
      <point x="384" y="624" type="curve"/>
      <point x="348" y="656"/>
      <point x="319" y="674"/>
      <point x="257" y="703" type="curve" smooth="yes"/>
      <point x="96" y="777"/>
      <point x="-64" y="525"/>
      <point x="59" y="423" type="curve" smooth="yes"/>
      <point x="116" y="377"/>
      <point x="128" y="371"/>
      <point x="173" y="351" type="curve"/>
      <point x="351" y="264"/>
      <point x="513" y="517"/>
    </contour>
    <contour>
      <point x="308" y="647" type="curve" smooth="yes"/>
      <point x="443" y="563"/>
      <point x="294" y="310"/>
      <point x="145" y="393" type="curve"/>
      <point x="4" y="474"/>
      <point x="150" y="744"/>
    </contour>
    <contour>
      <point x="187" y="434" type="line"/>
      <point x="139" y="446" type="line"/>
      <point x="139" y="599" type="line"/>
      <point x="174" y="609"/>
      <point x="236" y="616"/>
      <point x="246" y="607" type="curve" smooth="yes"/>
      <point x="257" y="598"/>
      <point x="292" y="573"/>
      <point x="302" y="559" type="curve"/>
      <point x="311" y="549"/>
      <point x="303" y="522"/>
      <point x="276" y="505" type="curve"/>
      <point x="311" y="441" type="line"/>
      <point x="262" y="451" type="line"/>
      <point x="240" y="491" type="line"/>
      <point x="225" y="489"/>
      <point x="207" y="489"/>
      <point x="187" y="493" type="curve"/>
    </contour>
    <contour>
      <point x="257" y="572" type="curve"/>
      <point x="243" y="583"/>
      <point x="212" y="578"/>
      <point x="187" y="572" type="curve"/>
      <point x="187" y="513" type="line"/>
      <point x="256" y="508"/>
      <point x="274" y="556"/>
    </contour>
  </outline>
</glyph>
<glyph name="twosuperior" format="1">
  <advance width="328"/>
  <unicode hex="00B2"/>
  <outline>
    <contour>
      <point x="18" y="450" type="line"/>
      <point x="260" y="450" type="line"/>
      <point x="318" y="388" type="line"/>
      <point x="76" y="388" type="line"/>
    </contour>
    <contour>
      <point x="271" y="619" type="curve" smooth="yes"/>
      <point x="302" y="581"/>
      <point x="242" y="523"/>
      <point x="201" y="489" type="curve" smooth="yes"/>
      <point x="166" y="460"/>
      <point x="80" y="392"/>
      <point x="80" y="392" type="curve"/>
      <point x="18" y="450" type="line"/>
      <point x="18" y="450"/>
      <point x="99" y="509"/>
      <point x="136" y="538" type="curve" smooth="yes"/>
      <point x="203" y="591"/>
      <point x="213" y="624"/>
      <point x="194" y="645" type="curve" smooth="yes"/>
      <point x="170" y="671"/>
      <point x="79" y="595"/>
      <point x="65" y="573" type="curve"/>
      <point x="10" y="635" type="line"/>
      <point x="24" y="651"/>
      <point x="139" y="745"/>
      <point x="173" y="716" type="curve" smooth="yes"/>
      <point x="200" y="693"/>
      <point x="246" y="649"/>
    </contour>
  </outline>
</glyph>
<glyph name="mu.math" format="1">
  <advance width="621"/>
  <unicode hex="00B5"/>
  <outline>
    <contour>
      <point x="89" y="-114" type="line" smooth="yes"/>
      <point x="89" y="-177"/>
      <point x="87" y="-235"/>
      <point x="36" y="-255" type="curve"/>
      <point x="157" y="-265"/>
      <point x="204" y="-222"/>
      <point x="204" y="-141" type="curve" smooth="yes"/>
      <point x="204" y="20" type="line"/>
      <point x="240" y="-9"/>
      <point x="275" y="-32"/>
      <point x="293" y="-33" type="curve" smooth="yes"/>
      <point x="348" y="-37"/>
      <point x="403" y="5"/>
      <point x="441" y="44" type="curve"/>
      <point x="441" y="-6" type="line"/>
      <point x="556" y="-34" type="line"/>
      <point x="556" y="445" type="line"/>
      <point x="441" y="473" type="line"/>
      <point x="441" y="222" type="line"/>
      <point x="391" y="106"/>
      <point x="237" y="15"/>
      <point x="207" y="80" type="curve"/>
      <point x="205" y="82"/>
      <point x="205" y="90"/>
      <point x="204" y="101" type="curve"/>
      <point x="204" y="445" type="line"/>
      <point x="89" y="473" type="line"/>
      <point x="89" y="472" type="line"/>
      <point x="88" y="472"/>
      <point x="88" y="473"/>
      <point x="88" y="473" type="curve"/>
      <point x="88" y="473"/>
      <point x="87" y="316"/>
      <point x="89" y="217" type="curve"/>
    </contour>
  </outline>
</glyph>
<glyph name="guillemotright" format="1">
  <advance width="675"/>
  <unicode hex="00BB"/>
  <outline>
    <contour>
      <point x="67" y="119" type="line"/>
      <point x="114" y="67" type="line"/>
      <point x="369" y="285" type="line"/>
      <point x="152" y="489" type="line"/>
      <point x="60" y="421" type="line"/>
      <point x="242" y="262" type="line"/>
    </contour>
    <contour>
      <point x="363" y="119" type="line"/>
      <point x="410" y="67" type="line"/>
      <point x="665" y="285" type="line"/>
      <point x="448" y="489" type="line"/>
      <point x="356" y="421" type="line"/>
      <point x="538" y="262" type="line"/>
    </contour>
  </outline>
</glyph>
<glyph name="Egrave" format="1">
  <advance width="647"/>
  <unicode hex="00C8"/>
  <outline>
    <contour>
      <point x="342" y="743" type="move" name="top"/>
    </contour>
    <contour>
      <point x="440" y="101" type="move" name="ogonek"/>
    </contour>
    <component base="E"/>
    <component base="grave" xOffset="3" yOffset="161"/>
  </outline>
</glyph>
<glyph name="Edieresis" format="1">
  <advance width="647"/>
  <unicode hex="00CB"/>
  <outline>
    <contour>
      <point x="440" y="101" type="move" name="ogonek"/>
    </contour>
    <contour>
      <point x="342" y="743" type="move" name="top"/>
    </contour>
    <component base="E" xOffset="15"/>
    <component base="dieresis" xOffset="152" yOffset="159"/>
  </outline>
</glyph>
<glyph name="Icircumflex" format="1">
  <advance width="309"/>
  <unicode hex="00CE"/>
  <outline>
    <contour>
      <point x="77" y="8" type="move" name="ogonek"/>
    </contour>
    <contour>
      <point x="234" y="743" type="move" name="top"/>
    </contour>
  </outline>
</glyph>
<glyph name="Oacute" format="1">
  <advance width="823"/>
  <unicode hex="00D3"/>
  <outline>
    <contour>
      <point x="454" y="743" type="move" name="top"/>
    </contour>
    <component base="acute" xOffset="298" yOffset="194"/>
    <component base="O"/>
  </outline>
</glyph>
<glyph name="Ocircumflex" format="1">
  <advance width="823"/>
  <unicode hex="00D4"/>
  <outline>
    <contour>
      <point x="454" y="743" type="move" name="top"/>
    </contour>
    <component base="circumflex" xOffset="268" yOffset="191"/>
    <component base="O" xOffset="10"/>
  </outline>
</glyph>
<glyph name="multiply" format="1">
  <advance width="554"/>
  <unicode hex="00D7"/>
  <outline>
    <contour>
      <point x="443" y="146" type="line"/>
      <point x="479" y="186" type="line"/>
      <point x="326" y="331" type="line"/>
      <point x="482" y="504" type="line"/>
      <point x="399" y="559" type="line"/>
      <point x="253" y="401" type="line"/>
      <point x="102" y="545" type="line"/>
      <point x="62" y="511" type="line"/>
      <point x="217" y="362" type="line"/>
      <point x="69" y="200" type="line"/>
      <point x="155" y="142" type="line"/>
      <point x="290" y="292" type="line"/>
    </contour>
  </outline>
</glyph>
<glyph name="Ugrave" format="1">
  <advance width="578"/>
  <unicode hex="00D9"/>
  <outline>
    <contour>
      <point x="241" y="23" type="move" name="ogonek"/>
    </contour>
    <contour>
      <point x="313" y="743" type="move" name="top"/>
    </contour>
  </outline>
</glyph>
<glyph name="Uacute" format="1">
  <advance width="666"/>
  <unicode hex="00DA"/>
  <outline>
    <contour>
      <point x="313" y="743" type="move" name="top"/>
    </contour>
    <contour>
      <point x="241" y="23" type="move" name="ogonek"/>
    </contour>
    <component base="acute" xOffset="118" yOffset="163"/>
    <component base="U" xOffset="-20"/>
  </outline>
</glyph>
<glyph name="Ucircumflex" format="1">
  <advance width="666"/>
  <unicode hex="00DB"/>
  <outline>
    <contour>
      <point x="313" y="743" type="move" name="top"/>
    </contour>
    <contour>
      <point x="241" y="23" type="move" name="ogonek"/>
    </contour>
    <component base="circumflex" xOffset="148" yOffset="163"/>
    <component base="U" xOffset="-20"/>
  </outline>
</glyph>
<glyph name="Udieresis" format="1">
  <advance width="666"/>
  <unicode hex="00DC"/>
  <outline>
    <contour>
      <point x="313" y="743" type="move" name="top"/>
    </contour>
    <contour>
      <point x="241" y="23" type="move" name="ogonek"/>
    </contour>
    <component base="dieresis" xOffset="146" yOffset="160"/>
    <component base="U" xOffset="-20"/>
  </outline>
</glyph>
<glyph name="Yacute" format="1">
  <advance width="561"/>
  <unicode hex="00DD"/>
  <outline>
    <contour>
      <point x="336" y="743" type="move" name="top"/>
    </contour>
  </outline>
</glyph>
<glyph name="ae" format="1">
  <advance width="920"/>
  <unicode hex="00E6"/>
  <outline>
    <contour>
      <point x="500" y="507" type="move" name="top"/>
    </contour>
    <contour>
      <point x="421" y="17" type="move" name="ogonek"/>
    </contour>
    <contour>
      <point x="66" y="442" type="line"/>
      <point x="150" y="463"/>
      <point x="297" y="493"/>
      <point x="329" y="491" type="curve" smooth="yes"/>
      <point x="349" y="489"/>
      <point x="407" y="437"/>
      <point x="451" y="390" type="curve"/>
      <point x="489" y="448"/>
      <point x="548" y="489"/>
      <point x="616" y="489" type="curve" smooth="yes"/>
      <point x="675" y="489"/>
      <point x="808" y="391"/>
      <point x="865" y="337" type="curve"/>
      <point x="863" y="330"/>
      <point x="541" y="104"/>
      <point x="541" y="104" type="curve"/>
      <point x="548" y="94"/>
      <point x="580" y="63"/>
      <point x="602" y="59" type="curve" smooth="yes"/>
      <point x="661" y="48"/>
      <point x="749" y="100"/>
      <point x="812" y="152" type="curve" smooth="yes"/>
      <point x="813" y="153"/>
      <point x="890" y="70"/>
      <point x="890" y="70" type="curve"/>
      <point x="785" y="-7"/>
      <point x="708" y="-47"/>
      <point x="624" y="-15" type="curve" smooth="yes"/>
      <point x="592" y="-3"/>
      <point x="550" y="22"/>
      <point x="510" y="55" type="curve"/>
      <point x="509" y="21"/>
      <point x="509" y="-8"/>
      <point x="510" y="-29" type="curve"/>
      <point x="396" y="0" type="line"/>
      <point x="397" y="62" type="line"/>
      <point x="364" y="28"/>
      <point x="302" y="-30"/>
      <point x="255" y="-30" type="curve" smooth="yes"/>
      <point x="186" y="-29"/>
      <point x="59" y="144"/>
      <point x="59" y="190" type="curve" smooth="yes"/>
      <point x="60" y="287"/>
      <point x="378" y="322"/>
      <point x="401" y="322" type="curve"/>
      <point x="402" y="348" type="line" smooth="yes"/>
      <point x="404" y="435"/>
      <point x="273" y="397"/>
      <point x="120" y="351" type="curve"/>
    </contour>
    <contour>
      <point x="170" y="100" type="curve" smooth="yes"/>
      <point x="197" y="61"/>
      <point x="264" y="60"/>
      <point x="399" y="165" type="curve"/>
      <point x="400" y="248" type="line"/>
      <point x="346" y="236"/>
      <point x="107" y="191"/>
    </contour>
    <contour>
      <point x="647" y="412" type="curve" smooth="yes"/>
      <point x="584" y="412"/>
      <point x="525" y="319"/>
      <point x="514" y="231" type="curve"/>
      <point x="514" y="199" type="line"/>
      <point x="762" y="358" type="line"/>
      <point x="716" y="390"/>
      <point x="675" y="412"/>
    </contour>
  </outline>
</glyph>
<glyph name="egrave" format="1">
  <advance width="563"/>
  <unicode hex="00E8"/>
  <outline>
    <contour>
      <point x="279" y="43" type="move" name="ogonek"/>
    </contour>
    <contour>
      <point x="263" y="507" type="move" name="top"/>
    </contour>
    <component base="e" xOffset="5"/>
    <component base="grave" xOffset="-30"/>
  </outline>
</glyph>
<glyph name="eacute" format="1">
  <advance width="558"/>
  <unicode hex="00E9"/>
  <outline>
    <contour>
      <point x="279" y="43" type="move" name="ogonek"/>
    </contour>
    <contour>
      <point x="263" y="507" type="move" name="top"/>
    </contour>
    <component base="e"/>
    <component base="acute" xOffset="76"/>
  </outline>
</glyph>
<glyph name="ecircumflex" format="1">
  <advance width="558"/>
  <unicode hex="00EA"/>
  <outline>
    <contour>
      <point x="279" y="43" type="move" name="ogonek"/>
    </contour>
    <contour>
      <point x="263" y="507" type="move" name="top"/>
    </contour>
    <component base="e"/>
    <component base="circumflex" xOffset="112"/>
  </outline>
</glyph>
<glyph name="igrave" format="1">
  <advance width="260"/>
  <unicode hex="00EC"/>
  <outline>
    <contour>
      <point x="53" y="7" type="move" name="ogonek"/>
    </contour>
    <contour>
      <point x="183" y="507" type="move" name="top"/>
    </contour>
  </outline>
</glyph>
<glyph name="idieresis" format="1">
  <advance width="241"/>
  <unicode hex="00EF"/>
  <outline>
    <contour>
      <point x="53" y="7" type="move" name="ogonek"/>
    </contour>
    <contour>
      <point x="183" y="507" type="move" name="top"/>
    </contour>
    <component base="dotlessi"/>
    <component base="dieresis" xOffset="-53"/>
  </outline>
</glyph>
<glyph name="ugrave" format="1">
  <advance width="592"/>
  <unicode hex="00F9"/>
  <outline>
    <contour>
      <point x="287" y="507" type="move" name="top"/>
    </contour>
    <contour>
      <point x="283" y="7" type="move" name="ogonek"/>
    </contour>
    <component base="u" xOffset="15"/>
    <component base="grave" xOffset="-2"/>
  </outline>
</glyph>
<glyph name="uacute" format="1">
  <advance width="592"/>
  <unicode hex="00FA"/>
  <outline>
    <contour>
      <point x="283" y="7" type="move" name="ogonek"/>
    </contour>
    <contour>
      <point x="287" y="507" type="move" name="top"/>
    </contour>
    <component base="u" xOffset="15"/>
    <component base="acute" xOffset="65"/>
  </outline>
</glyph>
<glyph name="thorn" format="1">
  <advance width="526"/>
  <unicode hex="00FE"/>
  <outline>
    <contour>
      <point x="178" y="-255" type="line"/>
      <point x="63" y="-227" type="line"/>
      <point x="63" y="690" type="line"/>
      <point x="178" y="662" type="line"/>
      <point x="178" y="432" type="line"/>
      <point x="248" y="462"/>
      <point x="325" y="466"/>
      <point x="406" y="413" type="curve" smooth="yes"/>
      <point x="659" y="246"/>
      <point x="426" y="-63"/>
      <point x="274" y="-24" type="curve" smooth="yes"/>
      <point x="249" y="-18"/>
      <point x="205" y="4"/>
      <point x="178" y="18" type="curve"/>
    </contour>
    <contour>
      <point x="370" y="143" type="curve"/>
      <point x="400" y="183"/>
      <point x="439" y="349"/>
      <point x="358" y="386" type="curve" smooth="yes"/>
      <point x="305" y="410"/>
      <point x="220" y="380"/>
      <point x="178" y="294" type="curve"/>
      <point x="178" y="71" type="line"/>
      <point x="221" y="55"/>
      <point x="298" y="51"/>
    </contour>
  </outline>
</glyph>
<glyph name="amacron" format="1">
  <advance width="580"/>
  <unicode hex="0101"/>
  <outline>
    <contour>
      <point x="344" y="7" type="move" name="ogonek"/>
    </contour>
    <contour>
      <point x="374" y="507" type="move" name="top"/>
    </contour>
    <component base="a" xOffset="14"/>
    <component base="macron" xOffset="102"/>
  </outline>
</glyph>
<glyph name="aogonek" format="1">
  <advance width="580"/>
  <unicode hex="0105"/>
  <outline>
    <contour>
      <point x="344" y="7" type="move" name="ogonek"/>
    </contour>
    <contour>
      <point x="374" y="507" type="move" name="top"/>
    </contour>
    <contour>
      <point x="510" y="-29" type="line"/>
      <point x="430" y="-101"/>
      <point x="374" y="-153"/>
      <point x="423" y="-172" type="curve" smooth="yes"/>
      <point x="446" y="-181"/>
      <point x="478" y="-170"/>
      <point x="535" y="-126" type="curve" smooth="yes"/>
      <point x="536" y="-125"/>
      <point x="603" y="-195"/>
      <point x="603" y="-195" type="curve"/>
      <point x="523" y="-246"/>
      <point x="500" y="-258"/>
      <point x="455" y="-245" type="curve" smooth="yes"/>
      <point x="425" y="-236"/>
      <point x="364" y="-196"/>
      <point x="335" y="-161" type="curve" smooth="yes"/>
      <point x="304" y="-123"/>
      <point x="270" y="-115"/>
      <point x="397" y="0" type="curve"/>
    </contour>
    <component base="a" xOffset="14"/>
  </outline>
</glyph>
<glyph name="Dcaron" format="1">
  <advance width="666"/>
  <unicode hex="010E"/>
  <outline>
    <contour>
      <point x="429" y="683" type="move" name="top"/>
    </contour>
  </outline>
</glyph>
<glyph name="Dcroat" format="1">
  <advance width="666"/>
  <unicode hex="0110"/>
  <outline>
    <contour>
      <point x="429" y="683" type="move" name="top"/>
    </contour>
  </outline>
</glyph>
<glyph name="dcroat" format="1">
  <advance width="646"/>
  <unicode hex="0111"/>
  <outline>
    <contour>
      <point x="315" y="622" type="line"/>
      <point x="601" y="622" type="line"/>
      <point x="632" y="541" type="line"/>
      <point x="346" y="541" type="line"/>
    </contour>
    <component base="d" xOffset="8"/>
  </outline>
</glyph>
<glyph name="eogonek" format="1">
  <advance width="558"/>
  <unicode hex="0119"/>
  <outline>
    <contour>
      <point x="263" y="507" type="move" name="top"/>
    </contour>
    <contour>
      <point x="279" y="43" type="move" name="ogonek"/>
    </contour>
    <contour>
      <point x="458" y="22" type="line"/>
      <point x="378" y="-50"/>
      <point x="318" y="-153"/>
      <point x="367" y="-172" type="curve" smooth="yes"/>
      <point x="390" y="-181"/>
      <point x="422" y="-170"/>
      <point x="479" y="-126" type="curve" smooth="yes"/>
      <point x="480" y="-125"/>
      <point x="547" y="-195"/>
      <point x="547" y="-195" type="curve"/>
      <point x="467" y="-246"/>
      <point x="444" y="-258"/>
      <point x="399" y="-245" type="curve" smooth="yes"/>
      <point x="369" y="-236"/>
      <point x="308" y="-196"/>
      <point x="279" y="-161" type="curve" smooth="yes"/>
      <point x="248" y="-123"/>
      <point x="240" y="-66"/>
      <point x="367" y="49" type="curve"/>
    </contour>
    <component base="e"/>
  </outline>
</glyph>
<glyph name="Ecaron" format="1">
  <advance width="551"/>
  <unicode hex="011A"/>
  <outline>
    <contour>
      <point x="342" y="743" type="move" name="top"/>
    </contour>
    <contour>
      <point x="440" y="101" type="move" name="ogonek"/>
    </contour>
  </outline>
</glyph>
<glyph name="ecaron" format="1">
  <advance width="558"/>
  <unicode hex="011B"/>
  <outline>
    <contour>
      <point x="263" y="507" type="move" name="top"/>
    </contour>
    <contour>
      <point x="279" y="43" type="move" name="ogonek"/>
    </contour>
    <component base="caron" xOffset="115"/>
    <component base="e"/>
  </outline>
</glyph>
<glyph name="Imacron" format="1">
  <advance width="300"/>
  <unicode hex="012A"/>
  <outline>
    <contour>
      <point x="234" y="743" type="move" name="top"/>
    </contour>
    <contour>
      <point x="77" y="8" type="move" name="ogonek"/>
    </contour>
    <component base="I"/>
    <component base="macron" xOffset="-47" yOffset="168"/>
  </outline>
</glyph>
<glyph name="Iogonek" format="1">
  <advance width="300"/>
  <unicode hex="012E"/>
  <outline>
    <contour>
      <point x="77" y="8" type="move" name="ogonek"/>
    </contour>
    <contour>
      <point x="234" y="743" type="move" name="top"/>
    </contour>
    <contour>
      <point x="131" y="45" type="line"/>
      <point x="4" y="-70"/>
      <point x="17" y="-123"/>
      <point x="48" y="-161" type="curve" smooth="yes"/>
      <point x="77" y="-196"/>
      <point x="138" y="-236"/>
      <point x="168" y="-245" type="curve" smooth="yes"/>
      <point x="213" y="-258"/>
      <point x="236" y="-246"/>
      <point x="316" y="-195" type="curve"/>
      <point x="316" y="-195"/>
      <point x="249" y="-125"/>
      <point x="248" y="-126" type="curve" smooth="yes"/>
      <point x="191" y="-170"/>
      <point x="159" y="-181"/>
      <point x="136" y="-172" type="curve" smooth="yes"/>
      <point x="87" y="-153"/>
      <point x="119" y="-56"/>
      <point x="217" y="-29" type="curve"/>
    </contour>
    <component base="I" xOffset="15"/>
  </outline>
</glyph>
<glyph name="iogonek" format="1">
  <advance width="276"/>
  <unicode hex="012F"/>
  <outline>
    <contour>
      <point x="183" y="507" type="move" name="top"/>
    </contour>
    <contour>
      <point x="53" y="7" type="move" name="ogonek"/>
    </contour>
    <contour>
      <point x="197" y="-29" type="line"/>
      <point x="119" y="-88"/>
      <point x="67" y="-153"/>
      <point x="116" y="-172" type="curve" smooth="yes"/>
      <point x="139" y="-181"/>
      <point x="171" y="-170"/>
      <point x="228" y="-126" type="curve" smooth="yes"/>
      <point x="229" y="-125"/>
      <point x="296" y="-195"/>
      <point x="296" y="-195" type="curve"/>
      <point x="216" y="-246"/>
      <point x="193" y="-258"/>
      <point x="148" y="-245" type="curve" smooth="yes"/>
      <point x="118" y="-236"/>
      <point x="57" y="-196"/>
      <point x="28" y="-161" type="curve" smooth="yes"/>
      <point x="-3" y="-123"/>
      <point x="-5" y="-83"/>
      <point x="83" y="2" type="curve"/>
    </contour>
    <component base="i"/>
  </outline>
</glyph>
<glyph name="Idotaccent" format="1">
  <advance width="300"/>
  <unicode hex="0130"/>
  <outline>
    <contour>
      <point x="234" y="743" type="move" name="top"/>
    </contour>
    <contour>
      <point x="77" y="8" type="move" name="ogonek"/>
    </contour>
    <component base="I" xOffset="15"/>
    <component base="dotaccent" xOffset="66" yOffset="143"/>
  </outline>
</glyph>
<glyph name="dotlessi" format="1">
  <advance width="241"/>
  <unicode hex="0131"/>
  <outline>
    <contour>
      <point x="34" y="7" type="move" name="ogonek"/>
    </contour>
    <contour>
      <point x="164" y="507" type="move" name="top"/>
    </contour>
    <contour>
      <point x="178" y="-29" type="line"/>
      <point x="63" y="-1" type="line"/>
      <point x="63" y="478" type="line"/>
      <point x="178" y="450" type="line"/>
    </contour>
  </outline>
</glyph>
<glyph name="lslash" format="1">
  <advance width="350"/>
  <unicode hex="0142"/>
  <outline>
    <contour>
      <point x="249" y="733" type="move" name="top"/>
    </contour>
    <contour>
      <point x="34" y="307" type="line"/>
      <point x="19" y="364" type="line"/>
      <point x="296" y="474" type="line"/>
      <point x="332" y="397" type="line"/>
    </contour>
    <component base="l" xOffset="40"/>
  </outline>
</glyph>
<glyph name="Nacute" format="1">
  <advance width="631"/>
  <unicode hex="0143"/>
  <outline>
    <contour>
      <point x="381" y="743" type="move" name="top"/>
    </contour>
  </outline>
</glyph>
<glyph name="nacute" format="1">
  <advance width="610"/>
  <unicode hex="0144"/>
  <outline>
    <contour>
      <point x="287" y="507" type="move" name="top"/>
    </contour>
    <component base="acute" xOffset="84"/>
    <component base="n" xOffset="62"/>
  </outline>
</glyph>
<glyph name="Ncaron" format="1">
  <advance width="762"/>
  <unicode hex="0147"/>
  <outline>
    <contour>
      <point x="381" y="743" type="move" name="top"/>
    </contour>
    <component base="caron" xOffset="197" yOffset="187"/>
    <component base="N" xOffset="15"/>
  </outline>
</glyph>
<glyph name="Omacron" format="1">
  <advance width="619"/>
  <unicode hex="014C"/>
  <outline>
    <contour>
      <point x="454" y="743" type="move" name="top"/>
    </contour>
  </outline>
</glyph>
<glyph name="omacron" format="1">
  <advance width="452"/>
  <unicode hex="014D"/>
  <outline>
    <contour>
      <point x="287" y="507" type="move" name="top"/>
    </contour>
  </outline>
</glyph>
<glyph name="Ohungarumlaut" format="1">
  <advance width="823"/>
  <unicode hex="0150"/>
  <outline>
    <contour>
      <point x="454" y="743" type="move" name="top"/>
    </contour>
    <component base="O" xOffset="10"/>
    <component base="hungarumlaut" xOffset="272" yOffset="211"/>
  </outline>
</glyph>
<glyph name="OE" format="1">
  <advance width="1190"/>
  <unicode hex="0152"/>
  <outline>
    <contour>
      <point x="593" y="667" type="line"/>
      <point x="1020" y="667" type="line"/>
      <point x="1100" y="577" type="line"/>
      <point x="721" y="577" type="line"/>
      <point x="721" y="385" type="line"/>
      <point x="980" y="385" type="line"/>
      <point x="1060" y="295" type="line"/>
      <point x="722" y="295" type="line"/>
      <point x="722" y="90" type="line"/>
      <point x="1060" y="90" type="line"/>
      <point x="1140" y="0" type="line"/>
      <point x="723" y="0" type="line"/>
      <point x="593" y="29" type="line"/>
      <point x="593" y="49" type="line"/>
      <point x="522" y="-16"/>
      <point x="428" y="-41"/>
      <point x="332" y="17" type="curve" smooth="yes"/>
      <point x="266" y="57"/>
      <point x="225" y="75"/>
      <point x="141" y="163" type="curve"/>
      <point x="-45" y="354"/>
      <point x="205" y="825"/>
      <point x="445" y="686" type="curve"/>
      <point x="507" y="649"/>
      <point x="553" y="617"/>
      <point x="593" y="582" type="curve"/>
    </contour>
    <contour>
      <point x="507" y="576" type="curve" smooth="yes"/>
      <point x="287" y="724"/>
      <point x="96" y="246"/>
      <point x="290" y="114" type="curve" smooth="yes"/>
      <point x="500" y="-29"/>
      <point x="717" y="435"/>
    </contour>
  </outline>
</glyph>
<glyph name="Rcommaaccent" format="1">
  <advance width="575"/>
  <unicode hex="0156"/>
  <outline>
    <contour>
      <point x="354" y="743" type="move" name="top"/>
    </contour>
  </outline>
</glyph>
<glyph name="sacute" format="1">
  <advance width="467"/>
  <unicode hex="015B"/>
  <outline>
    <contour>
      <point x="170" y="7" type="move" name="cedilla"/>
    </contour>
    <contour>
      <point x="261" y="507" type="move" name="top"/>
    </contour>
  </outline>
</glyph>
<glyph name="scedilla" format="1">
  <advance width="555"/>
  <unicode hex="015F"/>
  <outline>
    <contour>
      <point x="170" y="7" type="move" name="cedilla"/>
    </contour>
    <contour>
      <point x="261" y="507" type="move" name="top"/>
    </contour>
    <component base="s"/>
    <component base="cedilla" xOffset="70"/>
  </outline>
</glyph>
<glyph name="Uhungarumlaut" format="1">
  <advance width="578"/>
  <unicode hex="0170"/>
  <outline>
    <contour>
      <point x="241" y="23" type="move" name="ogonek"/>
    </contour>
    <contour>
      <point x="313" y="743" type="move" name="top"/>
    </contour>
  </outline>
</glyph>
<glyph name="Uogonek" format="1">
  <advance width="543"/>
  <unicode hex="0172"/>
  <outline>
    <contour>
      <point x="241" y="23" type="move" name="ogonek"/>
    </contour>
    <contour>
      <point x="313" y="743" type="move" name="top"/>
    </contour>
  </outline>
</glyph>
<glyph name="Zacute" format="1">
  <advance width="835"/>
  <unicode hex="0179"/>
  <outline>
    <contour>
      <point x="378" y="743" type="move" name="top"/>
    </contour>
    <component base="Z"/>
    <component base="acute" xOffset="225" yOffset="160"/>
  </outline>
</glyph>
<glyph name="zdotaccent" format="1">
  <advance width="459"/>
  <unicode hex="017C"/>
  <outline>
    <contour>
      <point x="257" y="507" type="move" name="top"/>
    </contour>
  </outline>
</glyph>
<glyph name="florin" format="1">
  <advance width="525"/>
  <unicode hex="0192"/>
  <outline>
    <contour>
      <point x="81" y="308" type="line"/>
      <point x="137" y="308" type="line"/>
      <point x="146" y="405"/>
      <point x="154" y="493"/>
      <point x="164" y="548" type="curve" smooth="yes"/>
      <point x="193" y="715"/>
      <point x="278" y="741"/>
      <point x="341" y="704" type="curve" smooth="yes"/>
      <point x="371" y="687"/>
      <point x="474" y="564"/>
      <point x="474" y="547" type="curve" smooth="yes"/>
      <point x="474" y="524"/>
      <point x="436" y="374"/>
      <point x="361" y="308" type="curve"/>
      <point x="408" y="308" type="line"/>
      <point x="438" y="238" type="line"/>
      <point x="233" y="238" type="line"/>
      <point x="224" y="115"/>
      <point x="214" y="-21"/>
      <point x="203" y="-94" type="curve" smooth="yes"/>
      <point x="192" y="-171"/>
      <point x="94" y="-198"/>
      <point x="-16" y="-146" type="curve"/>
      <point x="78" y="-146"/>
      <point x="98" y="-100"/>
      <point x="102" y="-69" type="curve" smooth="yes"/>
      <point x="112" y="17"/>
      <point x="122" y="130"/>
      <point x="131" y="238" type="curve"/>
      <point x="111" y="238" type="line"/>
    </contour>
    <contour>
      <point x="367" y="625" type="curve" smooth="yes"/>
      <point x="332" y="675"/>
      <point x="259" y="584"/>
      <point x="247" y="441" type="curve" smooth="yes"/>
      <point x="244" y="409"/>
      <point x="241" y="363"/>
      <point x="238" y="310" type="curve"/>
      <point x="345" y="351"/>
      <point x="423" y="544"/>
    </contour>
  </outline>
</glyph>
<glyph name="breve" format="1">
  <advance width="353"/>
  <unicode hex="02D8"/>
  <outline>
    <contour>
      <point x="17" y="679" type="line"/>
      <point x="17" y="679"/>
      <point x="120" y="546"/>
      <point x="167" y="545" type="curve" smooth="yes"/>
      <point x="242" y="544"/>
      <point x="356" y="657"/>
      <point x="356" y="657" type="curve"/>
      <point x="286" y="719" type="line"/>
      <point x="286" y="719"/>
      <point x="192" y="615"/>
      <point x="146" y="617" type="curve" smooth="yes"/>
      <point x="108" y="619"/>
      <point x="44" y="710"/>
      <point x="44" y="710" type="curve"/>
    </contour>
  </outline>
</glyph>
<glyph name="endash" format="1">
  <advance width="564"/>
  <unicode hex="2013"/>
  <outline>
    <contour>
      <point x="61" y="277" type="line"/>
      <point x="534" y="277" type="line"/>
      <point x="503" y="358" type="line"/>
      <point x="30" y="358" type="line"/>
    </contour>
  </outline>
</glyph>
<glyph name="emdash" format="1">
  <advance width="905"/>
  <unicode hex="2014"/>
  <outline>
    <contour>
      <point x="30" y="358" type="line"/>
      <point x="844" y="358" type="line"/>
      <point x="875" y="277" type="line"/>
      <point x="61" y="277" type="line"/>
    </contour>
  </outline>
</glyph>
<glyph name="quoteleft" format="1">
  <advance width="256"/>
  <unicode hex="2018"/>
  <outline>
    <contour>
      <point x="92" y="809" type="line"/>
      <point x="63" y="776"/>
      <point x="14" y="674"/>
      <point x="6" y="623" type="curve"/>
      <point x="4" y="595"/>
      <point x="49" y="556"/>
      <point x="81" y="541" type="curve"/>
      <point x="102" y="546"/>
      <point x="153" y="588"/>
      <point x="156" y="611" type="curve"/>
      <point x="146" y="631"/>
      <point x="127" y="652"/>
      <point x="111" y="666" type="curve"/>
      <point x="109" y="687"/>
      <point x="121" y="744"/>
      <point x="133" y="782" type="curve"/>
    </contour>
  </outline>
</glyph>
<glyph name="ellipsis" format="1">
  <advance width="795"/>
  <unicode hex="2026"/>
  <outline>
    <contour>
      <point x="676" y="-22" type="curve"/>
      <point x="717" y="-1"/>
      <point x="741" y="27"/>
      <point x="750" y="50" type="curve"/>
      <point x="741" y="68"/>
      <point x="720" y="101"/>
      <point x="675" y="121" type="curve"/>
      <point x="654" y="116"/>
      <point x="603" y="74"/>
      <point x="600" y="51" type="curve"/>
      <point x="617" y="17"/>
      <point x="648" y="-9"/>
    </contour>
    <contour>
      <point x="411" y="-22" type="curve"/>
      <point x="452" y="-1"/>
      <point x="476" y="27"/>
      <point x="485" y="50" type="curve"/>
      <point x="476" y="68"/>
      <point x="455" y="101"/>
      <point x="410" y="121" type="curve"/>
      <point x="389" y="116"/>
      <point x="338" y="74"/>
      <point x="335" y="51" type="curve"/>
      <point x="352" y="17"/>
      <point x="383" y="-9"/>
    </contour>
    <contour>
      <point x="142" y="-22" type="curve"/>
      <point x="183" y="-1"/>
      <point x="207" y="27"/>
      <point x="216" y="50" type="curve"/>
      <point x="207" y="68"/>
      <point x="186" y="101"/>
      <point x="141" y="121" type="curve"/>
      <point x="120" y="116"/>
      <point x="69" y="74"/>
      <point x="66" y="51" type="curve"/>
      <point x="83" y="17"/>
      <point x="114" y="-9"/>
    </contour>
  </outline>
</glyph>
<glyph name="litre" format="1">
  <advance width="531"/>
  <unicode hex="2113"/>
  <outline>
    <contour>
      <point x="202" y="542" type="curve" smooth="yes"/>
      <point x="188" y="465"/>
      <point x="177" y="383"/>
      <point x="166" y="290" type="curve"/>
      <point x="121" y="259"/>
      <point x="70" y="234"/>
      <point x="13" y="218" type="curve"/>
      <point x="54" y="186" type="line"/>
      <point x="91" y="190"/>
      <point x="125" y="199"/>
      <point x="156" y="210" type="curve"/>
      <point x="143" y="89" type="line" smooth="yes"/>
      <point x="132" y="-8"/>
      <point x="241" y="-104"/>
      <point x="397" y="54" type="curve"/>
      <point x="389" y="50"/>
      <point x="378" y="95"/>
      <point x="372" y="89" type="curve" smooth="yes"/>
      <point x="302" y="17"/>
      <point x="231" y="41"/>
      <point x="241" y="110" type="curve" smooth="yes"/>
      <point x="249" y="166"/>
      <point x="257" y="216"/>
      <point x="265" y="265" type="curve"/>
      <point x="423" y="371"/>
      <point x="487" y="546"/>
      <point x="487" y="570" type="curve" smooth="yes"/>
      <point x="487" y="587"/>
      <point x="409" y="681"/>
      <point x="379" y="698" type="curve" smooth="yes"/>
      <point x="316" y="735"/>
      <point x="231" y="709"/>
    </contour>
    <contour>
      <point x="285" y="435" type="line" smooth="yes"/>
      <point x="297" y="578"/>
      <point x="353" y="655"/>
      <point x="385" y="625" type="curve" smooth="yes"/>
      <point x="403" y="608"/>
      <point x="368" y="499"/>
      <point x="282" y="396" type="curve"/>
    </contour>
  </outline>
</glyph>
<glyph name="Omega.math" format="1">
  <advance width="910"/>
  <unicode hex="2126"/>
  <outline>
    <contour>
      <point x="30" y="90" type="line"/>
      <point x="157" y="90" type="line"/>
      <point x="156" y="91"/>
      <point x="154" y="92"/>
      <point x="153" y="94" type="curve"/>
      <point x="-50" y="288"/>
      <point x="223" y="767"/>
      <point x="486" y="625" type="curve" smooth="yes"/>
      <point x="586" y="571"/>
      <point x="648" y="524"/>
      <point x="709" y="465" type="curve" smooth="yes"/>
      <point x="807" y="369"/>
      <point x="800" y="213"/>
      <point x="736" y="90" type="curve"/>
      <point x="800" y="90" type="line"/>
      <point x="880" y="0" type="line"/>
      <point x="642" y="0" type="line"/>
      <point x="566" y="87" type="line"/>
      <point x="564" y="89" type="line"/>
      <point x="564" y="90" type="line"/>
      <point x="565" y="90" type="line"/>
      <point x="664" y="206"/>
      <point x="691" y="423"/>
      <point x="553" y="514" type="curve" smooth="yes"/>
      <point x="317" y="669"/>
      <point x="126" y="271"/>
      <point x="266" y="90" type="curve"/>
      <point x="346" y="0" type="line"/>
      <point x="108" y="0" type="line"/>
    </contour>
  </outline>
</glyph>
<glyph name="partialdiff" format="1">
  <advance width="634"/>
  <unicode hex="2202"/>
  <outline>
    <contour>
      <point x="166" y="636" type="line"/>
      <point x="174" y="637"/>
      <point x="286" y="726"/>
      <point x="328" y="711" type="curve" smooth="yes"/>
      <point x="386" y="691"/>
      <point x="566" y="594"/>
      <point x="572" y="572" type="curve" smooth="yes"/>
      <point x="621" y="402"/>
      <point x="605" y="-21"/>
      <point x="350" y="-28" type="curve" smooth="yes"/>
      <point x="244" y="-31"/>
      <point x="113" y="98"/>
      <point x="76" y="170" type="curve" smooth="yes"/>
      <point x="31" y="255"/>
      <point x="226" y="472"/>
      <point x="294" y="449" type="curve" smooth="yes"/>
      <point x="342" y="433"/>
      <point x="427" y="377"/>
      <point x="489" y="338" type="curve"/>
      <point x="476" y="291" type="line"/>
      <point x="218" y="470"/>
      <point x="129" y="130"/>
      <point x="244" y="73" type="curve" smooth="yes"/>
      <point x="436" y="-21"/>
      <point x="497" y="382"/>
      <point x="466" y="513" type="curve" smooth="yes"/>
      <point x="447" y="593"/>
      <point x="412" y="617"/>
      <point x="376" y="618" type="curve" smooth="yes"/>
      <point x="325" y="619"/>
      <point x="273" y="571"/>
      <point x="269" y="570" type="curve"/>
    </contour>
  </outline>
</glyph>
<glyph name="product" format="1">
  <advance width="706"/>
  <unicode hex="220F"/>
  <outline>
    <contour>
      <point x="642" y="-28" type="line"/>
      <point x="512" y="1" type="line"/>
      <point x="512" y="577" type="line"/>
      <point x="213" y="577" type="line"/>
      <point x="215" y="-28" type="line"/>
      <point x="85" y="1" type="line"/>
      <point x="85" y="667" type="line"/>
      <point x="512" y="667" type="line"/>
      <point x="640" y="626" type="line"/>
    </contour>
  </outline>
</glyph>
<glyph name="fi" format="1">
  <advance width="631"/>
  <unicode hex="FB01"/>
  <outline>
    <contour>
      <point x="538" y="529" type="curve"/>
      <point x="579" y="550"/>
      <point x="603" y="578"/>
      <point x="612" y="601" type="curve"/>
      <point x="603" y="619"/>
      <point x="582" y="652"/>
      <point x="537" y="672" type="curve"/>
      <point x="522" y="668"/>
      <point x="491" y="646"/>
      <point x="474" y="625" type="curve"/>
      <point x="434" y="658"/>
      <point x="380" y="689"/>
      <point x="354" y="704" type="curve" smooth="yes"/>
      <point x="290" y="740"/>
      <point x="140" y="626"/>
      <point x="140" y="565" type="curve" smooth="yes"/>
      <point x="140" y="478" type="line"/>
      <point x="36" y="478" type="line"/>
      <point x="66" y="408" type="line"/>
      <point x="140" y="408" type="line"/>
      <point x="140" y="287"/>
      <point x="140" y="176"/>
      <point x="141" y="-1" type="curve"/>
      <point x="256" y="-29" type="line"/>
      <point x="251" y="408" type="line"/>
      <point x="481" y="408" type="line"/>
      <point x="481" y="-1" type="line"/>
      <point x="596" y="-29" type="line"/>
      <point x="596" y="450" type="line"/>
      <point x="483" y="477" type="line"/>
      <point x="483" y="478" type="line"/>
      <point x="251" y="478" type="line"/>
      <point x="253" y="570"/>
      <point x="280" y="695"/>
      <point x="462" y="604" type="curve"/>
      <point x="462" y="602" type="line"/>
      <point x="479" y="568"/>
      <point x="510" y="542"/>
    </contour>
  </outline>
</glyph>
<glyph name="dvAA" format="1">
  <advance width="1049"/>
  <outline>
    <contour>
      <point x="943" y="619" type="move" name="abvm.bindu"/>
    </contour>
    <component base="dvAA.init"/>
  </outline>
</glyph>
<glyph name="dvAA.init" format="1">
  <advance width="1049"/>
  <outline>
    <contour>
      <point x="626" y="4" type="line"/>
      <point x="750" y="-52" type="line"/>
      <point x="750" y="541" type="line"/>
      <point x="626" y="541" type="line"/>
    </contour>
    <contour>
      <point x="854" y="4" type="line"/>
      <point x="978" y="-52" type="line"/>
      <point x="978" y="541" type="line"/>
      <point x="854" y="541" type="line"/>
    </contour>
    <contour>
      <point x="390" y="290" type="line"/>
      <point x="467" y="225"/>
      <point x="486" y="148"/>
      <point x="408" y="107" type="curve" smooth="yes"/>
      <point x="254" y="25"/>
      <point x="115" y="232"/>
      <point x="56" y="309" type="curve"/>
      <point x="31" y="291" type="line"/>
      <point x="117" y="164"/>
      <point x="210" y="41"/>
      <point x="281" y="-2" type="curve" smooth="yes"/>
      <point x="382" y="-62"/>
      <point x="601" y="63"/>
      <point x="564" y="166" type="curve" smooth="yes"/>
      <point x="536" y="246"/>
      <point x="471" y="281"/>
      <point x="422" y="314" type="curve"/>
    </contour>
    <contour>
      <point x="488" y="490" type="curve" smooth="yes"/>
      <point x="431" y="547"/>
      <point x="411" y="562"/>
      <point x="354" y="610" type="curve" smooth="yes"/>
      <point x="283" y="669"/>
      <point x="157" y="570"/>
      <point x="121" y="546" type="curve"/>
      <point x="182" y="459" type="line"/>
      <point x="227" y="490"/>
      <point x="380" y="590"/>
      <point x="425" y="477" type="curve" smooth="yes"/>
      <point x="449" y="417"/>
      <point x="363" y="365"/>
      <point x="229" y="350" type="curve"/>
      <point x="283" y="257" type="line"/>
      <point x="453" y="265"/>
      <point x="566" y="411"/>
    </contour>
    <contour>
      <point x="435" y="312" type="line"/>
      <point x="502" y="278"/>
      <point x="585" y="221"/>
      <point x="695" y="312" type="curve"/>
      <point x="694" y="313"/>
      <point x="644" y="399"/>
      <point x="643" y="398" type="curve" smooth="yes"/>
      <point x="601" y="349"/>
      <point x="544" y="303"/>
      <point x="443" y="323" type="curve"/>
    </contour>
    <contour>
      <point x="533" y="522" type="line"/>
      <point x="1053" y="522" type="line"/>
      <point x="1053" y="619" type="line"/>
      <point x="495" y="619" type="line"/>
    </contour>
  </outline>
</glyph>
<glyph name="dvA" format="1">
  <advance width="790"/>
  <outline>
    <contour>
      <point x="702" y="662" type="move" name="abvm.bindu"/>
    </contour>
    <contour>
      <point x="645" y="-10" type="move" name="blwm.virama"/>
    </contour>
    <contour>
      <point x="702" y="672" type="move" name="abvm.e"/>
    </contour>
    <contour>
      <point x="645" y="0" type="move" name="blwm.u"/>
    </contour>
  </outline>
</glyph>
<glyph name="dvAA.init" format="1">
  <advance width="1056"/>
  <outline>
    <contour>
      <point x="533" y="523" type="line"/>
      <point x="626" y="523" type="line"/>
      <point x="626" y="379" type="line"/>
      <point x="587" y="340"/>
      <point x="535" y="308"/>
      <point x="453" y="321" type="curve"/>
      <point x="513" y="372"/>
      <point x="534" y="443"/>
      <point x="488" y="490" type="curve" smooth="yes"/>
      <point x="431" y="547"/>
      <point x="411" y="562"/>
      <point x="354" y="610" type="curve" smooth="yes"/>
      <point x="283" y="669"/>
      <point x="157" y="570"/>
      <point x="121" y="546" type="curve"/>
      <point x="182" y="459" type="line"/>
      <point x="227" y="490"/>
      <point x="380" y="590"/>
      <point x="425" y="477" type="curve" smooth="yes"/>
      <point x="449" y="417"/>
      <point x="363" y="365"/>
      <point x="229" y="350" type="curve"/>
      <point x="283" y="257" type="line"/>
      <point x="325" y="259"/>
      <point x="363" y="269"/>
      <point x="396" y="284" type="curve"/>
      <point x="468" y="220"/>
      <point x="484" y="147"/>
      <point x="408" y="107" type="curve" smooth="yes"/>
      <point x="254" y="25"/>
      <point x="115" y="232"/>
      <point x="56" y="309" type="curve"/>
      <point x="31" y="291" type="line"/>
      <point x="117" y="164"/>
      <point x="210" y="41"/>
      <point x="281" y="-2" type="curve" smooth="yes"/>
      <point x="382" y="-62"/>
      <point x="601" y="63"/>
      <point x="564" y="166" type="curve" smooth="yes"/>
      <point x="538" y="240"/>
      <point x="480" y="275"/>
      <point x="433" y="306" type="curve"/>
      <point x="438" y="310" type="line"/>
      <point x="490" y="283"/>
      <point x="551" y="245"/>
      <point x="626" y="271" type="curve"/>
      <point x="626" y="4" type="line"/>
      <point x="750" y="-52" type="line"/>
      <point x="750" y="523" type="line"/>
      <point x="874" y="523" type="line"/>
      <point x="874" y="4" type="line"/>
      <point x="998" y="-52" type="line"/>
      <point x="998" y="523" type="line"/>
      <point x="1063" y="523" type="line"/>
      <point x="1063" y="619" type="line"/>
      <point x="495" y="619" type="line"/>
    </contour>
  </outline>
</glyph>
<glyph name="dvAU.init" format="1">
  <advance width="1030"/>
  <outline>
    <contour>
      <point x="1061" y="678" type="move" name="abvm.bindu"/>
    </contour>
    <component base="dvA.init" xOffset="-10"/>
    <component base="dvmAI" xOffset="1047"/>
    <component base="dvmAA" xOffset="762"/>
  </outline>
</glyph>
<glyph name="dvAcandra.init" format="1">
  <advance width="913"/>
  <outline>
    <contour>
      <point x="774" y="-10" type="move" name="blwm.virama"/>
    </contour>
    <contour>
      <point x="831" y="662" type="move" name="abvm.bindu"/>
    </contour>
    <contour>
      <point x="774" y="0" type="move" name="blwm.u"/>
    </contour>
    <contour>
      <point x="831" y="672" type="move" name="abvm.e"/>
    </contour>
  </outline>
</glyph>
<glyph name="dvAnusvara" format="1">
  <advance width="-128"/>
  <outline>
    <contour>
      <point x="-170" y="619" type="move" name="_abvm.bindu"/>
    </contour>
    <contour>
      <point x="-170" y="693" type="curve"/>
      <point x="-128" y="715"/>
      <point x="-102" y="745"/>
      <point x="-93" y="770" type="curve"/>
      <point x="-102" y="789"/>
      <point x="-124" y="824"/>
      <point x="-172" y="845" type="curve"/>
      <point x="-193" y="840"/>
      <point x="-247" y="795"/>
      <point x="-250" y="771" type="curve"/>
      <point x="-232" y="734"/>
      <point x="-200" y="707"/>
    </contour>
  </outline>
</glyph>
<glyph name="dvAnusvara.amI" format="1">
  <advance width="0"/>
  <outline>
    <contour>
      <point x="-100" y="619" type="move" name="_abvm.i"/>
    </contour>
    <component base="dvAnusvara" xOffset="128" yOffset="-4"/>
  </outline>
</glyph>
<glyph name="dvAnusvara" format="1">
  <advance width="0"/>
  <outline>
    <contour>
      <point x="-82" y="662" type="move" name="_abvm.bindu"/>
    </contour>
    <contour>
      <point x="-44" y="840" type="curve" smooth="yes"/>
      <point x="-7" y="840"/>
      <point x="27" y="811"/>
      <point x="27" y="769" type="curve" smooth="yes"/>
      <point x="27" y="725"/>
      <point x="-8" y="698"/>
      <point x="-44" y="698" type="curve" smooth="yes"/>
      <point x="-83" y="698"/>
      <point x="-117" y="726"/>
      <point x="-117" y="769" type="curve" smooth="yes"/>
      <point x="-117" y="811"/>
      <point x="-83" y="840"/>
    </contour>
  </outline>
</glyph>
<glyph name="dvBH_R" format="1">
  <advance width="499"/>
  <outline>
    <contour>
      <point x="532" y="138" type="line"/>
      <point x="511" y="82"/>
      <point x="420" y="-10"/>
      <point x="327" y="-64" type="curve"/>
      <point x="243" y="2" type="line"/>
      <point x="346" y="44"/>
      <point x="442" y="111"/>
      <point x="504" y="184" type="curve"/>
    </contour>
    <component base="dvBH"/>
  </outline>
</glyph>
<glyph name="dvB" format="1">
  <advance width="375"/>
  <outline>
    <contour>
      <point x="486" y="313" type="curve"/>
      <point x="486" y="313"/>
      <point x="409" y="74"/>
      <point x="273" y="71" type="curve" smooth="yes"/>
      <point x="167" y="69"/>
      <point x="92" y="191"/>
      <point x="55" y="263" type="curve" smooth="yes"/>
      <point x="10" y="348"/>
      <point x="229" y="500"/>
      <point x="288" y="460" type="curve" smooth="yes"/>
      <point x="322" y="436"/>
      <point x="440" y="350"/>
    </contour>
    <contour>
      <point x="-8" y="619" type="line"/>
      <point x="594" y="619" type="line"/>
      <point x="594" y="523" type="line"/>
      <point x="-8" y="523" type="line"/>
    </contour>
    <contour>
      <point x="422" y="314" type="line"/>
      <point x="353" y="374"/>
      <point x="278" y="367"/>
      <point x="224" y="336" type="curve"/>
      <point x="345" y="219" type="line"/>
      <point x="371" y="240"/>
      <point x="397" y="271"/>
      <point x="423" y="314" type="curve"/>
    </contour>
    <contour>
      <point x="152" y="201" type="curve"/>
      <point x="170" y="180"/>
      <point x="237" y="151"/>
      <point x="315" y="197" type="curve"/>
      <point x="193" y="315" type="line"/>
      <point x="149" y="277"/>
      <point x="128" y="226"/>
    </contour>
  </outline>
</glyph>
<glyph name="dvBH_RA" format="1">
  <advance width="695"/>
  <outline>
    <contour>
      <point x="532" y="138" type="line"/>
      <point x="511" y="82"/>
      <point x="434" y="0"/>
      <point x="367" y="-69" type="curve"/>
      <point x="283" y="-3" type="line"/>
      <point x="387" y="62"/>
      <point x="442" y="111"/>
      <point x="504" y="184" type="curve"/>
    </contour>
    <component base="dvBHA"/>
  </outline>
</glyph>
<glyph name="dvBH_R_YA" format="1">
  <advance width="1114"/>
  <outline>
    <contour>
      <point x="605" y="138" type="line"/>
      <point x="584" y="82"/>
      <point x="507" y="0"/>
      <point x="440" y="-69" type="curve"/>
      <point x="356" y="-3" type="line"/>
      <point x="460" y="62"/>
      <point x="515" y="111"/>
      <point x="577" y="184" type="curve"/>
    </contour>
    <component base="dvYA" xOffset="435"/>
    <component base="dvBH" xOffset="4"/>
  </outline>
</glyph>
<glyph name="dvB_DH_VA" format="1">
  <advance width="1292"/>
  <outline>
    <contour>
      <point x="459" y="304" type="line"/>
      <point x="309" y="435"/>
      <point x="95" y="258"/>
      <point x="149" y="201" type="curve" smooth="yes"/>
      <point x="172" y="176"/>
      <point x="292" y="153"/>
      <point x="399" y="254" type="curve" smooth="yes"/>
      <point x="439" y="292"/>
      <point x="462" y="357"/>
      <point x="470" y="242" type="curve"/>
      <point x="470" y="242"/>
      <point x="372" y="72"/>
      <point x="270" y="71" type="curve"/>
      <point x="164" y="71"/>
      <point x="89" y="191"/>
      <point x="52" y="263" type="curve" smooth="yes"/>
      <point x="7" y="348"/>
      <point x="217" y="482"/>
      <point x="285" y="460" type="curve" smooth="yes"/>
      <point x="319" y="449"/>
      <point x="443" y="383"/>
      <point x="468" y="338" type="curve"/>
    </contour>
    <contour>
      <point x="165" y="340" type="line"/>
      <point x="189" y="368" type="line"/>
      <point x="387" y="176" type="line"/>
      <point x="363" y="149" type="line"/>
    </contour>
    <contour>
      <point x="-10" y="619" type="line"/>
      <point x="482" y="619" type="line"/>
      <point x="452" y="523" type="line"/>
      <point x="-10" y="523" type="line"/>
    </contour>
    <component base="dvDH" xOffset="283"/>
    <component base="dvVA" xOffset="705"/>
  </outline>
</glyph>
<glyph name="dvB_DA_mUU" format="1">
  <advance width="974"/>
  <outline>
    <contour>
      <point x="769" y="619" type="move" name="abvm.bindu"/>
    </contour>
    <contour>
      <point x="754" y="619" type="move" name="abvm.e"/>
    </contour>
    <component base="dvB"/>
    <component base="dvDA_mUU" xOffset="348"/>
  </outline>
</glyph>
<glyph name="dvB_JA" format="1">
  <advance width="1150"/>
  <outline>
    <contour>
      <point x="418" y="314" type="line"/>
      <point x="268" y="445"/>
      <point x="94" y="258"/>
      <point x="148" y="201" type="curve" smooth="yes"/>
      <point x="175" y="171"/>
      <point x="329" y="147"/>
      <point x="442" y="333" type="curve"/>
      <point x="469" y="242" type="line"/>
      <point x="469" y="242"/>
      <point x="371" y="72"/>
      <point x="269" y="71" type="curve"/>
      <point x="163" y="71"/>
      <point x="88" y="191"/>
      <point x="51" y="263" type="curve" smooth="yes"/>
      <point x="6" y="348"/>
      <point x="216" y="482"/>
      <point x="284" y="460" type="curve" smooth="yes"/>
      <point x="318" y="449"/>
      <point x="395" y="409"/>
      <point x="420" y="364" type="curve"/>
    </contour>
    <contour>
      <point x="164" y="340" type="line"/>
      <point x="188" y="368" type="line"/>
      <point x="386" y="176" type="line"/>
      <point x="362" y="149" type="line"/>
    </contour>
    <contour>
      <point x="-11" y="619" type="line"/>
      <point x="591" y="619" type="line"/>
      <point x="591" y="523" type="line"/>
      <point x="-11" y="523" type="line"/>
    </contour>
    <component base="dvJA" xOffset="347"/>
  </outline>
</glyph>
<glyph name="dvB_JHA" format="1">
  <advance width="1098"/>
  <outline>
    <contour>
      <point x="411" y="314" type="line"/>
      <point x="342" y="374"/>
      <point x="268" y="367"/>
      <point x="213" y="336" type="curve"/>
      <point x="335" y="218" type="line"/>
      <point x="359" y="239"/>
      <point x="383" y="267"/>
      <point x="407" y="306" type="curve"/>
      <point x="455" y="258" type="line"/>
      <point x="455" y="258"/>
      <point x="364" y="72"/>
      <point x="262" y="71" type="curve"/>
      <point x="156" y="71"/>
      <point x="81" y="191"/>
      <point x="44" y="263" type="curve" smooth="yes"/>
      <point x="-1" y="348"/>
      <point x="218" y="500"/>
      <point x="277" y="460" type="curve" smooth="yes"/>
      <point x="311" y="436"/>
      <point x="378" y="391"/>
      <point x="414" y="368" type="curve"/>
    </contour>
    <contour>
      <point x="-18" y="619" type="line"/>
      <point x="584" y="619" type="line"/>
      <point x="584" y="523" type="line"/>
      <point x="-18" y="523" type="line"/>
    </contour>
    <contour>
      <point x="141" y="201" type="curve" smooth="yes"/>
      <point x="160" y="180"/>
      <point x="228" y="148"/>
      <point x="306" y="196" type="curve"/>
      <point x="182" y="315" type="line"/>
      <point x="138" y="277"/>
      <point x="117" y="226"/>
    </contour>
    <component base="dvJHA" xOffset="350"/>
  </outline>
</glyph>
<glyph name="dvB_JxA" format="1">
  <advance width="1178"/>
  <outline>
    <contour>
      <point x="421" y="314" type="line"/>
      <point x="352" y="374"/>
      <point x="278" y="367"/>
      <point x="223" y="336" type="curve"/>
      <point x="344" y="219" type="line"/>
      <point x="370" y="240"/>
      <point x="396" y="269"/>
      <point x="421" y="311" type="curve"/>
      <point x="474" y="241" type="line"/>
      <point x="474" y="241"/>
      <point x="374" y="72"/>
      <point x="272" y="71" type="curve"/>
      <point x="166" y="71"/>
      <point x="91" y="191"/>
      <point x="54" y="263" type="curve" smooth="yes"/>
      <point x="9" y="348"/>
      <point x="238" y="491"/>
      <point x="302" y="459" type="curve" smooth="yes"/>
      <point x="338" y="441"/>
      <point x="400" y="402"/>
      <point x="421" y="364" type="curve"/>
    </contour>
    <contour>
      <point x="-8" y="619" type="line"/>
      <point x="594" y="619" type="line"/>
      <point x="594" y="523" type="line"/>
      <point x="-8" y="523" type="line"/>
    </contour>
    <contour>
      <point x="151" y="201" type="curve"/>
      <point x="169" y="180"/>
      <point x="237" y="152"/>
      <point x="314" y="197" type="curve"/>
      <point x="192" y="315" type="line"/>
      <point x="148" y="277"/>
      <point x="127" y="226"/>
    </contour>
    <component base="dvJA" xOffset="348"/>
    <component base="dvNukta" xOffset="825" yOffset="155"/>
  </outline>
</glyph>
<glyph name="dvB_NA" format="1">
  <advance width="624"/>
  <outline>
    <contour>
      <point x="430" y="1" type="line"/>
      <point x="555" y="-55" type="line"/>
      <point x="555" y="523" type="line"/>
      <point x="630" y="523" type="line"/>
      <point x="630" y="619" type="line"/>
      <point x="-12" y="619" type="line"/>
      <point x="-12" y="523" type="line"/>
      <point x="430" y="523" type="line"/>
      <point x="430" y="387" type="line"/>
      <point x="394" y="410"/>
      <point x="349" y="441"/>
      <point x="323" y="460" type="curve"/>
      <point x="264" y="500"/>
      <point x="45" y="348"/>
      <point x="90" y="263" type="curve" smooth="yes"/>
      <point x="112" y="220"/>
      <point x="147" y="161"/>
      <point x="194" y="119" type="curve"/>
      <point x="85" y="77"/>
      <point x="91" y="81"/>
      <point x="85" y="76" type="curve" smooth="yes"/>
      <point x="37" y="32"/>
      <point x="16" y="-53"/>
      <point x="84" y="-88" type="curve" smooth="yes"/>
      <point x="128" y="-111"/>
      <point x="159" y="-123"/>
      <point x="216" y="-142" type="curve" smooth="yes"/>
      <point x="265" y="-158"/>
      <point x="366" y="-16"/>
      <point x="268" y="48" type="curve"/>
      <point x="342" y="76" type="line"/>
      <point x="357" y="82" type="line"/>
      <point x="430" y="110" type="line"/>
    </contour>
    <contour>
      <point x="187" y="201" type="curve" smooth="yes"/>
      <point x="163" y="226"/>
      <point x="184" y="277"/>
      <point x="228" y="315" type="curve"/>
      <point x="352" y="196" type="line"/>
      <point x="274" y="148"/>
      <point x="206" y="180"/>
    </contour>
    <contour>
      <point x="381" y="218" type="curve"/>
      <point x="259" y="336" type="line"/>
      <point x="307" y="363"/>
      <point x="369" y="372"/>
      <point x="430" y="334" type="curve"/>
      <point x="430" y="271" type="line"/>
      <point x="414" y="249"/>
      <point x="397" y="232"/>
    </contour>
  </outline>
</glyph>
<glyph name="dvB_SHA" format="1">
  <advance width="1074"/>
  <outline>
    <contour>
      <point x="462" y="157" type="line"/>
      <point x="462" y="157"/>
      <point x="375" y="71"/>
      <point x="273" y="71" type="curve" smooth="yes"/>
      <point x="167" y="71"/>
      <point x="92" y="191"/>
      <point x="55" y="263" type="curve" smooth="yes"/>
      <point x="10" y="348"/>
      <point x="229" y="500"/>
      <point x="288" y="460" type="curve" smooth="yes"/>
      <point x="322" y="436"/>
      <point x="452" y="260"/>
      <point x="488" y="237" type="curve"/>
      <point x="438" y="242" type="line"/>
    </contour>
    <contour>
      <point x="-7" y="619" type="line"/>
      <point x="540" y="619" type="line"/>
      <point x="540" y="523" type="line"/>
      <point x="-7" y="523" type="line"/>
    </contour>
    <contour>
      <point x="152" y="201" type="curve" smooth="yes"/>
      <point x="169" y="178"/>
      <point x="243" y="149"/>
      <point x="332" y="182" type="curve"/>
      <point x="180" y="328" type="line"/>
      <point x="138" y="296"/>
      <point x="126" y="236"/>
    </contour>
    <contour>
      <point x="214" y="346" type="curve"/>
      <point x="367" y="198" type="line"/>
      <point x="389" y="209"/>
      <point x="411" y="225"/>
      <point x="433" y="245" type="curve"/>
      <point x="341" y="342"/>
      <point x="266" y="361"/>
    </contour>
    <component base="dvSHA" xOffset="369"/>
  </outline>
</glyph>
<glyph name="dvCHA" format="1">
  <advance width="778"/>
  <outline>
    <contour>
      <point x="341" y="0" type="move" name="blwm.virama"/>
    </contour>
    <contour>
      <point x="608" y="616" type="move" name="abvm.bindu"/>
    </contour>
    <contour>
      <point x="391" y="-10" type="move" name="blwm.u"/>
    </contour>
    <contour>
      <point x="590" y="620" type="move" name="abvm.e"/>
    </contour>
    <contour>
      <point x="-8" y="523" type="line"/>
      <point x="185" y="523" type="line"/>
      <point x="52" y="437"/>
      <point x="153" y="341"/>
      <point x="221" y="297" type="curve"/>
      <point x="166" y="258"/>
      <point x="123" y="208"/>
      <point x="147" y="177" type="curve" smooth="yes"/>
      <point x="197" y="112"/>
      <point x="234" y="66"/>
      <point x="293" y="7" type="curve" smooth="yes"/>
      <point x="362" y="-62"/>
      <point x="507" y="1"/>
      <point x="614" y="103" type="curve"/>
      <point x="720" y="-20" type="line"/>
      <point x="752" y="11" type="line"/>
      <point x="752" y="11"/>
      <point x="688" y="76"/>
      <point x="638" y="127" type="curve"/>
      <point x="720" y="215"/>
      <point x="770" y="322"/>
      <point x="728" y="397" type="curve" smooth="yes"/>
      <point x="714" y="421"/>
      <point x="661" y="497"/>
      <point x="628" y="523" type="curve"/>
      <point x="787" y="523" type="line"/>
      <point x="787" y="619" type="line"/>
      <point x="-8" y="619" type="line"/>
    </contour>
    <contour>
      <point x="467" y="276" type="curve"/>
      <point x="478" y="257"/>
      <point x="509" y="220"/>
      <point x="538" y="189" type="curve"/>
      <point x="447" y="102"/>
      <point x="328" y="44"/>
      <point x="266" y="114" type="curve" smooth="yes"/>
      <point x="214" y="173"/>
      <point x="318" y="241"/>
      <point x="413" y="279" type="curve"/>
      <point x="342" y="351" type="line"/>
      <point x="320" y="348"/>
      <point x="292" y="337"/>
      <point x="263" y="322" type="curve"/>
      <point x="177" y="406"/>
      <point x="245" y="474"/>
      <point x="363" y="523" type="curve"/>
      <point x="576" y="523" type="line"/>
      <point x="498" y="482"/>
      <point x="440" y="317"/>
    </contour>
    <contour>
      <point x="646" y="439" type="curve" smooth="yes"/>
      <point x="688" y="394"/>
      <point x="639" y="296"/>
      <point x="562" y="213" type="curve"/>
      <point x="514" y="312"/>
      <point x="613" y="474"/>
    </contour>
  </outline>
</glyph>
<glyph name="dvCH_RA" format="1">
  <advance width="728"/>
  <outline>
    <contour>
      <point x="344" y="-200" type="move" name="blwm.virama"/>
    </contour>
    <contour>
      <point x="604" y="619" type="move" name="abvm.bindu"/>
    </contour>
    <contour>
      <point x="344" y="-190" type="move" name="blwm.u"/>
    </contour>
    <contour>
      <point x="591" y="621" type="move" name="abvm.e"/>
    </contour>
    <component base="dvCHA" xOffset="538"/>
    <component base="dvRashtrasign" xOffset="617"/>
  </outline>
</glyph>
<glyph name="dvC_MA" format="1">
  <advance width="1207"/>
  <outline>
    <contour>
      <point x="44" y="402" type="line"/>
      <point x="362" y="402" type="line"/>
      <point x="460" y="319" type="line"/>
      <point x="451" y="319" type="line" smooth="yes"/>
      <point x="340" y="317"/>
      <point x="260" y="227"/>
      <point x="323" y="169" type="curve" smooth="yes"/>
      <point x="364" y="130"/>
      <point x="510" y="166"/>
      <point x="584" y="237" type="curve"/>
      <point x="630" y="162" type="line"/>
      <point x="536" y="71"/>
      <point x="385" y="49"/>
      <point x="339" y="92" type="curve" smooth="yes"/>
      <point x="279" y="148"/>
      <point x="260" y="159"/>
      <point x="207" y="220" type="curve" smooth="yes"/>
      <point x="182" y="248"/>
      <point x="196" y="285"/>
      <point x="226" y="319" type="curve"/>
      <point x="140" y="319" type="line"/>
    </contour>
    <contour>
      <point x="-28" y="619" type="line"/>
      <point x="699" y="619" type="line"/>
      <point x="699" y="522" type="line"/>
      <point x="-28" y="522" type="line"/>
    </contour>
    <component base="dvMA" xOffset="526"/>
  </outline>
</glyph>
<glyph name="dvC_NA" format="1">
  <advance width="788"/>
  <outline>
    <contour>
      <point x="588" y="229" type="line"/>
      <point x="196" y="75" type="line"/>
      <point x="147" y="31"/>
      <point x="126" y="-53"/>
      <point x="194" y="-89" type="curve" smooth="yes"/>
      <point x="237" y="-112"/>
      <point x="268" y="-125"/>
      <point x="326" y="-143" type="curve"/>
      <point x="374" y="-160"/>
      <point x="476" y="-18"/>
      <point x="377" y="46" type="curve"/>
      <point x="623" y="140" type="line"/>
    </contour>
    <component base="dvCA" xOffset="32"/>
  </outline>
</glyph>
<glyph name="dvC_RA" format="1">
  <advance width="756"/>
  <outline>
    <contour>
      <point x="-8" y="402" type="line"/>
      <point x="310" y="402" type="line"/>
      <point x="408" y="319" type="line"/>
      <point x="99" y="212"/>
      <point x="307" y="51"/>
      <point x="564" y="341" type="curve"/>
      <point x="564" y="523" type="line"/>
      <point x="-70" y="523" type="line"/>
      <point x="-70" y="619" type="line"/>
      <point x="774" y="619" type="line"/>
      <point x="774" y="523" type="line"/>
      <point x="688" y="523" type="line"/>
      <point x="688" y="-56" type="line"/>
      <point x="564" y="0" type="line"/>
      <point x="564" y="158" type="line"/>
      <point x="511" y="94"/>
      <point x="437" y="18"/>
      <point x="378" y="-38" type="curve"/>
      <point x="294" y="28" type="line"/>
      <point x="317" y="45"/>
      <point x="345" y="67"/>
      <point x="374" y="91" type="curve"/>
      <point x="333" y="86"/>
      <point x="301" y="92"/>
      <point x="285" y="107" type="curve" smooth="yes"/>
      <point x="235" y="152"/>
      <point x="216" y="172"/>
      <point x="174" y="225" type="curve" smooth="yes"/>
      <point x="152" y="253"/>
      <point x="160" y="288"/>
      <point x="183" y="319" type="curve"/>
      <point x="88" y="319" type="line"/>
    </contour>
  </outline>
</glyph>
<glyph name="dvC_YA" format="1">
  <advance width="1194"/>
  <outline>
    <contour>
      <point x="-50" y="619" type="line"/>
      <point x="677" y="619" type="line"/>
      <point x="677" y="523" type="line"/>
      <point x="-50" y="523" type="line"/>
    </contour>
    <contour>
      <point x="12" y="402" type="line"/>
      <point x="330" y="402" type="line"/>
      <point x="428" y="319" type="line"/>
      <point x="108" y="319" type="line"/>
    </contour>
    <contour>
      <point x="428" y="319" type="line"/>
      <point x="141" y="220"/>
      <point x="330" y="39"/>
      <point x="546" y="291" type="curve" smooth="yes"/>
      <point x="680" y="266"/>
      <point x="660" y="240"/>
      <point x="640" y="217" type="curve" smooth="yes"/>
      <point x="513" y="69"/>
      <point x="377" y="46"/>
      <point x="323" y="89" type="curve" smooth="yes"/>
      <point x="262" y="138"/>
      <point x="238" y="159"/>
      <point x="185" y="220" type="curve" smooth="yes"/>
      <point x="129" y="284"/>
      <point x="265" y="401"/>
      <point x="338" y="395" type="curve"/>
    </contour>
    <component base="dvYA" xOffset="518"/>
  </outline>
</glyph>
<glyph name="dvCandrabindu" format="1">
  <advance width="-3"/>
  <outline>
    <contour>
      <point x="-206" y="619" type="move" name="_abvm.bindu"/>
    </contour>
    <component base="dvAnusvara" xOffset="-157" yOffset="102"/>
    <component base="dvmEcandra" xOffset="-123" yOffset="10"/>
  </outline>
</glyph>
<glyph name="dvDA_mUU" format="1">
  <advance width="563"/>
  <outline>
    <contour>
      <point x="433" y="662" type="move" name="abvm.bindu"/>
    </contour>
    <contour>
      <point x="433" y="672" type="move" name="abvm.e"/>
    </contour>
  </outline>
</glyph>
<glyph name="dvDD_VA" format="1">
  <advance width="620"/>
  <outline>
    <contour>
      <point x="474" y="662" type="move" name="abvm.bindu"/>
    </contour>
    <contour>
      <point x="359" y="-332" type="move" name="blwm.virama"/>
    </contour>
    <contour>
      <point x="474" y="672" type="move" name="abvm.e"/>
    </contour>
    <contour>
      <point x="359" y="-322" type="move" name="blwm.u"/>
    </contour>
    <contour>
      <point x="-10" y="619" type="line"/>
      <point x="649" y="619" type="line"/>
      <point x="649" y="523" type="line"/>
      <point x="461" y="523" type="line"/>
      <point x="461" y="393" type="line"/>
      <point x="240" y="393" type="line" smooth="yes"/>
      <point x="194" y="393"/>
      <point x="162" y="263"/>
      <point x="248" y="286" type="curve" smooth="yes"/>
      <point x="294" y="298"/>
      <point x="442" y="351"/>
      <point x="456" y="339" type="curve" smooth="yes"/>
      <point x="498" y="304"/>
      <point x="561" y="223"/>
      <point x="570" y="182" type="curve"/>
      <point x="571" y="182" type="line"/>
      <point x="571" y="-472" type="line"/>
      <point x="461" y="-424" type="line"/>
      <point x="461" y="-317" type="line"/>
      <point x="318" y="-466"/>
      <point x="198" y="-363"/>
      <point x="120" y="-210" type="curve"/>
      <point x="75" y="-125"/>
      <point x="294" y="27"/>
      <point x="353" y="-13" type="curve" smooth="yes"/>
      <point x="461" y="-86" type="line"/>
      <point x="461" y="37" type="line"/>
      <point x="347" y="-16"/>
      <point x="180" y="48"/>
      <point x="59" y="229" type="curve"/>
      <point x="79" y="248" type="line"/>
      <point x="266" y="7"/>
      <point x="455" y="116"/>
      <point x="488" y="237" type="curve" smooth="yes"/>
      <point x="506" y="303"/>
      <point x="295" y="146"/>
      <point x="239" y="186" type="curve" smooth="yes"/>
      <point x="191" y="220"/>
      <point x="137" y="260"/>
      <point x="99" y="300" type="curve" smooth="yes"/>
      <point x="58" y="345"/>
      <point x="134" y="455"/>
      <point x="188" y="459" type="curve" smooth="yes"/>
      <point x="349" y="470" type="line"/>
      <point x="349" y="523" type="line"/>
      <point x="-10" y="523" type="line"/>
    </contour>
    <contour>
      <point x="217" y="-272" type="curve" smooth="yes"/>
      <point x="242" y="-300"/>
      <point x="354" y="-346"/>
      <point x="461" y="-200" type="curve"/>
      <point x="461" y="-139" type="line"/>
      <point x="318" y="-49"/>
      <point x="166" y="-218"/>
    </contour>
  </outline>
</glyph>
<glyph name="dvDH_MA" format="1">
  <advance width="1064"/>
  <outline>
    <contour>
      <point x="338" y="619" type="line"/>
      <point x="1079" y="619" type="line"/>
      <point x="1079" y="523" type="line"/>
      <point x="1004" y="523" type="line"/>
      <point x="1004" y="-56" type="line"/>
      <point x="880" y="0" type="line"/>
      <point x="880" y="172" type="line"/>
      <point x="673" y="172" type="line"/>
      <point x="673" y="134" type="line" smooth="yes"/>
      <point x="673" y="29"/>
      <point x="546" y="21"/>
      <point x="520" y="43" type="curve" smooth="yes"/>
      <point x="500" y="59"/>
      <point x="459" y="94"/>
      <point x="429" y="119" type="curve"/>
      <point x="346" y="68"/>
      <point x="255" y="58"/>
      <point x="219" y="93" type="curve" smooth="yes"/>
      <point x="159" y="149"/>
      <point x="140" y="160"/>
      <point x="86" y="221" type="curve" smooth="yes"/>
      <point x="58" y="253"/>
      <point x="99" y="296"/>
      <point x="155" y="329" type="curve"/>
      <point x="129" y="349"/>
      <point x="108" y="371"/>
      <point x="45" y="433" type="curve"/>
      <point x="-42" y="516"/>
      <point x="181" y="646"/>
      <point x="217" y="625" type="curve"/>
      <point x="285" y="583"/>
      <point x="299" y="566"/>
      <point x="326" y="542" type="curve" smooth="yes"/>
      <point x="396" y="478"/>
      <point x="253" y="371"/>
      <point x="146" y="386" type="curve"/>
      <point x="156" y="373"/>
      <point x="169" y="359"/>
      <point x="187" y="345" type="curve"/>
      <point x="234" y="367"/>
      <point x="285" y="382"/>
      <point x="314" y="380" type="curve"/>
      <point x="380" y="313" type="line"/>
      <point x="272" y="294"/>
      <point x="139" y="230"/>
      <point x="203" y="170" type="curve" smooth="yes"/>
      <point x="243" y="132"/>
      <point x="356" y="170"/>
      <point x="433" y="239" type="curve"/>
      <point x="448" y="256"/>
      <point x="468" y="268"/>
      <point x="489" y="268" type="curve" smooth="yes"/>
      <point x="549" y="268" type="line"/>
      <point x="549" y="523" type="line"/>
      <point x="377" y="523" type="line"/>
    </contour>
    <contour>
      <point x="880" y="269" type="line"/>
      <point x="880" y="523" type="line"/>
      <point x="673" y="523" type="line"/>
      <point x="673" y="268" type="line"/>
    </contour>
    <contour>
      <point x="269" y="539" type="curve" smooth="yes"/>
      <point x="239" y="564"/>
      <point x="123" y="520"/>
      <point x="124" y="444" type="curve"/>
      <point x="207" y="441"/>
      <point x="289" y="521"/>
    </contour>
  </outline>
</glyph>
<glyph name="dvDD_VA" format="1">
  <advance width="620"/>
  <outline>
    <contour>
      <point x="446" y="-265" type="move" name="blwm.virama"/>
    </contour>
    <contour>
      <point x="419" y="619" type="move" name="abvm.bindu"/>
    </contour>
    <contour>
      <point x="431" y="-255" type="move" name="blwm.u"/>
    </contour>
    <contour>
      <point x="399" y="619" type="move" name="abvm.e"/>
    </contour>
    <contour>
      <point x="386" y="-230" type="line"/>
      <point x="496" y="-278" type="line"/>
      <point x="496" y="58" type="line"/>
      <point x="528" y="83"/>
      <point x="553" y="119"/>
      <point x="570" y="167" type="curve" smooth="yes"/>
      <point x="581" y="198"/>
      <point x="504" y="299"/>
      <point x="456" y="339" type="curve" smooth="yes"/>
      <point x="442" y="351"/>
      <point x="294" y="298"/>
      <point x="248" y="286" type="curve" smooth="yes"/>
      <point x="162" y="263"/>
      <point x="194" y="393"/>
      <point x="240" y="393" type="curve" smooth="yes"/>
      <point x="461" y="393" type="line"/>
      <point x="461" y="523" type="line"/>
      <point x="649" y="523" type="line"/>
      <point x="649" y="619" type="line"/>
      <point x="-10" y="619" type="line"/>
      <point x="-10" y="523" type="line"/>
      <point x="349" y="523" type="line"/>
      <point x="349" y="470" type="line"/>
      <point x="188" y="459" type="line" smooth="yes"/>
      <point x="134" y="455"/>
      <point x="58" y="345"/>
      <point x="99" y="300" type="curve" smooth="yes"/>
      <point x="137" y="260"/>
      <point x="191" y="220"/>
      <point x="239" y="186" type="curve" smooth="yes"/>
      <point x="295" y="146"/>
      <point x="506" y="303"/>
      <point x="488" y="237" type="curve" smooth="yes"/>
      <point x="475" y="190"/>
      <point x="440" y="146"/>
      <point x="390" y="122" type="curve"/>
      <point x="386" y="122" type="line"/>
      <point x="386" y="120" type="line"/>
      <point x="306" y="84"/>
      <point x="192" y="102"/>
      <point x="79" y="248" type="curve"/>
      <point x="59" y="229" type="line"/>
      <point x="91" y="180"/>
      <point x="127" y="140"/>
      <point x="164" y="109" type="curve"/>
      <point x="106" y="71"/>
      <point x="71" y="19"/>
      <point x="96" y="-27" type="curve"/>
      <point x="167" y="-166"/>
      <point x="263" y="-271"/>
      <point x="386" y="-178" type="curve"/>
    </contour>
    <contour>
      <point x="386" y="19" type="curve"/>
      <point x="386" y="-56" type="line"/>
      <point x="296" y="-146"/>
      <point x="216" y="-112"/>
      <point x="193" y="-89" type="curve"/>
      <point x="160" y="-53"/>
      <point x="187" y="8"/>
      <point x="263" y="45" type="curve"/>
      <point x="305" y="26"/>
      <point x="347" y="18"/>
    </contour>
  </outline>
</glyph>
<glyph name="dvDH" format="1">
  <advance width="487"/>
  <outline>
    <contour>
      <point x="311" y="380" type="line"/>
      <point x="282" y="382"/>
      <point x="231" y="367"/>
      <point x="184" y="345" type="curve"/>
      <point x="166" y="359"/>
      <point x="153" y="373"/>
      <point x="143" y="386" type="curve"/>
      <point x="250" y="371"/>
      <point x="393" y="478"/>
      <point x="323" y="542" type="curve" smooth="yes"/>
      <point x="296" y="566"/>
      <point x="282" y="583"/>
      <point x="214" y="625" type="curve"/>
      <point x="178" y="646"/>
      <point x="-45" y="516"/>
      <point x="42" y="433" type="curve"/>
      <point x="105" y="371"/>
      <point x="126" y="349"/>
      <point x="152" y="329" type="curve"/>
      <point x="96" y="296"/>
      <point x="55" y="253"/>
      <point x="83" y="221" type="curve" smooth="yes"/>
      <point x="137" y="160"/>
      <point x="156" y="149"/>
      <point x="216" y="93" type="curve" smooth="yes"/>
      <point x="274" y="38"/>
      <point x="473" y="98"/>
      <point x="552" y="260" type="curve"/>
      <point x="491" y="353" type="line"/>
      <point x="463" y="219"/>
      <point x="257" y="115"/>
      <point x="200" y="170" type="curve" smooth="yes"/>
      <point x="136" y="230"/>
      <point x="269" y="294"/>
      <point x="377" y="313" type="curve"/>
    </contour>
    <contour>
      <point x="266" y="539" type="curve" smooth="yes"/>
      <point x="286" y="521"/>
      <point x="204" y="441"/>
      <point x="121" y="444" type="curve"/>
      <point x="120" y="520"/>
      <point x="236" y="564"/>
    </contour>
  </outline>
</glyph>
<glyph name="dvDH_NA" format="1">
  <advance width="692"/>
  <outline>
    <contour>
      <point x="515" y="185" type="line"/>
      <point x="515" y="185"/>
      <point x="124" y="71"/>
      <point x="106" y="62" type="curve"/>
      <point x="54" y="22"/>
      <point x="27" y="-61"/>
      <point x="92" y="-101" type="curve" smooth="yes"/>
      <point x="134" y="-127"/>
      <point x="164" y="-142"/>
      <point x="219" y="-165" type="curve" smooth="yes"/>
      <point x="267" y="-185"/>
      <point x="379" y="-52"/>
      <point x="286" y="20" type="curve"/>
      <point x="543" y="94" type="line"/>
    </contour>
    <contour>
      <point x="234" y="4" type="curve"/>
      <point x="247" y="-69"/>
      <point x="184" y="-115"/>
      <point x="148" y="-78" type="curve" smooth="yes"/>
      <point x="115" y="-45"/>
      <point x="180" y="-6"/>
    </contour>
    <component base="dvDHA"/>
  </outline>
</glyph>
<glyph name="dvDH_R" format="1">
  <advance width="444"/>
  <outline>
    <contour>
      <point x="325" y="364" type="line"/>
      <point x="296" y="366"/>
      <point x="252" y="353"/>
      <point x="212" y="332" type="curve"/>
      <point x="190" y="347"/>
      <point x="174" y="362"/>
      <point x="161" y="376" type="curve"/>
      <point x="266" y="367"/>
      <point x="383" y="471"/>
      <point x="333" y="532" type="curve" smooth="yes"/>
      <point x="306" y="565"/>
      <point x="269" y="597"/>
      <point x="214" y="625" type="curve" smooth="yes"/>
      <point x="177" y="644"/>
      <point x="-37" y="525"/>
      <point x="63" y="411" type="curve" smooth="yes"/>
      <point x="92" y="378"/>
      <point x="141" y="335"/>
      <point x="177" y="311" type="curve"/>
      <point x="132" y="280"/>
      <point x="103" y="241"/>
      <point x="130" y="209" type="curve" smooth="yes"/>
      <point x="172" y="159"/>
      <point x="196" y="133"/>
      <point x="240" y="97" type="curve" smooth="yes"/>
      <point x="254" y="85"/>
      <point x="279" y="78"/>
      <point x="311" y="76" type="curve"/>
      <point x="274" y="52"/>
      <point x="240" y="29"/>
      <point x="214" y="10" type="curve"/>
      <point x="298" y="-56" type="line"/>
      <point x="376" y="18"/>
      <point x="492" y="113"/>
      <point x="548" y="171" type="curve" smooth="yes"/>
      <point x="558" y="182" type="line" smooth="yes"/>
      <point x="565" y="190"/>
      <point x="570" y="197"/>
      <point x="574" y="203" type="curve" smooth="yes"/>
      <point x="575" y="205"/>
      <point x="576" y="207"/>
      <point x="578" y="209" type="curve"/>
      <point x="510" y="305" type="line"/>
      <point x="463" y="187"/>
      <point x="301" y="115"/>
      <point x="243" y="170" type="curve" smooth="yes"/>
      <point x="180" y="230"/>
      <point x="291" y="268"/>
      <point x="399" y="287" type="curve"/>
    </contour>
    <contour>
      <point x="414" y="523" type="line"/>
      <point x="697" y="523" type="line"/>
      <point x="697" y="619" type="line"/>
      <point x="375" y="619" type="line"/>
    </contour>
    <contour>
      <point x="256" y="537" type="curve" smooth="yes"/>
      <point x="276" y="519"/>
      <point x="205" y="444"/>
      <point x="125" y="444" type="curve"/>
      <point x="118" y="520"/>
      <point x="226" y="562"/>
    </contour>
  </outline>
</glyph>
<glyph name="dvDH_YA" format="1">
  <advance width="1090"/>
  <outline>
    <contour>
      <point x="308" y="364" type="line"/>
      <point x="284" y="366"/>
      <point x="246" y="354"/>
      <point x="209" y="334" type="curve"/>
      <point x="189" y="348"/>
      <point x="173" y="362"/>
      <point x="161" y="376" type="curve"/>
      <point x="266" y="367"/>
      <point x="383" y="471"/>
      <point x="333" y="532" type="curve" smooth="yes"/>
      <point x="306" y="565"/>
      <point x="269" y="597"/>
      <point x="214" y="625" type="curve" smooth="yes"/>
      <point x="177" y="644"/>
      <point x="-51" y="521"/>
      <point x="35" y="429" type="curve" smooth="yes"/>
      <point x="64" y="398"/>
      <point x="135" y="340"/>
      <point x="173" y="314" type="curve"/>
      <point x="109" y="272"/>
      <point x="56" y="215"/>
      <point x="88" y="178" type="curve" smooth="yes"/>
      <point x="130" y="128"/>
      <point x="178" y="88"/>
      <point x="220" y="50" type="curve" smooth="yes"/>
      <point x="279" y="-4"/>
      <point x="473" y="41"/>
      <point x="552" y="203" type="curve"/>
      <point x="475" y="291" type="line"/>
      <point x="428" y="173"/>
      <point x="262" y="72"/>
      <point x="204" y="127" type="curve" smooth="yes"/>
      <point x="141" y="187"/>
      <point x="274" y="268"/>
      <point x="382" y="287" type="curve"/>
    </contour>
    <contour>
      <point x="414" y="523" type="line"/>
      <point x="697" y="523" type="line"/>
      <point x="697" y="619" type="line"/>
      <point x="375" y="619" type="line"/>
    </contour>
    <contour>
      <point x="256" y="537" type="curve" smooth="yes"/>
      <point x="276" y="519"/>
      <point x="205" y="444"/>
      <point x="125" y="444" type="curve"/>
      <point x="118" y="520"/>
      <point x="226" y="562"/>
    </contour>
    <component base="dvYA" xOffset="422"/>
  </outline>
</glyph>
<glyph name="dvD_DHA" format="1">
  <advance width="721"/>
  <outline>
    <contour>
      <point x="522" y="619" type="move" name="abvm.bindu"/>
    </contour>
    <contour>
      <point x="645" y="-56" type="move" name="blwm.virama"/>
    </contour>
    <contour>
      <point x="508" y="619" type="move" name="abvm.e"/>
    </contour>
    <contour>
      <point x="661" y="-56" type="move" name="blwm.u"/>
    </contour>
    <contour>
      <point x="72" y="70" type="line"/>
      <point x="168" y="76"/>
      <point x="233" y="201"/>
      <point x="205" y="213" type="curve" smooth="yes"/>
      <point x="152" y="232"/>
      <point x="-21" y="66"/>
      <point x="218" y="3" type="curve"/>
      <point x="202" y="-33" type="line"/>
      <point x="149" y="-20"/>
      <point x="127" y="-12"/>
      <point x="30" y="37" type="curve" smooth="yes"/>
      <point x="-77" y="91"/>
      <point x="86" y="284"/>
      <point x="127" y="276" type="curve"/>
      <point x="205" y="259"/>
      <point x="224" y="248"/>
      <point x="258" y="235" type="curve" smooth="yes"/>
      <point x="346" y="198"/>
      <point x="246" y="48"/>
      <point x="140" y="27" type="curve"/>
    </contour>
    <contour>
      <point x="-13" y="619" type="line"/>
      <point x="750" y="619" type="line"/>
      <point x="750" y="523" type="line"/>
      <point x="-13" y="523" type="line"/>
    </contour>
    <contour>
      <point x="450" y="468" type="line"/>
      <point x="450" y="546" type="line"/>
      <point x="561" y="546" type="line"/>
      <point x="561" y="391" type="line"/>
      <point x="394" y="389" type="line" smooth="yes"/>
      <point x="289" y="388"/>
      <point x="217" y="136"/>
      <point x="399" y="123" type="curve" smooth="yes"/>
      <point x="501" y="116"/>
      <point x="552" y="199"/>
      <point x="570" y="261" type="curve"/>
      <point x="655" y="186" type="line"/>
      <point x="566" y="65"/>
      <point x="469" y="-27"/>
      <point x="342" y="77" type="curve" smooth="yes"/>
      <point x="278" y="129"/>
      <point x="239" y="162"/>
      <point x="197" y="224" type="curve" smooth="yes"/>
      <point x="147" y="298"/>
      <point x="213" y="447"/>
      <point x="290" y="455" type="curve"/>
    </contour>
    <contour>
      <point x="667" y="-70" type="line"/>
      <point x="462" y="187"/>
      <point x="439" y="214"/>
      <point x="446" y="228" type="curve" smooth="yes"/>
      <point x="461" y="258"/>
      <point x="498" y="286"/>
      <point x="516" y="297" type="curve" smooth="yes"/>
      <point x="563" y="327"/>
      <point x="598" y="299"/>
      <point x="630" y="261" type="curve" smooth="yes"/>
      <point x="657" y="229"/>
      <point x="674" y="183"/>
      <point x="644" y="153" type="curve" smooth="yes"/>
      <point x="591" y="100" type="line"/>
      <point x="706" y="-43" type="line"/>
    </contour>
    <contour>
      <point x="352" y="-4" type="line"/>
      <point x="250" y="-45"/>
      <point x="192" y="-104"/>
      <point x="266" y="-150" type="curve" smooth="yes"/>
      <point x="334" y="-192"/>
      <point x="512" y="-22"/>
      <point x="508" y="119" type="curve"/>
      <point x="594" y="39" type="line"/>
      <point x="550" y="-135"/>
      <point x="366" y="-264"/>
      <point x="298" y="-222" type="curve" smooth="yes"/>
      <point x="228" y="-179"/>
      <point x="207" y="-172"/>
      <point x="142" y="-124" type="curve" smooth="yes"/>
      <point x="74" y="-73"/>
      <point x="191" y="47"/>
      <point x="263" y="56" type="curve"/>
    </contour>
  </outline>
</glyph>
<glyph name="dvD_GA" format="1">
  <advance width="559"/>
  <outline>
    <contour>
      <point x="450" y="662" type="move" name="abvm.bindu"/>
    </contour>
    <contour>
      <point x="253" y="-407" type="move" name="blwm.virama"/>
    </contour>
    <contour>
      <point x="450" y="672" type="move" name="abvm.e"/>
    </contour>
    <contour>
      <point x="253" y="-397" type="move" name="blwm.u"/>
    </contour>
  </outline>
</glyph>
<glyph name="dvD_G_RA" format="1">
  <advance width="559"/>
  <outline>
    <contour>
      <point x="535" y="662" type="move" name="abvm.bindu"/>
    </contour>
    <contour>
      <point x="313" y="-407" type="move" name="blwm.virama"/>
    </contour>
    <contour>
      <point x="535" y="672" type="move" name="abvm.e"/>
    </contour>
    <contour>
      <point x="313" y="-397" type="move" name="blwm.u"/>
    </contour>
  </outline>
</glyph>
<glyph name="dvD_NA" format="1">
  <advance width="605"/>
  <outline>
    <contour>
      <point x="577" y="-109" type="move" name="blwm.virama"/>
    </contour>
    <contour>
      <point x="421" y="619" type="move" name="abvm.bindu"/>
    </contour>
    <contour>
      <point x="585" y="-114" type="move" name="blwm.u"/>
    </contour>
    <contour>
      <point x="413" y="619" type="move" name="abvm.e"/>
    </contour>
    <contour>
      <point x="462" y="117" type="line"/>
      <point x="462" y="117"/>
      <point x="180" y="2"/>
      <point x="163" y="-8" type="curve"/>
      <point x="115" y="-52"/>
      <point x="94" y="-137"/>
      <point x="162" y="-172" type="curve" smooth="yes"/>
      <point x="206" y="-195"/>
      <point x="237" y="-207"/>
      <point x="294" y="-226" type="curve" smooth="yes"/>
      <point x="343" y="-242"/>
      <point x="444" y="-100"/>
      <point x="346" y="-36" type="curve"/>
      <point x="497" y="28" type="line"/>
    </contour>
    <contour>
      <point x="295" y="-56" type="curve"/>
      <point x="314" y="-128"/>
      <point x="255" y="-179"/>
      <point x="216" y="-145" type="curve" smooth="yes"/>
      <point x="181" y="-114"/>
      <point x="242" y="-70"/>
    </contour>
    <component base="dvDA"/>
  </outline>
</glyph>
<glyph name="dvD_RA" format="1">
  <advance width="605"/>
  <outline>
    <contour>
      <point x="548" y="-85" type="move" name="blwm.virama"/>
    </contour>
    <contour>
      <point x="423" y="620" type="move" name="abvm.bindu"/>
    </contour>
    <contour>
      <point x="562" y="-97" type="move" name="blwm.u"/>
    </contour>
    <contour>
      <point x="409" y="620" type="move" name="abvm.e"/>
    </contour>
    <contour>
      <point x="166" y="-67" type="line"/>
      <point x="241" y="-142" type="line"/>
      <point x="470" y="26" type="line"/>
      <point x="419" y="74" type="line"/>
    </contour>
    <component base="dvDA"/>
  </outline>
</glyph>
<glyph name="dvD_YA" format="1">
  <advance width="712"/>
  <outline>
    <contour>
      <point x="-10" y="619" type="line"/>
      <point x="718" y="619" type="line"/>
      <point x="718" y="523" type="line"/>
      <point x="-10" y="523" type="line"/>
    </contour>
    <contour>
      <point x="596" y="133" type="line"/>
      <point x="502" y="58"/>
      <point x="320" y="-58"/>
      <point x="252" y="-10" type="curve" smooth="yes"/>
      <point x="189" y="34"/>
      <point x="160" y="70"/>
      <point x="108" y="136" type="curve" smooth="yes"/>
      <point x="82" y="169"/>
      <point x="127" y="265"/>
      <point x="208" y="291" type="curve" smooth="yes"/>
      <point x="248" y="304"/>
      <point x="360" y="296"/>
      <point x="360" y="296" type="curve"/>
      <point x="427" y="216" type="line"/>
      <point x="427" y="216"/>
      <point x="335" y="216"/>
      <point x="291" y="219" type="curve" smooth="yes"/>
      <point x="85" y="233"/>
      <point x="192" y="-113"/>
      <point x="537" y="208" type="curve"/>
    </contour>
    <contour>
      <point x="180" y="454" type="curve" smooth="yes"/>
      <point x="197" y="461"/>
      <point x="318" y="469"/>
      <point x="318" y="469" type="curve"/>
      <point x="320" y="547" type="line"/>
      <point x="430" y="546" type="line"/>
      <point x="429" y="391" type="line"/>
      <point x="429" y="391"/>
      <point x="316" y="388"/>
      <point x="275" y="388" type="curve" smooth="yes"/>
      <point x="209" y="388"/>
      <point x="165" y="303"/>
      <point x="202" y="251" type="curve"/>
      <point x="186" y="240" type="line"/>
      <point x="93" y="318"/>
      <point x="110" y="426"/>
    </contour>
    <contour>
      <point x="525" y="537" type="line"/>
      <point x="649" y="537" type="line"/>
      <point x="649" y="-56" type="line"/>
      <point x="525" y="0" type="line"/>
    </contour>
  </outline>
</glyph>
<glyph name="dvE" format="1">
  <advance width="553"/>
  <outline>
    <contour>
      <point x="369" y="662" type="move" name="abvm.bindu"/>
    </contour>
    <contour>
      <point x="-7" y="522" type="line"/>
      <point x="61" y="522" type="line"/>
      <point x="63" y="423"/>
      <point x="63" y="269"/>
      <point x="67" y="261" type="curve" smooth="yes"/>
      <point x="71" y="253"/>
      <point x="186" y="167"/>
      <point x="256" y="109" type="curve" smooth="yes"/>
      <point x="333" y="45"/>
      <point x="311" y="-20"/>
      <point x="276" y="-37" type="curve"/>
      <point x="371" y="-109" type="line"/>
      <point x="420" y="-63"/>
      <point x="422" y="25"/>
      <point x="342" y="83" type="curve" smooth="yes"/>
      <point x="290" y="121"/>
      <point x="213" y="181"/>
      <point x="195" y="212" type="curve" smooth="yes"/>
      <point x="171" y="253"/>
      <point x="181" y="409"/>
      <point x="182" y="522" type="curve"/>
      <point x="371" y="522" type="line"/>
      <point x="371" y="281" type="line" smooth="yes"/>
      <point x="371" y="249"/>
      <point x="319" y="218"/>
      <point x="303" y="211" type="curve"/>
      <point x="395" y="138" type="line"/>
      <point x="440" y="166"/>
      <point x="495" y="218"/>
      <point x="495" y="246" type="curve" smooth="yes"/>
      <point x="495" y="522" type="line"/>
      <point x="561" y="522" type="line"/>
      <point x="561" y="619" type="line"/>
      <point x="-7" y="619" type="line"/>
    </contour>
  </outline>
</glyph>
<glyph name="dvEyelash" format="1">
  <advance width="354"/>
  <outline>
    <contour>
      <point x="48" y="314" type="line"/>
      <point x="48" y="314"/>
      <point x="121" y="249"/>
      <point x="204" y="249" type="curve" smooth="yes"/>
      <point x="270" y="249"/>
      <point x="379" y="367"/>
      <point x="379" y="367" type="curve"/>
      <point x="450" y="292" type="line"/>
      <point x="450" y="292"/>
      <point x="330" y="165"/>
      <point x="239" y="167" type="curve" smooth="yes"/>
      <point x="173" y="168"/>
      <point x="22" y="287"/>
      <point x="22" y="287" type="curve"/>
    </contour>
    <contour>
      <point x="-8" y="619" type="line"/>
      <point x="491" y="619" type="line"/>
      <point x="491" y="523" type="line"/>
      <point x="-8" y="523" type="line"/>
    </contour>
  </outline>
</glyph>
<glyph name="dvFive" format="1">
  <advance width="550"/>
  <outline>
    <contour>
      <point x="578" y="32" type="line"/>
      <point x="463" y="175" type="line"/>
      <point x="516" y="228" type="line" smooth="yes"/>
      <point x="546" y="258"/>
      <point x="529" y="304"/>
      <point x="502" y="336" type="curve" smooth="yes"/>
      <point x="470" y="374"/>
      <point x="435" y="402"/>
      <point x="388" y="372" type="curve" smooth="yes"/>
      <point x="370" y="361"/>
      <point x="333" y="333"/>
      <point x="318" y="303" type="curve" smooth="yes"/>
      <point x="314" y="295"/>
      <point x="319" y="284"/>
      <point x="353" y="240" type="curve"/>
      <point x="112" y="6"/>
      <point x="54" y="340"/>
      <point x="350" y="554" type="curve"/>
      <point x="249" y="628" type="line"/>
      <point x="79" y="492"/>
      <point x="-20" y="286"/>
      <point x="55" y="208" type="curve"/>
      <point x="106" y="153"/>
      <point x="130" y="132"/>
      <point x="196" y="85" type="curve" smooth="yes"/>
      <point x="281" y="24"/>
      <point x="359" y="77"/>
      <point x="429" y="142" type="curve"/>
      <point x="539" y="5" type="line"/>
    </contour>
  </outline>
</glyph>
<glyph name="dvFour" format="1">
  <advance width="483"/>
  <outline>
    <contour>
      <point x="36" y="165" type="curve" smooth="yes"/>
      <point x="6" y="207"/>
      <point x="89" y="284"/>
      <point x="181" y="373" type="curve"/>
      <point x="134" y="415"/>
      <point x="34" y="511"/>
      <point x="10" y="565" type="curve"/>
      <point x="50" y="609" type="line"/>
      <point x="80" y="525"/>
      <point x="173" y="440"/>
      <point x="213" y="405" type="curve"/>
      <point x="278" y="470"/>
      <point x="341" y="540"/>
      <point x="365" y="608" type="curve"/>
      <point x="445" y="532" type="line"/>
      <point x="428" y="461"/>
      <point x="361" y="396"/>
      <point x="296" y="335" type="curve"/>
      <point x="349" y="290"/>
      <point x="412" y="236"/>
      <point x="422" y="220" type="curve" smooth="yes"/>
      <point x="453" y="173"/>
      <point x="357" y="-18"/>
      <point x="262" y="-18" type="curve" smooth="yes"/>
      <point x="237" y="-18"/>
      <point x="55" y="137"/>
    </contour>
    <contour>
      <point x="203" y="83" type="curve" smooth="yes"/>
      <point x="249" y="50"/>
      <point x="368" y="154"/>
      <point x="255" y="298" type="curve"/>
      <point x="171" y="219"/>
      <point x="110" y="148"/>
    </contour>
  </outline>
</glyph>
<glyph name="dvFive" format="1">
  <advance width="550"/>
  <outline>
    <contour>
      <point x="323" y="-83" type="line"/>
      <point x="338" y="-16"/>
      <point x="349" y="42"/>
      <point x="355" y="92" type="curve"/>
      <point x="309" y="75"/>
      <point x="257" y="76"/>
      <point x="207" y="108" type="curve" smooth="yes"/>
      <point x="137" y="151"/>
      <point x="111" y="181"/>
      <point x="60" y="236" type="curve"/>
      <point x="-15" y="314"/>
      <point x="79" y="492"/>
      <point x="249" y="628" type="curve"/>
      <point x="344" y="560" type="line"/>
      <point x="198" y="454"/>
      <point x="104" y="259"/>
      <point x="191" y="187" type="curve" smooth="yes"/>
      <point x="248" y="139"/>
      <point x="320" y="185"/>
      <point x="368" y="246" type="curve"/>
      <point x="369" y="296"/>
      <point x="367" y="324"/>
      <point x="371" y="329" type="curve" smooth="yes"/>
      <point x="386" y="348"/>
      <point x="501" y="342"/>
      <point x="507" y="328" type="curve" smooth="yes"/>
      <point x="523" y="290"/>
      <point x="515" y="252"/>
      <point x="491" y="219" type="curve" smooth="yes"/>
      <point x="480" y="204" type="line"/>
      <point x="474" y="193"/>
      <point x="467" y="182"/>
      <point x="459" y="172" type="curve"/>
      <point x="435" y="-122" type="line"/>
    </contour>
  </outline>
</glyph>
<glyph name="dvGA" format="1">
  <advance width="653"/>
  <outline>
    <contour>
      <point x="153" y="526" type="line"/>
      <point x="215" y="448"/>
      <point x="224" y="298"/>
      <point x="164" y="212" type="curve"/>
      <point x="158" y="237"/>
      <point x="157" y="250"/>
      <point x="145" y="261" type="curve" smooth="yes"/>
      <point x="137" y="268"/>
      <point x="88" y="299"/>
      <point x="84" y="298" type="curve" smooth="yes"/>
      <point x="48" y="285"/>
      <point x="32" y="193"/>
      <point x="44" y="165" type="curve" smooth="yes"/>
      <point x="53" y="145"/>
      <point x="116" y="70"/>
      <point x="141" y="70" type="curve" smooth="yes"/>
      <point x="315" y="70"/>
      <point x="388" y="330"/>
      <point x="205" y="526" type="curve"/>
    </contour>
    <contour>
      <point x="-5" y="522" type="line"/>
      <point x="657" y="522" type="line"/>
      <point x="657" y="619" type="line"/>
      <point x="-5" y="619" type="line"/>
    </contour>
    <contour>
      <point x="451" y="0" type="line"/>
      <point x="575" y="-56" type="line"/>
      <point x="575" y="537" type="line"/>
      <point x="451" y="537" type="line"/>
    </contour>
  </outline>
</glyph>
<glyph name="dvGH_MA" format="1">
  <advance width="1071"/>
  <outline>
    <contour>
      <point x="382" y="329" type="line"/>
      <point x="274" y="310"/>
      <point x="141" y="229"/>
      <point x="204" y="169" type="curve" smooth="yes"/>
      <point x="240" y="135"/>
      <point x="364" y="171"/>
      <point x="435" y="229" type="curve"/>
      <point x="471" y="141" type="line"/>
      <point x="379" y="68"/>
      <point x="262" y="52"/>
      <point x="220" y="92" type="curve" smooth="yes"/>
      <point x="161" y="148"/>
      <point x="142" y="159"/>
      <point x="88" y="220" type="curve" smooth="yes"/>
      <point x="57" y="254"/>
      <point x="103" y="308"/>
      <point x="163" y="348" type="curve"/>
      <point x="146" y="360"/>
      <point x="123" y="379"/>
      <point x="89" y="414" type="curve" smooth="yes"/>
      <point x="46" y="458"/>
      <point x="49" y="485"/>
      <point x="113" y="522" type="curve"/>
      <point x="-27" y="522" type="line"/>
      <point x="-27" y="619" type="line"/>
      <point x="700" y="619" type="line"/>
      <point x="700" y="522" type="line"/>
      <point x="304" y="522" type="line"/>
      <point x="194" y="477"/>
      <point x="122" y="444"/>
      <point x="194" y="368" type="curve"/>
      <point x="237" y="392"/>
      <point x="281" y="408"/>
      <point x="308" y="406" type="curve"/>
    </contour>
    <component base="dvMA" xOffset="390"/>
  </outline>
</glyph>
<glyph name="dvGH_NA" format="1">
  <advance width="708"/>
  <outline>
    <contour>
      <point x="526" y="184" type="line"/>
      <point x="108" y="59" type="line"/>
      <point x="53" y="23"/>
      <point x="29" y="-62"/>
      <point x="93" y="-104" type="curve"/>
      <point x="136" y="-130"/>
      <point x="166" y="-144"/>
      <point x="220" y="-169" type="curve"/>
      <point x="268" y="-188"/>
      <point x="379" y="-57"/>
      <point x="288" y="15" type="curve"/>
      <point x="553" y="92" type="line"/>
    </contour>
    <component base="dvGHA"/>
  </outline>
</glyph>
<glyph name="dvG_BH_YA" format="1">
  <advance width="1416"/>
  <outline>
    <contour>
      <point x="680" y="523" type="line"/>
      <point x="968" y="523" type="line"/>
      <point x="968" y="619" type="line"/>
      <point x="641" y="619" type="line"/>
    </contour>
    <component base="dvG" xOffset="1"/>
    <component base="dvBH" xOffset="327"/>
    <component base="dvYA" xOffset="744"/>
  </outline>
</glyph>
<glyph name="dvG_DA_mU" format="1">
  <advance width="952"/>
  <outline>
    <contour>
      <point x="769" y="619" type="move" name="abvm.bindu"/>
    </contour>
    <contour>
      <point x="751" y="619" type="move" name="abvm.e"/>
    </contour>
    <component base="dvmU" xOffset="844"/>
    <component base="dvG"/>
    <component base="dvDA" xOffset="350"/>
  </outline>
</glyph>
<glyph name="dvG_DH_YA" format="1">
  <advance width="1378"/>
  <outline>
    <contour>
      <point x="636" y="380" type="line"/>
      <point x="607" y="382"/>
      <point x="556" y="367"/>
      <point x="509" y="345" type="curve"/>
      <point x="491" y="359"/>
      <point x="478" y="373"/>
      <point x="468" y="386" type="curve"/>
      <point x="575" y="371"/>
      <point x="718" y="478"/>
      <point x="648" y="542" type="curve" smooth="yes"/>
      <point x="621" y="566"/>
      <point x="607" y="583"/>
      <point x="539" y="625" type="curve"/>
      <point x="531" y="629"/>
      <point x="514" y="627"/>
      <point x="493" y="619" type="curve"/>
      <point x="-5" y="619" type="line"/>
      <point x="-5" y="523" type="line"/>
      <point x="155" y="523" type="line"/>
      <point x="215" y="444"/>
      <point x="223" y="297"/>
      <point x="164" y="212" type="curve"/>
      <point x="158" y="237"/>
      <point x="157" y="250"/>
      <point x="145" y="261" type="curve" smooth="yes"/>
      <point x="137" y="268"/>
      <point x="88" y="299"/>
      <point x="84" y="298" type="curve" smooth="yes"/>
      <point x="48" y="285"/>
      <point x="32" y="193"/>
      <point x="44" y="165" type="curve" smooth="yes"/>
      <point x="53" y="145"/>
      <point x="116" y="70"/>
      <point x="141" y="70" type="curve" smooth="yes"/>
      <point x="314" y="70"/>
      <point x="387" y="327"/>
      <point x="207" y="523" type="curve"/>
      <point x="364" y="523" type="line"/>
      <point x="343" y="492"/>
      <point x="338" y="460"/>
      <point x="367" y="433" type="curve"/>
      <point x="430" y="371"/>
      <point x="451" y="349"/>
      <point x="477" y="329" type="curve"/>
      <point x="421" y="296"/>
      <point x="380" y="253"/>
      <point x="408" y="221" type="curve" smooth="yes"/>
      <point x="462" y="160"/>
      <point x="481" y="149"/>
      <point x="541" y="93" type="curve"/>
      <point x="587" y="48"/>
      <point x="737" y="82"/>
      <point x="830" y="178" type="curve"/>
      <point x="890" y="124"/>
      <point x="968" y="71"/>
      <point x="1034" y="71" type="curve" smooth="yes"/>
      <point x="1100" y="71"/>
      <point x="1158" y="124"/>
      <point x="1195" y="167" type="curve"/>
      <point x="1195" y="1" type="line"/>
      <point x="1319" y="-55" type="line"/>
      <point x="1319" y="523" type="line"/>
      <point x="1395" y="523" type="line"/>
      <point x="1395" y="619" type="line"/>
      <point x="660" y="619" type="line"/>
      <point x="699" y="523" type="line"/>
      <point x="876" y="523" type="line"/>
      <point x="916" y="480"/>
      <point x="912" y="442"/>
      <point x="833" y="370" type="curve" smooth="yes"/>
      <point x="799" y="338"/>
      <point x="733" y="295"/>
      <point x="736" y="284" type="curve" smooth="yes"/>
      <point x="738" y="278"/>
      <point x="749" y="263"/>
      <point x="765" y="244" type="curve"/>
      <point x="688" y="175"/>
      <point x="564" y="132"/>
      <point x="525" y="170" type="curve" smooth="yes"/>
      <point x="461" y="230"/>
      <point x="594" y="294"/>
      <point x="702" y="313" type="curve"/>
    </contour>
    <contour>
      <point x="851" y="231" type="curve"/>
      <point x="939" y="309"/>
      <point x="1012" y="364"/>
      <point x="1007" y="426" type="curve" smooth="yes"/>
      <point x="1004" y="455"/>
      <point x="979" y="492"/>
      <point x="942" y="523" type="curve"/>
      <point x="1195" y="523" type="line"/>
      <point x="1195" y="339" type="line"/>
      <point x="1128" y="209"/>
      <point x="976" y="101"/>
    </contour>
    <contour>
      <point x="591" y="539" type="curve" smooth="yes"/>
      <point x="611" y="521"/>
      <point x="529" y="441"/>
      <point x="446" y="444" type="curve"/>
      <point x="445" y="520"/>
      <point x="561" y="564"/>
    </contour>
  </outline>
</glyph>
<glyph name="dvG_NA" format="1">
  <advance width="694"/>
  <outline>
    <contour>
      <point x="-5" y="523" type="line"/>
      <point x="155" y="523" type="line"/>
      <point x="215" y="444"/>
      <point x="223" y="297"/>
      <point x="164" y="212" type="curve"/>
      <point x="158" y="237"/>
      <point x="157" y="250"/>
      <point x="145" y="261" type="curve" smooth="yes"/>
      <point x="137" y="268"/>
      <point x="88" y="299"/>
      <point x="84" y="298" type="curve" smooth="yes"/>
      <point x="48" y="285"/>
      <point x="32" y="193"/>
      <point x="44" y="165" type="curve" smooth="yes"/>
      <point x="53" y="145"/>
      <point x="116" y="70"/>
      <point x="141" y="70" type="curve" smooth="yes"/>
      <point x="314" y="70"/>
      <point x="387" y="327"/>
      <point x="207" y="523" type="curve"/>
      <point x="491" y="523" type="line"/>
      <point x="491" y="193" type="line"/>
      <point x="399" y="150"/>
      <point x="248" y="78"/>
      <point x="237" y="71" type="curve"/>
      <point x="194" y="22"/>
      <point x="182" y="-65"/>
      <point x="253" y="-92" type="curve"/>
      <point x="299" y="-111"/>
      <point x="331" y="-120"/>
      <point x="390" y="-133" type="curve" smooth="yes"/>
      <point x="440" y="-144"/>
      <point x="526" y="8"/>
      <point x="422" y="62" type="curve"/>
      <point x="491" y="92" type="line"/>
      <point x="491" y="0" type="line"/>
      <point x="615" y="-56" type="line"/>
      <point x="615" y="523" type="line"/>
      <point x="697" y="523" type="line"/>
      <point x="697" y="619" type="line"/>
      <point x="-5" y="619" type="line"/>
    </contour>
    <contour>
      <point x="373" y="37" type="curve"/>
      <point x="386" y="4"/>
      <point x="378" y="-82"/>
      <point x="318" y="-68" type="curve" smooth="yes"/>
      <point x="256" y="-53"/>
      <point x="322" y="17"/>
    </contour>
  </outline>
</glyph>
<glyph name="dvG_R" format="1">
  <advance width="454"/>
  <outline>
    <contour>
      <point x="-5" y="523" type="line"/>
      <point x="155" y="523" type="line"/>
      <point x="215" y="444"/>
      <point x="223" y="297"/>
      <point x="164" y="212" type="curve"/>
      <point x="158" y="237"/>
      <point x="157" y="250"/>
      <point x="145" y="261" type="curve" smooth="yes"/>
      <point x="137" y="268"/>
      <point x="88" y="299"/>
      <point x="84" y="298" type="curve" smooth="yes"/>
      <point x="48" y="285"/>
      <point x="32" y="193"/>
      <point x="44" y="165" type="curve" smooth="yes"/>
      <point x="53" y="145"/>
      <point x="116" y="70"/>
      <point x="141" y="70" type="curve" smooth="yes"/>
      <point x="314" y="70"/>
      <point x="387" y="327"/>
      <point x="207" y="523" type="curve"/>
      <point x="657" y="523" type="line"/>
      <point x="657" y="619" type="line"/>
      <point x="-5" y="619" type="line"/>
    </contour>
    <contour>
      <point x="455" y="203" type="line"/>
      <point x="393" y="130"/>
      <point x="311" y="68"/>
      <point x="222" y="2" type="curve"/>
      <point x="306" y="-64" type="line"/>
      <point x="408" y="17"/>
      <point x="455" y="104"/>
      <point x="486" y="154" type="curve"/>
    </contour>
  </outline>
</glyph>
<glyph name="dvG_RA" format="1">
  <advance width="653"/>
  <outline>
    <contour>
      <point x="486" y="154" type="line"/>
      <point x="455" y="104"/>
      <point x="408" y="17"/>
      <point x="306" y="-64" type="curve"/>
      <point x="222" y="2" type="line"/>
      <point x="311" y="68"/>
      <point x="393" y="130"/>
      <point x="455" y="203" type="curve"/>
    </contour>
    <component base="dvGA"/>
  </outline>
</glyph>
<glyph name="dvGx_RA" format="1">
  <advance width="703"/>
  <outline>
    <contour>
      <point x="537" y="154" type="line"/>
      <point x="506" y="104"/>
      <point x="459" y="17"/>
      <point x="357" y="-64" type="curve"/>
      <point x="273" y="2" type="line"/>
      <point x="362" y="68"/>
      <point x="444" y="130"/>
      <point x="506" y="203" type="curve"/>
    </contour>
    <contour>
      <point x="502" y="537" type="line"/>
      <point x="626" y="537" type="line"/>
      <point x="626" y="-56" type="line"/>
      <point x="502" y="0" type="line"/>
    </contour>
    <contour>
      <point x="-14" y="619" type="line"/>
      <point x="708" y="619" type="line"/>
      <point x="708" y="523" type="line"/>
      <point x="-14" y="523" type="line"/>
    </contour>
    <contour>
      <point x="256" y="526" type="line"/>
      <point x="439" y="330"/>
      <point x="366" y="90"/>
      <point x="192" y="90" type="curve" smooth="yes"/>
      <point x="167" y="90"/>
      <point x="104" y="165"/>
      <point x="95" y="185" type="curve" smooth="yes"/>
      <point x="83" y="213"/>
      <point x="99" y="305"/>
      <point x="135" y="318" type="curve" smooth="yes"/>
      <point x="139" y="319"/>
      <point x="188" y="288"/>
      <point x="196" y="281" type="curve" smooth="yes"/>
      <point x="208" y="270"/>
      <point x="209" y="257"/>
      <point x="215" y="232" type="curve"/>
      <point x="275" y="318"/>
      <point x="266" y="448"/>
      <point x="204" y="526" type="curve"/>
    </contour>
    <component base="dvNukta" xOffset="449" yOffset="120"/>
  </outline>
</glyph>
<glyph name="dvHA" format="1">
  <advance width="548"/>
  <outline>
    <contour>
      <point x="419" y="619" type="move" name="abvm.bindu"/>
    </contour>
    <contour>
      <point x="308" y="-141" type="move" name="blwm.virama"/>
    </contour>
    <contour>
      <point x="404" y="619" type="move" name="abvm.e"/>
    </contour>
    <contour>
      <point x="268" y="-119" type="move" name="blwm.u"/>
    </contour>
    <contour>
      <point x="-15" y="619" type="line"/>
      <point x="555" y="619" type="line"/>
      <point x="555" y="523" type="line"/>
      <point x="450" y="523" type="line"/>
      <point x="450" y="381" type="line"/>
      <point x="229" y="381" type="line" smooth="yes"/>
      <point x="148" y="381"/>
      <point x="123" y="283"/>
      <point x="184" y="243" type="curve"/>
      <point x="243" y="281"/>
      <point x="305" y="310"/>
      <point x="336" y="309" type="curve" smooth="yes"/>
      <point x="389" y="308"/>
      <point x="521" y="163"/>
      <point x="522" y="138" type="curve" smooth="yes"/>
      <point x="525" y="67"/>
      <point x="445" y="6"/>
      <point x="410" y="-8" type="curve"/>
      <point x="337" y="67" type="line"/>
      <point x="395" y="92"/>
      <point x="450" y="153"/>
      <point x="413" y="198" type="curve" smooth="yes"/>
      <point x="370" y="251"/>
      <point x="174" y="137"/>
      <point x="178" y="47" type="curve" smooth="yes"/>
      <point x="181" y="-22"/>
      <point x="278" y="-105"/>
      <point x="368" y="-164" type="curve"/>
      <point x="339" y="-199" type="line"/>
      <point x="211" y="-108"/>
      <point x="58" y="-3"/>
      <point x="55" y="94" type="curve" smooth="yes"/>
      <point x="54" y="131"/>
      <point x="96" y="178"/>
      <point x="150" y="219" type="curve"/>
      <point x="125" y="241"/>
      <point x="102" y="263"/>
      <point x="84" y="283" type="curve" smooth="yes"/>
      <point x="42" y="328"/>
      <point x="101" y="452"/>
      <point x="155" y="455" type="curve" smooth="yes"/>
      <point x="339" y="466" type="line"/>
      <point x="339" y="523" type="line"/>
      <point x="-15" y="523" type="line"/>
    </contour>
  </outline>
</glyph>
<glyph name="dvHA_mUU" format="1">
  <advance width="518"/>
  <outline>
    <contour>
      <point x="422" y="662" type="move" name="abvm.bindu"/>
    </contour>
    <contour>
      <point x="422" y="672" type="move" name="abvm.e"/>
    </contour>
    <contour>
      <point x="-13" y="523" type="line"/>
      <point x="311" y="523" type="line"/>
      <point x="311" y="466" type="line"/>
      <point x="127" y="455" type="line" smooth="yes"/>
      <point x="73" y="452"/>
      <point x="14" y="328"/>
      <point x="56" y="283" type="curve" smooth="yes"/>
      <point x="74" y="263"/>
      <point x="97" y="241"/>
      <point x="122" y="219" type="curve"/>
      <point x="73" y="181"/>
      <point x="35" y="138"/>
      <point x="36" y="102" type="curve" smooth="yes"/>
      <point x="38" y="41"/>
      <point x="105" y="-15"/>
      <point x="193" y="-70" type="curve"/>
      <point x="90" y="-91"/>
      <point x="1" y="-206"/>
      <point x="74" y="-283" type="curve" smooth="yes"/>
      <point x="121" y="-332"/>
      <point x="192" y="-401"/>
      <point x="220" y="-407" type="curve" smooth="yes"/>
      <point x="243" y="-413"/>
      <point x="326" y="-387"/>
      <point x="381" y="-354" type="curve"/>
      <point x="319" y="-280" type="line"/>
      <point x="269" y="-304" type="line" smooth="yes"/>
      <point x="188" y="-343"/>
      <point x="113" y="-240"/>
      <point x="188" y="-180" type="curve" smooth="yes"/>
      <point x="279" y="-107"/>
      <point x="373" y="-202"/>
      <point x="559" y="-343" type="curve"/>
      <point x="577" y="-322" type="line"/>
      <point x="518" y="-264"/>
      <point x="442" y="-197"/>
      <point x="376" y="-147" type="curve"/>
      <point x="361" y="-134"/>
      <point x="342" y="-120"/>
      <point x="321" y="-106" type="curve" smooth="yes"/>
      <point x="286" y="-84" type="line" smooth="yes"/>
      <point x="214" y="-39"/>
      <point x="138" y="8"/>
      <point x="140" y="54" type="curve" smooth="yes"/>
      <point x="142" y="129"/>
      <point x="345" y="255"/>
      <point x="385" y="198" type="curve" smooth="yes"/>
      <point x="415" y="156"/>
      <point x="356" y="96"/>
      <point x="298" y="71" type="curve"/>
      <point x="382" y="-8" type="line"/>
      <point x="417" y="6"/>
      <point x="497" y="67"/>
      <point x="494" y="138" type="curve" smooth="yes"/>
      <point x="493" y="163"/>
      <point x="361" y="308"/>
      <point x="308" y="309" type="curve" smooth="yes"/>
      <point x="275" y="310"/>
      <point x="208" y="280"/>
      <point x="149" y="239" type="curve"/>
      <point x="86" y="278"/>
      <point x="120" y="381"/>
      <point x="201" y="381" type="curve" smooth="yes"/>
      <point x="422" y="381" type="line"/>
      <point x="422" y="523" type="line"/>
      <point x="527" y="523" type="line"/>
      <point x="527" y="619" type="line"/>
      <point x="-13" y="619" type="line"/>
    </contour>
  </outline>
</glyph>
<glyph name="dvHA_mU" format="1">
  <advance width="515"/>
  <outline>
    <contour>
      <point x="395" y="662" type="move" name="abvm.bindu"/>
    </contour>
    <contour>
      <point x="375" y="618" type="move" name="abvm.e"/>
    </contour>
    <contour>
      <point x="241" y="-82" type="curve" smooth="yes"/>
      <point x="208" y="-80"/>
      <point x="163" y="-117"/>
      <point x="106" y="-151" type="curve"/>
      <point x="186" y="-225" type="line"/>
      <point x="270" y="-172" type="line" smooth="yes"/>
      <point x="323" y="-139"/>
      <point x="395" y="-210"/>
      <point x="373" y="-267" type="curve" smooth="yes"/>
      <point x="332" y="-376"/>
      <point x="160" y="-372"/>
      <point x="17" y="-198" type="curve"/>
      <point x="-16" y="-223" type="line"/>
      <point x="78" y="-338"/>
      <point x="178" y="-444"/>
      <point x="317" y="-425" type="curve" smooth="yes"/>
      <point x="440" y="-409"/>
      <point x="542" y="-294"/>
      <point x="451" y="-209" type="curve" smooth="yes"/>
      <point x="402" y="-163"/>
      <point x="287" y="-85"/>
    </contour>
    <contour>
      <point x="154" y="236" type="line"/>
      <point x="84" y="273"/>
      <point x="118" y="381"/>
      <point x="201" y="381" type="curve" smooth="yes"/>
      <point x="422" y="381" type="line"/>
      <point x="422" y="544" type="line"/>
      <point x="311" y="544" type="line"/>
      <point x="311" y="466" type="line"/>
      <point x="127" y="455" type="line" smooth="yes"/>
      <point x="73" y="452"/>
      <point x="14" y="328"/>
      <point x="56" y="283" type="curve" smooth="yes"/>
      <point x="77" y="260"/>
      <point x="104" y="235"/>
      <point x="133" y="210" type="curve"/>
    </contour>
    <contour>
      <point x="-13" y="523" type="line"/>
      <point x="527" y="523" type="line"/>
      <point x="527" y="619" type="line"/>
      <point x="-13" y="619" type="line"/>
    </contour>
    <contour>
      <point x="308" y="309" type="curve" smooth="yes"/>
      <point x="242" y="311"/>
      <point x="34" y="185"/>
      <point x="36" y="102" type="curve" smooth="yes"/>
      <point x="39" y="5"/>
      <point x="204" y="-99"/>
      <point x="355" y="-183" type="curve"/>
      <point x="377" y="-151" type="line"/>
      <point x="294" y="-94"/>
      <point x="137" y="-15"/>
      <point x="140" y="54" type="curve"/>
      <point x="142" y="129"/>
      <point x="345" y="255"/>
      <point x="385" y="198" type="curve" smooth="yes"/>
      <point x="415" y="156"/>
      <point x="356" y="96"/>
      <point x="298" y="71" type="curve"/>
      <point x="382" y="-8" type="line"/>
      <point x="417" y="6"/>
      <point x="497" y="67"/>
      <point x="494" y="138" type="curve" smooth="yes"/>
      <point x="493" y="163"/>
      <point x="361" y="308"/>
    </contour>
  </outline>
</glyph>
<glyph name="dvH" format="1">
  <advance width="461"/>
  <outline>
    <contour>
      <point x="308" y="309" type="curve" smooth="yes"/>
      <point x="361" y="308"/>
      <point x="582" y="239"/>
      <point x="630" y="209" type="curve"/>
      <point x="619" y="168" type="line"/>
      <point x="406" y="259"/>
      <point x="162" y="189"/>
      <point x="156" y="45" type="curve" smooth="yes"/>
      <point x="154" y="-24"/>
      <point x="250" y="-105"/>
      <point x="340" y="-164" type="curve"/>
      <point x="311" y="-199" type="line"/>
      <point x="183" y="-108"/>
      <point x="30" y="-3"/>
      <point x="27" y="94" type="curve" smooth="yes"/>
      <point x="25" y="177"/>
      <point x="242" y="311"/>
    </contour>
    <contour>
      <point x="-43" y="619" type="line"/>
      <point x="527" y="619" type="line"/>
      <point x="527" y="523" type="line"/>
      <point x="-43" y="523" type="line"/>
    </contour>
    <contour>
      <point x="133" y="210" type="line"/>
      <point x="104" y="235"/>
      <point x="77" y="260"/>
      <point x="56" y="283" type="curve" smooth="yes"/>
      <point x="14" y="328"/>
      <point x="73" y="452"/>
      <point x="127" y="455" type="curve" smooth="yes"/>
      <point x="311" y="466" type="line"/>
      <point x="311" y="544" type="line"/>
      <point x="422" y="544" type="line"/>
      <point x="422" y="381" type="line"/>
      <point x="201" y="381" type="line" smooth="yes"/>
      <point x="118" y="381"/>
      <point x="93" y="276"/>
      <point x="163" y="239" type="curve"/>
    </contour>
  </outline>
</glyph>
<glyph name="dvHA_mU" format="1">
  <advance width="548"/>
  <outline>
    <contour>
      <point x="366" y="620" type="move" name="abvm.bindu"/>
    </contour>
    <contour>
      <point x="375" y="618" type="move" name="abvm.e"/>
    </contour>
    <contour>
      <point x="333" y="-139" type="curve" smooth="yes"/>
      <point x="351" y="-148"/>
      <point x="462" y="-214"/>
      <point x="508" y="-262" type="curve" smooth="yes"/>
      <point x="594" y="-352"/>
      <point x="507" y="-458"/>
      <point x="384" y="-478" type="curve" smooth="yes"/>
      <point x="246" y="-500"/>
      <point x="143" y="-397"/>
      <point x="46" y="-285" type="curve"/>
      <point x="78" y="-259" type="line"/>
      <point x="226" y="-429"/>
      <point x="406" y="-432"/>
      <point x="436" y="-319" type="curve" smooth="yes"/>
      <point x="451" y="-262"/>
      <point x="387" y="-198"/>
      <point x="334" y="-231" type="curve" smooth="yes"/>
      <point x="248" y="-282" type="line"/>
      <point x="166" y="-210" type="line"/>
      <point x="222" y="-174"/>
      <point x="303" y="-124"/>
    </contour>
    <component base="dvHA"/>
  </outline>
</glyph>
<glyph name="dvH_NA" format="1">
  <advance width="674"/>
  <outline>
    <contour>
      <point x="501" y="662" type="move" name="abvm.bindu"/>
    </contour>
    <contour>
      <point x="392" y="-322" type="move" name="blwm.virama"/>
    </contour>
    <contour>
      <point x="501" y="672" type="move" name="abvm.e"/>
    </contour>
    <contour>
      <point x="392" y="-332" type="move" name="blwm.u"/>
    </contour>
    <contour>
      <point x="-13" y="619" type="line"/>
      <point x="680" y="619" type="line"/>
      <point x="680" y="523" type="line"/>
      <point x="-13" y="523" type="line"/>
    </contour>
    <contour>
      <point x="148" y="200" type="line"/>
      <point x="119" y="225"/>
      <point x="77" y="260"/>
      <point x="56" y="283" type="curve" smooth="yes"/>
      <point x="14" y="328"/>
      <point x="73" y="452"/>
      <point x="127" y="455" type="curve" smooth="yes"/>
      <point x="441" y="466" type="line"/>
      <point x="441" y="544" type="line"/>
      <point x="552" y="544" type="line"/>
      <point x="552" y="381" type="line"/>
      <point x="201" y="381" type="line" smooth="yes"/>
      <point x="118" y="381"/>
      <point x="99" y="263"/>
      <point x="169" y="226" type="curve"/>
    </contour>
    <contour>
      <point x="399" y="327" type="curve" smooth="yes"/>
      <point x="452" y="326"/>
      <point x="676" y="40"/>
      <point x="663" y="18" type="curve" smooth="yes"/>
      <point x="652" y="-1"/>
      <point x="617" y="-56"/>
      <point x="570" y="-97" type="curve"/>
      <point x="508" y="-15" type="line"/>
      <point x="557" y="16"/>
      <point x="578" y="77"/>
      <point x="483" y="170" type="curve" smooth="yes"/>
      <point x="322" y="330"/>
      <point x="10" y="141"/>
      <point x="209" y="-96" type="curve" smooth="yes"/>
      <point x="241" y="-134"/>
      <point x="320" y="-221"/>
      <point x="456" y="-163" type="curve"/>
      <point x="521" y="-243" type="line"/>
      <point x="453" y="-267"/>
      <point x="322" y="-276"/>
      <point x="304" y="-262" type="curve" smooth="yes"/>
      <point x="227" y="-203"/>
      <point x="38" y="25"/>
      <point x="36" y="102" type="curve" smooth="yes"/>
      <point x="34" y="185"/>
      <point x="333" y="329"/>
    </contour>
    <contour>
      <point x="557" y="84" type="line"/>
      <point x="370" y="88" type="line" smooth="yes"/>
      <point x="152" y="90"/>
      <point x="401" y="-113"/>
      <point x="370" y="91" type="curve"/>
      <point x="428" y="93" type="line"/>
      <point x="521" y="-28"/>
      <point x="388" y="-93"/>
      <point x="346" y="-67" type="curve" smooth="yes"/>
      <point x="299" y="-38"/>
      <point x="269" y="-21"/>
      <point x="234" y="11" type="curve" smooth="yes"/>
      <point x="184" y="57"/>
      <point x="199" y="147"/>
      <point x="255" y="165" type="curve" smooth="yes"/>
      <point x="266" y="168"/>
      <point x="154" y="166"/>
      <point x="557" y="165" type="curve"/>
    </contour>
  </outline>
</glyph>
<glyph name="dvH_NNA" format="1">
  <advance width="707"/>
  <outline>
    <contour>
      <point x="477" y="662" type="move" name="abvm.bindu"/>
    </contour>
    <contour>
      <point x="357" y="-322" type="move" name="blwm.virama"/>
    </contour>
    <contour>
      <point x="477" y="672" type="move" name="abvm.e"/>
    </contour>
    <contour>
      <point x="357" y="-332" type="move" name="blwm.u"/>
    </contour>
    <contour>
      <point x="419" y="327" type="line"/>
      <point x="472" y="326"/>
      <point x="696" y="40"/>
      <point x="683" y="18" type="curve" smooth="yes"/>
      <point x="672" y="-1"/>
      <point x="657" y="-26"/>
      <point x="612" y="-68" type="curve"/>
      <point x="538" y="-1" type="line"/>
      <point x="578" y="43"/>
      <point x="596" y="74"/>
      <point x="514" y="159" type="curve"/>
      <point x="514" y="55" type="line" smooth="yes"/>
      <point x="514" y="-34"/>
      <point x="396" y="-100"/>
      <point x="320" y="-60" type="curve" smooth="yes"/>
      <point x="299" y="-49"/>
      <point x="260" y="-14"/>
      <point x="221" y="35" type="curve" smooth="yes"/>
      <point x="217" y="39"/>
      <point x="215" y="95"/>
      <point x="213" y="146" type="curve"/>
      <point x="161" y="86"/>
      <point x="142" y="3"/>
      <point x="199" y="-66" type="curve" smooth="yes"/>
      <point x="230" y="-104"/>
      <point x="310" y="-191"/>
      <point x="446" y="-133" type="curve"/>
      <point x="511" y="-213" type="line"/>
      <point x="443" y="-237"/>
      <point x="312" y="-246"/>
      <point x="294" y="-232" type="curve" smooth="yes"/>
      <point x="217" y="-173"/>
      <point x="38" y="25"/>
      <point x="36" y="102" type="curve" smooth="yes"/>
      <point x="35" y="133"/>
      <point x="78" y="173"/>
      <point x="135" y="211" type="curve"/>
      <point x="107" y="235"/>
      <point x="74" y="263"/>
      <point x="56" y="283" type="curve" smooth="yes"/>
      <point x="14" y="328"/>
      <point x="73" y="452"/>
      <point x="127" y="455" type="curve"/>
      <point x="441" y="466" type="line"/>
      <point x="441" y="523" type="line"/>
      <point x="-13" y="523" type="line"/>
      <point x="-13" y="619" type="line"/>
      <point x="716" y="619" type="line"/>
      <point x="716" y="523" type="line"/>
      <point x="552" y="523" type="line"/>
      <point x="552" y="381" type="line"/>
      <point x="201" y="381" type="line" smooth="yes"/>
      <point x="120" y="381"/>
      <point x="100" y="270"/>
      <point x="163" y="229" type="curve"/>
      <point x="252" y="283"/>
      <point x="362" y="328"/>
      <point x="399" y="327" type="curve" smooth="yes"/>
    </contour>
    <contour>
      <point x="302" y="208" type="curve"/>
      <point x="303" y="6" type="line"/>
      <point x="349" y="-37"/>
      <point x="424" y="-8"/>
      <point x="422" y="62" type="curve"/>
      <point x="422" y="217" type="line"/>
      <point x="381" y="228"/>
      <point x="340" y="223"/>
    </contour>
  </outline>
</glyph>
<glyph name="dvH_NA" format="1">
  <advance width="674"/>
  <outline>
    <contour>
      <point x="481" y="-255" type="move" name="blwm.virama"/>
    </contour>
    <contour>
      <point x="506" y="619" type="move" name="abvm.bindu"/>
    </contour>
    <contour>
      <point x="466" y="-255" type="move" name="blwm.u"/>
    </contour>
    <contour>
      <point x="501" y="619" type="move" name="abvm.e"/>
    </contour>
    <contour>
      <point x="-13" y="523" type="line"/>
      <point x="441" y="523" type="line"/>
      <point x="441" y="466" type="line"/>
      <point x="127" y="455" type="line"/>
      <point x="73" y="452"/>
      <point x="14" y="328"/>
      <point x="56" y="283" type="curve" smooth="yes"/>
      <point x="74" y="263"/>
      <point x="107" y="235"/>
      <point x="134" y="211" type="curve"/>
      <point x="77" y="173"/>
      <point x="35" y="133"/>
      <point x="36" y="102" type="curve" smooth="yes"/>
      <point x="38" y="25"/>
      <point x="227" y="-203"/>
      <point x="304" y="-262" type="curve" smooth="yes"/>
      <point x="322" y="-276"/>
      <point x="453" y="-267"/>
      <point x="521" y="-243" type="curve"/>
      <point x="456" y="-163" type="line"/>
      <point x="320" y="-221"/>
      <point x="241" y="-134"/>
      <point x="209" y="-96" type="curve" smooth="yes"/>
      <point x="10" y="141"/>
      <point x="322" y="330"/>
      <point x="483" y="170" type="curve" smooth="yes"/>
      <point x="485" y="168"/>
      <point x="486" y="166"/>
      <point x="488" y="165" type="curve"/>
      <point x="168" y="166"/>
      <point x="265" y="168"/>
      <point x="255" y="165" type="curve" smooth="yes"/>
      <point x="199" y="147"/>
      <point x="184" y="57"/>
      <point x="234" y="11" type="curve" smooth="yes"/>
      <point x="269" y="-21"/>
      <point x="299" y="-38"/>
      <point x="346" y="-67" type="curve" smooth="yes"/>
      <point x="387" y="-92"/>
      <point x="516" y="-30"/>
      <point x="432" y="86" type="curve"/>
      <point x="544" y="84" type="line"/>
      <point x="560" y="38"/>
      <point x="540" y="5"/>
      <point x="508" y="-15" type="curve"/>
      <point x="570" y="-97" type="line"/>
      <point x="617" y="-56"/>
      <point x="652" y="-1"/>
      <point x="663" y="18" type="curve" smooth="yes"/>
      <point x="676" y="40"/>
      <point x="452" y="326"/>
      <point x="399" y="327" type="curve" smooth="yes"/>
      <point x="362" y="328"/>
      <point x="252" y="283"/>
      <point x="163" y="229" type="curve"/>
      <point x="100" y="270"/>
      <point x="120" y="381"/>
      <point x="201" y="381" type="curve" smooth="yes"/>
      <point x="552" y="381" type="line"/>
      <point x="552" y="523" type="line"/>
      <point x="680" y="523" type="line"/>
      <point x="680" y="619" type="line"/>
      <point x="-13" y="619" type="line"/>
    </contour>
  </outline>
</glyph>
<glyph name="dvH_NNA" format="1">
  <advance width="676"/>
  <outline>
    <contour>
      <point x="357" y="-322" type="move" name="blwm.virama"/>
    </contour>
    <contour>
      <point x="477" y="662" type="move" name="abvm.bindu"/>
    </contour>
    <contour>
      <point x="357" y="-332" type="move" name="blwm.u"/>
    </contour>
    <contour>
      <point x="477" y="672" type="move" name="abvm.e"/>
    </contour>
  </outline>
</glyph>
<glyph name="dvH_RA" format="1">
  <advance width="543"/>
  <outline>
    <contour>
      <point x="404" y="-153" type="move" name="blwm.virama"/>
    </contour>
    <contour>
      <point x="385" y="619" type="move" name="abvm.bindu"/>
    </contour>
    <contour>
      <point x="393" y="-159" type="move" name="blwm.u"/>
    </contour>
    <contour>
      <point x="377" y="619" type="move" name="abvm.e"/>
    </contour>
    <contour>
      <point x="-13" y="523" type="line"/>
      <point x="311" y="523" type="line"/>
      <point x="311" y="466" type="line"/>
      <point x="127" y="455" type="line" smooth="yes"/>
      <point x="73" y="452"/>
      <point x="14" y="328"/>
      <point x="56" y="283" type="curve" smooth="yes"/>
      <point x="74" y="263"/>
      <point x="97" y="241"/>
      <point x="122" y="219" type="curve"/>
      <point x="73" y="181"/>
      <point x="35" y="138"/>
      <point x="36" y="102" type="curve" smooth="yes"/>
      <point x="38" y="25"/>
      <point x="176" y="-105"/>
      <point x="253" y="-164" type="curve" smooth="yes"/>
      <point x="271" y="-178"/>
      <point x="370" y="-168"/>
      <point x="438" y="-144" type="curve"/>
      <point x="373" y="-64" type="line"/>
      <point x="265" y="-118"/>
      <point x="208" y="-64"/>
      <point x="178" y="-25" type="curve" smooth="yes"/>
      <point x="68" y="117"/>
      <point x="249" y="253"/>
      <point x="360" y="203" type="curve"/>
      <point x="298" y="144"/>
      <point x="267" y="110"/>
      <point x="195" y="40" type="curve"/>
      <point x="283" y="-15" type="line"/>
      <point x="327" y="58"/>
      <point x="369" y="121"/>
      <point x="401" y="171" type="curve"/>
      <point x="436" y="128"/>
      <point x="416" y="83"/>
      <point x="377" y="41" type="curve"/>
      <point x="470" y="-20" type="line"/>
      <point x="513" y="39"/>
      <point x="513" y="59"/>
      <point x="524" y="78" type="curve" smooth="yes"/>
      <point x="537" y="100"/>
      <point x="361" y="308"/>
      <point x="308" y="309" type="curve" smooth="yes"/>
      <point x="275" y="310"/>
      <point x="208" y="280"/>
      <point x="149" y="239" type="curve"/>
      <point x="86" y="278"/>
      <point x="120" y="381"/>
      <point x="201" y="381" type="curve" smooth="yes"/>
      <point x="422" y="381" type="line"/>
      <point x="422" y="523" type="line"/>
      <point x="547" y="523" type="line"/>
      <point x="547" y="619" type="line"/>
      <point x="-13" y="619" type="line"/>
    </contour>
  </outline>
</glyph>
<glyph name="dvH_VA" format="1">
  <advance width="702"/>
  <outline>
    <contour>
      <point x="418" y="-322" type="move" name="blwm.virama"/>
    </contour>
    <contour>
      <point x="512" y="662" type="move" name="abvm.bindu"/>
    </contour>
    <contour>
      <point x="418" y="-332" type="move" name="blwm.u"/>
    </contour>
    <contour>
      <point x="512" y="672" type="move" name="abvm.e"/>
    </contour>
  </outline>
</glyph>
<glyph name="dvJH" format="1">
  <advance width="504"/>
  <outline>
    <contour>
      <point x="500" y="-143" type="line"/>
      <point x="408" y="-83"/>
      <point x="164" y="131"/>
      <point x="117" y="153" type="curve"/>
      <point x="82" y="144"/>
      <point x="45" y="103"/>
      <point x="45" y="89" type="curve" smooth="yes"/>
      <point x="45" y="45"/>
      <point x="96" y="2"/>
      <point x="103" y="-4" type="curve"/>
      <point x="130" y="-32"/>
      <point x="213" y="-19"/>
      <point x="268" y="-15" type="curve"/>
      <point x="339" y="-74"/>
      <point x="397" y="-126"/>
      <point x="461" y="-185" type="curve"/>
    </contour>
    <contour>
      <point x="228" y="-3" type="line"/>
      <point x="478" y="-65"/>
      <point x="549" y="152"/>
      <point x="508" y="192" type="curve" smooth="yes"/>
      <point x="475" y="225"/>
      <point x="422" y="274"/>
      <point x="370" y="312" type="curve" smooth="yes"/>
      <point x="355" y="322"/>
      <point x="243" y="277"/>
      <point x="197" y="265" type="curve" smooth="yes"/>
      <point x="110" y="242"/>
      <point x="143" y="381"/>
      <point x="188" y="381" type="curve" smooth="yes"/>
      <point x="391" y="381" type="line"/>
      <point x="388" y="554" type="line"/>
      <point x="277" y="554" type="line"/>
      <point x="277" y="476" type="line"/>
      <point x="114" y="465" type="line" smooth="yes"/>
      <point x="60" y="461"/>
      <point x="1" y="337"/>
      <point x="43" y="292" type="curve" smooth="yes"/>
      <point x="80" y="252"/>
      <point x="138" y="205"/>
      <point x="187" y="165" type="curve" smooth="yes"/>
      <point x="241" y="122"/>
      <point x="371" y="264"/>
      <point x="418" y="216" type="curve"/>
      <point x="472" y="163"/>
      <point x="325" y="36"/>
      <point x="191" y="86" type="curve"/>
    </contour>
    <contour>
      <point x="-6" y="522" type="line"/>
      <point x="773" y="522" type="line"/>
      <point x="773" y="619" type="line"/>
      <point x="-6" y="619" type="line"/>
    </contour>
    <contour>
      <point x="434" y="255" type="line"/>
      <point x="510" y="226"/>
      <point x="540" y="223"/>
      <point x="626" y="262" type="curve"/>
      <point x="625" y="264"/>
      <point x="588" y="355"/>
      <point x="586" y="354" type="curve" smooth="yes"/>
      <point x="512" y="300"/>
      <point x="467" y="293"/>
      <point x="366" y="313" type="curve"/>
    </contour>
  </outline>
</glyph>
<glyph name="dvJH_NA" format="1">
  <advance width="1026"/>
  <outline>
    <contour>
      <point x="370" y="312" type="line"/>
      <point x="471" y="292"/>
      <point x="728" y="298"/>
      <point x="837" y="430" type="curve" smooth="yes"/>
      <point x="838" y="432"/>
      <point x="891" y="345"/>
      <point x="892" y="343" type="curve"/>
      <point x="722" y="192"/>
      <point x="449" y="255"/>
      <point x="382" y="289" type="curve"/>
    </contour>
    <contour>
      <point x="834" y="538" type="line"/>
      <point x="958" y="538" type="line"/>
      <point x="958" y="-55" type="line"/>
      <point x="834" y="1" type="line"/>
    </contour>
    <contour>
      <point x="-6" y="619" type="line"/>
      <point x="1034" y="619" type="line"/>
      <point x="1034" y="523" type="line"/>
      <point x="-6" y="523" type="line"/>
    </contour>
    <contour>
      <point x="191" y="86" type="line"/>
      <point x="325" y="36"/>
      <point x="472" y="163"/>
      <point x="418" y="216" type="curve"/>
      <point x="371" y="264"/>
      <point x="241" y="122"/>
      <point x="187" y="165" type="curve" smooth="yes"/>
      <point x="138" y="205"/>
      <point x="80" y="252"/>
      <point x="43" y="292" type="curve" smooth="yes"/>
      <point x="1" y="337"/>
      <point x="60" y="461"/>
      <point x="114" y="465" type="curve" smooth="yes"/>
      <point x="277" y="476" type="line"/>
      <point x="277" y="554" type="line"/>
      <point x="388" y="554" type="line"/>
      <point x="391" y="381" type="line"/>
      <point x="188" y="381" type="line" smooth="yes"/>
      <point x="143" y="381"/>
      <point x="110" y="242"/>
      <point x="197" y="265" type="curve" smooth="yes"/>
      <point x="243" y="277"/>
      <point x="355" y="322"/>
      <point x="370" y="312" type="curve" smooth="yes"/>
      <point x="422" y="274"/>
      <point x="475" y="225"/>
      <point x="508" y="192" type="curve" smooth="yes"/>
      <point x="549" y="152"/>
      <point x="478" y="-65"/>
      <point x="228" y="-3" type="curve"/>
    </contour>
    <contour>
      <point x="461" y="-185" type="line"/>
      <point x="397" y="-126"/>
      <point x="339" y="-74"/>
      <point x="268" y="-15" type="curve"/>
      <point x="213" y="-19"/>
      <point x="130" y="-32"/>
      <point x="103" y="-4" type="curve"/>
      <point x="96" y="2"/>
      <point x="45" y="45"/>
      <point x="45" y="89" type="curve" smooth="yes"/>
      <point x="45" y="103"/>
      <point x="82" y="144"/>
      <point x="117" y="153" type="curve"/>
      <point x="164" y="131"/>
      <point x="408" y="-83"/>
      <point x="500" y="-143" type="curve"/>
    </contour>
    <contour>
      <point x="944" y="93" type="line"/>
      <point x="669" y="17" type="line"/>
      <point x="441" y="-45"/>
      <point x="691" y="-165"/>
      <point x="668" y="26" type="curve"/>
      <point x="707" y="42" type="line"/>
      <point x="824" y="-29"/>
      <point x="700" y="-175"/>
      <point x="651" y="-152" type="curve"/>
      <point x="596" y="-128"/>
      <point x="566" y="-112"/>
      <point x="525" y="-85" type="curve" smooth="yes"/>
      <point x="461" y="-43"/>
      <point x="490" y="39"/>
      <point x="543" y="78" type="curve"/>
      <point x="554" y="85"/>
      <point x="479" y="62"/>
      <point x="918" y="185" type="curve"/>
    </contour>
  </outline>
</glyph>
<glyph name="dvJ" format="1">
  <advance width="628"/>
  <outline>
    <contour>
      <point x="348" y="305" type="line"/>
      <point x="420" y="305" type="line"/>
      <point x="474" y="225"/>
      <point x="397" y="182"/>
      <point x="359" y="171" type="curve" smooth="yes"/>
      <point x="244" y="138"/>
      <point x="123" y="301"/>
      <point x="61" y="376" type="curve"/>
      <point x="35" y="360" type="line"/>
      <point x="121" y="233"/>
      <point x="214" y="105"/>
      <point x="266" y="69" type="curve" smooth="yes"/>
      <point x="353" y="10"/>
      <point x="588" y="112"/>
      <point x="554" y="216" type="curve" smooth="yes"/>
      <point x="548" y="233"/>
      <point x="518" y="272"/>
      <point x="481" y="305" type="curve"/>
      <point x="752" y="305" type="line"/>
      <point x="746" y="401" type="line"/>
      <point x="239" y="401" type="line"/>
    </contour>
    <contour>
      <point x="-6" y="523" type="line"/>
      <point x="788" y="523" type="line"/>
      <point x="788" y="619" type="line"/>
      <point x="-6" y="619" type="line"/>
    </contour>
  </outline>
</glyph>
<glyph name="dvJH" format="1">
  <advance width="504"/>
  <outline>
    <contour>
      <point x="-6" y="523" type="line"/>
      <point x="277" y="523" type="line"/>
      <point x="277" y="476" type="line"/>
      <point x="114" y="465" type="line" smooth="yes"/>
      <point x="60" y="461"/>
      <point x="1" y="337"/>
      <point x="43" y="292" type="curve" smooth="yes"/>
      <point x="80" y="252"/>
      <point x="138" y="205"/>
      <point x="187" y="165" type="curve" smooth="yes"/>
      <point x="241" y="122"/>
      <point x="371" y="264"/>
      <point x="418" y="216" type="curve" smooth="yes"/>
      <point x="468" y="166"/>
      <point x="344" y="53"/>
      <point x="219" y="78" type="curve"/>
      <point x="171" y="116"/>
      <point x="133" y="145"/>
      <point x="117" y="153" type="curve"/>
      <point x="82" y="144"/>
      <point x="45" y="103"/>
      <point x="45" y="89" type="curve" smooth="yes"/>
      <point x="45" y="45"/>
      <point x="96" y="2"/>
      <point x="103" y="-4" type="curve"/>
      <point x="130" y="-32"/>
      <point x="213" y="-19"/>
      <point x="268" y="-15" type="curve"/>
      <point x="339" y="-74"/>
      <point x="397" y="-126"/>
      <point x="461" y="-185" type="curve"/>
      <point x="500" y="-143" type="line"/>
      <point x="462" y="-118"/>
      <point x="397" y="-67"/>
      <point x="331" y="-13" type="curve"/>
      <point x="497" y="-2"/>
      <point x="542" y="158"/>
      <point x="508" y="192" type="curve" smooth="yes"/>
      <point x="489" y="211"/>
      <point x="463" y="235"/>
      <point x="435" y="259" type="curve"/>
      <point x="518" y="227"/>
      <point x="625" y="228"/>
      <point x="688" y="299" type="curve"/>
      <point x="687" y="301"/>
      <point x="634" y="388"/>
      <point x="633" y="386" type="curve" smooth="yes"/>
      <point x="584" y="316"/>
      <point x="471" y="292"/>
      <point x="370" y="312" type="curve"/>
      <point x="355" y="322"/>
      <point x="243" y="277"/>
      <point x="197" y="265" type="curve" smooth="yes"/>
      <point x="110" y="242"/>
      <point x="143" y="381"/>
      <point x="188" y="381" type="curve" smooth="yes"/>
      <point x="391" y="381" type="line"/>
      <point x="388" y="523" type="line"/>
      <point x="773" y="523" type="line"/>
      <point x="773" y="619" type="line"/>
      <point x="-6" y="619" type="line"/>
    </contour>
  </outline>
</glyph>
<glyph name="dvJH_NA" format="1">
  <advance width="1026"/>
  <outline>
    <contour>
      <point x="834" y="1" type="line"/>
      <point x="958" y="-55" type="line"/>
      <point x="958" y="523" type="line"/>
      <point x="1034" y="523" type="line"/>
      <point x="1034" y="619" type="line"/>
      <point x="-6" y="619" type="line"/>
      <point x="-6" y="523" type="line"/>
      <point x="277" y="523" type="line"/>
      <point x="277" y="476" type="line"/>
      <point x="114" y="465" type="line" smooth="yes"/>
      <point x="60" y="461"/>
      <point x="1" y="337"/>
      <point x="43" y="292" type="curve" smooth="yes"/>
      <point x="80" y="252"/>
      <point x="138" y="205"/>
      <point x="187" y="165" type="curve" smooth="yes"/>
      <point x="241" y="122"/>
      <point x="371" y="264"/>
      <point x="418" y="216" type="curve" smooth="yes"/>
      <point x="468" y="166"/>
      <point x="344" y="53"/>
      <point x="219" y="78" type="curve"/>
      <point x="171" y="116"/>
      <point x="133" y="145"/>
      <point x="117" y="153" type="curve"/>
      <point x="82" y="144"/>
      <point x="45" y="103"/>
      <point x="45" y="89" type="curve" smooth="yes"/>
      <point x="45" y="45"/>
      <point x="96" y="2"/>
      <point x="103" y="-4" type="curve"/>
      <point x="130" y="-32"/>
      <point x="213" y="-19"/>
      <point x="268" y="-15" type="curve"/>
      <point x="339" y="-74"/>
      <point x="397" y="-126"/>
      <point x="461" y="-185" type="curve"/>
      <point x="500" y="-143" type="line"/>
      <point x="462" y="-118"/>
      <point x="397" y="-67"/>
      <point x="331" y="-13" type="curve"/>
      <point x="497" y="-2"/>
      <point x="542" y="158"/>
      <point x="508" y="192" type="curve" smooth="yes"/>
      <point x="485" y="215"/>
      <point x="452" y="245"/>
      <point x="417" y="275" type="curve"/>
      <point x="505" y="246"/>
      <point x="690" y="219"/>
      <point x="834" y="301" type="curve"/>
      <point x="834" y="163" type="line"/>
      <point x="725" y="131"/>
      <point x="549" y="79"/>
      <point x="537" y="73" type="curve"/>
      <point x="487" y="32"/>
      <point x="460" y="-51"/>
      <point x="526" y="-90" type="curve" smooth="yes"/>
      <point x="569" y="-116"/>
      <point x="599" y="-130"/>
      <point x="654" y="-152" type="curve" smooth="yes"/>
      <point x="702" y="-171"/>
      <point x="812" y="-36"/>
      <point x="718" y="34" type="curve"/>
      <point x="834" y="65" type="line"/>
    </contour>
    <contour>
      <point x="370" y="312" type="curve"/>
      <point x="355" y="322"/>
      <point x="243" y="277"/>
      <point x="197" y="265" type="curve" smooth="yes"/>
      <point x="110" y="242"/>
      <point x="143" y="381"/>
      <point x="188" y="381" type="curve" smooth="yes"/>
      <point x="391" y="381" type="line"/>
      <point x="388" y="523" type="line"/>
      <point x="834" y="523" type="line"/>
      <point x="834" y="426" type="line"/>
      <point x="723" y="298"/>
      <point x="470" y="292"/>
    </contour>
    <contour>
      <point x="666" y="17" type="curve"/>
      <point x="680" y="-56"/>
      <point x="618" y="-103"/>
      <point x="582" y="-67" type="curve" smooth="yes"/>
      <point x="549" y="-34"/>
      <point x="612" y="7"/>
    </contour>
  </outline>
</glyph>
<glyph name="dvJ_NYA" format="1">
  <advance width="745"/>
  <outline>
    <contour>
      <point x="545" y="0" type="line"/>
      <point x="669" y="-56" type="line"/>
      <point x="669" y="523" type="line"/>
      <point x="755" y="523" type="line"/>
      <point x="755" y="619" type="line"/>
      <point x="-59" y="619" type="line"/>
      <point x="-59" y="523" type="line"/>
      <point x="545" y="523" type="line"/>
      <point x="545" y="402" type="line"/>
      <point x="72" y="401" type="line"/>
      <point x="181" y="305" type="line"/>
      <point x="263" y="305" type="line"/>
      <point x="362" y="221"/>
      <point x="320" y="96"/>
      <point x="215" y="98" type="curve"/>
      <point x="170" y="133"/>
      <point x="134" y="161"/>
      <point x="119" y="168" type="curve"/>
      <point x="84" y="159"/>
      <point x="47" y="118"/>
      <point x="47" y="104" type="curve" smooth="yes"/>
      <point x="47" y="60"/>
      <point x="98" y="17"/>
      <point x="105" y="11" type="curve"/>
      <point x="132" y="-17"/>
      <point x="215" y="-4"/>
      <point x="270" y="0" type="curve"/>
      <point x="341" y="-59"/>
      <point x="399" y="-111"/>
      <point x="463" y="-170" type="curve"/>
      <point x="502" y="-128" type="line"/>
      <point x="459" y="-100"/>
      <point x="385" y="-40"/>
      <point x="312" y="19" type="curve"/>
      <point x="412" y="63"/>
      <point x="462" y="172"/>
      <point x="439" y="203" type="curve" smooth="yes"/>
      <point x="416" y="233"/>
      <point x="375" y="271"/>
      <point x="332" y="305" type="curve"/>
      <point x="545" y="305" type="line"/>
    </contour>
  </outline>
</glyph>
<glyph name="dvJ_TA" format="1">
  <advance width="1210"/>
  <outline>
    <contour>
      <point x="-16" y="619" type="line"/>
      <point x="778" y="619" type="line"/>
      <point x="778" y="523" type="line"/>
      <point x="-16" y="523" type="line"/>
    </contour>
    <contour>
      <point x="417" y="345" type="line"/>
      <point x="472" y="315"/>
      <point x="536" y="242"/>
      <point x="544" y="216" type="curve" smooth="yes"/>
      <point x="578" y="112"/>
      <point x="343" y="10"/>
      <point x="256" y="69" type="curve" smooth="yes"/>
      <point x="204" y="105"/>
      <point x="111" y="233"/>
      <point x="25" y="360" type="curve"/>
      <point x="51" y="376" type="line"/>
      <point x="113" y="301"/>
      <point x="234" y="138"/>
      <point x="349" y="171" type="curve" smooth="yes"/>
      <point x="390" y="183"/>
      <point x="477" y="232"/>
      <point x="394" y="325" type="curve"/>
    </contour>
    <contour>
      <point x="229" y="401" type="line"/>
      <point x="776" y="401" type="line"/>
      <point x="782" y="305" type="line"/>
      <point x="338" y="305" type="line"/>
    </contour>
    <component base="dvTA" xOffset="599"/>
  </outline>
</glyph>
